SplineFontDB: 3.0
FontName: Sansita-ExtraBoldItalic
FullName: Sansita-ExtraBoldItalic
FamilyName: Sansita
Weight: ExtraBold
Copyright: Copyright (c) 2011-2013, Omnibus-Type (www.omnibus-type.com omnibus.type@gmail.com) with Reserved Font Name 'Sansita'
Version: 001.004
ItalicAngle: -11
UnderlinePosition: -102.4
UnderlineWidth: 102.4
Ascent: 1638
Descent: 410
sfntRevision: 0x00010106
LayerCount: 2
Layer: 0 1 "Back"  1
Layer: 1 1 "Fore"  0
XUID: [1021 809 -2065993493 12859362]
FSType: 8
OS2Version: 3
OS2_WeightWidthSlopeOnly: 0
OS2_UseTypoMetrics: 1
CreationTime: 1387883437
ModificationTime: 1388173136
PfmFamily: 81
TTFWeight: 800
TTFWidth: 5
LineGap: 0
VLineGap: 0
Panose: 0 0 9 0 0 0 0 0 0 0
OS2TypoAscent: 1434
OS2TypoAOffset: 0
OS2TypoDescent: -369
OS2TypoDOffset: 0
OS2TypoLinegap: 655
OS2WinAscent: 2089
OS2WinAOffset: 0
OS2WinDescent: 369
OS2WinDOffset: 0
HheadAscent: 2089
HheadAOffset: 0
HheadDescent: -369
HheadDOffset: 0
OS2SubXSize: 1331
OS2SubYSize: 1229
OS2SubXOff: -31
OS2SubYOff: 154
OS2SupXSize: 1331
OS2SupYSize: 1229
OS2SupXOff: 139
OS2SupYOff: 717
OS2StrikeYSize: 102
OS2StrikeYPos: 627
OS2Vendor: 'UKWN'
OS2CodePages: 20000093.00000000
OS2UnicodeRanges: 00000007.00000000.00000000.00000000
Lookup: 1 0 0 "'aalt' Access All Alternates lookup 0"  {"'aalt' Access All Alternates lookup 0 subtable"  } ['aalt' ('DFLT' <'dflt' > 'grek' <'dflt' > 'latn' <'AZE ' 'CAT ' 'CRT ' 'ESP ' 'KAZ ' 'MOL ' 'NLD ' 'PLK ' 'ROM ' 'TAT ' 'TRK ' 'dflt' > ) ]
Lookup: 3 0 0 "'aalt' Access All Alternates lookup 1"  {"'aalt' Access All Alternates lookup 1 subtable"  } ['aalt' ('DFLT' <'dflt' > 'grek' <'dflt' > 'latn' <'AZE ' 'CAT ' 'CRT ' 'ESP ' 'KAZ ' 'MOL ' 'NLD ' 'PLK ' 'ROM ' 'TAT ' 'TRK ' 'dflt' > ) ]

StartChar: .notdef
Encoding: 65536 -1 0
Width: 1052
Flags: MW
HStem: 0 102<100 797 100 940> 1331 102<336 1032 336 336>
VStem: -84 1303
LayerCount: 2
Fore
SplineSet
797 102 m 1,0,-1
 547 625 l 1,1,-1
 100 102 l 1,2,-1
 797 102 l 1,0,-1
872 195 m 1,3,-1
 1077 1239 l 1,4,-1
 629 717 l 1,5,-1
 872 195 l 1,3,-1
53 195 m 1,6,-1
 506 717 l 1,7,-1
 258 1239 l 1,8,-1
 53 195 l 1,6,-1
1032 1331 m 1,9,-1
 336 1331 l 1,10,-1
 586 809 l 1,11,-1
 1032 1331 l 1,9,-1
195 1434 m 1,12,-1
 1219 1434 l 1,13,-1
 940 0 l 1,14,-1
 -84 0 l 1,15,-1
 195 1434 l 1,12,-1
EndSplineSet
Validated: 1
EndChar

StartChar: A
Encoding: 65 65 1
Width: 1204
Flags: MW
HStem: 328 162<350 633 350 641 287 633> 1065 287<602 602> 1311 41G<522 981 981 981>
VStem: -123 1278
LayerCount: 2
Fore
SplineSet
602 1065 m 1,0,1
 534 916 534 916 350 489 c 1,2,-1
 633 489 l 1,3,-1
 602 1065 l 1,0,1
1047 354 m 2,4,5
 1062 138 1062 138 1155 82 c 1,6,7
 1127 24 1127 24 1066.5 -8.5 c 128,-1,8
 1006 -41 1006 -41 924 -41 c 0,9,10
 814 -41 814 -41 753 17.5 c 128,-1,11
 692 76 692 76 664 190 c 0,12,13
 652 242 652 242 641 328 c 1,14,-1
 287 328 l 1,15,16
 215 152 215 152 164 0 c 1,17,-1
 -123 0 l 1,18,-1
 522 1352 l 1,19,-1
 981 1352 l 1,20,-1
 1047 354 l 2,4,5
EndSplineSet
Validated: 8388609
Substitution2: "Single Substitution lookup 21 subtable" ordfeminine
Substitution2: "'aalt' Access All Alternates lookup 0 subtable" ordfeminine
Position2: "'cpsp' Capital Spacing lookup 3 subtable" dx=10 dy=0 dh=20 dv=0
EndChar

StartChar: Aacute
Encoding: 193 193 2
Width: 1204
Flags: MW
HStem: 328 162<350 633 350 641 287 633> 1065 287<602 602> 1311 41G<522 981 981 981>
VStem: -123 1278
LayerCount: 2
Fore
SplineSet
602 1065 m 1,0,1
 534 916 534 916 350 489 c 1,2,-1
 633 489 l 1,3,-1
 602 1065 l 1,0,1
1047 354 m 2,4,5
 1062 138 1062 138 1155 82 c 1,6,7
 1127 24 1127 24 1066.5 -8.5 c 128,-1,8
 1006 -41 1006 -41 924 -41 c 0,9,10
 814 -41 814 -41 753 17.5 c 128,-1,11
 692 76 692 76 664 190 c 0,12,13
 652 242 652 242 641 328 c 1,14,-1
 287 328 l 1,15,16
 215 152 215 152 164 0 c 1,17,-1
 -123 0 l 1,18,-1
 522 1352 l 1,19,-1
 981 1352 l 1,20,-1
 1047 354 l 2,4,5
590 1554 m 1,21,-1
 1092 1763 l 1,22,23
 1149 1721 1149 1721 1149 1653 c 0,24,25
 1149 1602 1149 1602 1125 1564.5 c 128,-1,26
 1101 1527 1101 1527 1059 1506 c 128,-1,27
 1017 1485 1017 1485 967.5 1474.5 c 128,-1,28
 918 1464 918 1464 858 1462 c 2,29,-1
 614 1454 l 1,30,-1
 590 1554 l 1,21,-1
EndSplineSet
Validated: 8388609
Position2: "'cpsp' Capital Spacing lookup 3 subtable" dx=10 dy=0 dh=20 dv=0
EndChar

StartChar: Abreve
Encoding: 258 258 3
Width: 1204
Flags: MW
HStem: 328 162<350 633 350 641 287 633> 1065 287<602 602> 1311 41G<522 981 981 981> 1436 100<749 835 749 905>
VStem: 408 303<1615 1642 1615 1662>
LayerCount: 2
Fore
SplineSet
602 1065 m 1,0,1
 534 916 534 916 350 489 c 1,2,-1
 633 489 l 1,3,-1
 602 1065 l 1,0,1
1047 354 m 2,4,5
 1062 138 1062 138 1155 82 c 1,6,7
 1127 24 1127 24 1066.5 -8.5 c 128,-1,8
 1006 -41 1006 -41 924 -41 c 0,9,10
 814 -41 814 -41 753 17.5 c 128,-1,11
 692 76 692 76 664 190 c 0,12,13
 652 242 652 242 641 328 c 1,14,-1
 287 328 l 1,15,16
 215 152 215 152 164 0 c 1,17,-1
 -123 0 l 1,18,-1
 522 1352 l 1,19,-1
 981 1352 l 1,20,-1
 1047 354 l 2,4,5
719 1708 m 1,21,22
 711 1650 711 1650 711 1630 c 0,23,24
 711 1613 711 1613 712.5 1601.5 c 128,-1,25
 714 1590 714 1590 720 1572.5 c 128,-1,26
 726 1555 726 1555 742.5 1545.5 c 128,-1,27
 759 1536 759 1536 784 1536 c 0,28,29
 813 1536 813 1536 835.5 1548 c 128,-1,30
 858 1560 858 1560 870.5 1573.5 c 128,-1,31
 883 1587 883 1587 894.5 1616 c 128,-1,32
 906 1645 906 1645 910 1659.5 c 128,-1,33
 914 1674 914 1674 922 1708 c 1,34,-1
 1217 1708 l 1,35,36
 1190 1587 1190 1587 1077.5 1511.5 c 128,-1,37
 965 1436 965 1436 764 1436 c 0,38,39
 593 1436 593 1436 500.5 1498.5 c 128,-1,40
 408 1561 408 1561 408 1653 c 0,41,42
 408 1678 408 1678 414 1708 c 1,43,-1
 719 1708 l 1,21,22
EndSplineSet
Validated: 8388609
Position2: "'cpsp' Capital Spacing lookup 3 subtable" dx=10 dy=0 dh=20 dv=0
EndChar

StartChar: Acircumflex
Encoding: 194 194 4
Width: 1204
Flags: MW
HStem: 328 162<350 633 350 641 287 633> 1065 287<602 602> 1311 41G<522 981 981 981>
VStem: -123 1278
LayerCount: 2
Fore
SplineSet
602 1065 m 1,0,1
 534 916 534 916 350 489 c 1,2,-1
 633 489 l 1,3,-1
 602 1065 l 1,0,1
1047 354 m 2,4,5
 1062 138 1062 138 1155 82 c 1,6,7
 1127 24 1127 24 1066.5 -8.5 c 128,-1,8
 1006 -41 1006 -41 924 -41 c 0,9,10
 814 -41 814 -41 753 17.5 c 128,-1,11
 692 76 692 76 664 190 c 0,12,13
 652 242 652 242 641 328 c 1,14,-1
 287 328 l 1,15,16
 215 152 215 152 164 0 c 1,17,-1
 -123 0 l 1,18,-1
 522 1352 l 1,19,-1
 981 1352 l 1,20,-1
 1047 354 l 2,4,5
1008 1407 m 1,21,-1
 770 1513 l 1,22,-1
 467 1407 l 1,23,-1
 403 1501 l 1,24,-1
 745 1739 l 1,25,-1
 838 1739 l 1,26,-1
 1110 1501 l 1,27,-1
 1008 1407 l 1,21,-1
EndSplineSet
Validated: 8388609
Position2: "'cpsp' Capital Spacing lookup 3 subtable" dx=10 dy=0 dh=20 dv=0
EndChar

StartChar: Adieresis
Encoding: 196 196 5
Width: 1204
Flags: MW
HStem: 328 162<350 633 350 641 287 633> 1065 287<602 602> 1311 41G<522 981 981 981> 1413 311<488 601 968 1080>
VStem: -123 1354 332 420<1518 1617> 811 420<1518 1617>
LayerCount: 2
Fore
SplineSet
602 1065 m 1,0,1
 534 916 534 916 350 489 c 1,2,-1
 633 489 l 1,3,-1
 602 1065 l 1,0,1
1047 354 m 2,4,5
 1062 138 1062 138 1155 82 c 1,6,7
 1127 24 1127 24 1066.5 -8.5 c 128,-1,8
 1006 -41 1006 -41 924 -41 c 0,9,10
 814 -41 814 -41 753 17.5 c 128,-1,11
 692 76 692 76 664 190 c 0,12,13
 652 242 652 242 641 328 c 1,14,-1
 287 328 l 1,15,16
 215 152 215 152 164 0 c 1,17,-1
 -123 0 l 1,18,-1
 522 1352 l 1,19,-1
 981 1352 l 1,20,-1
 1047 354 l 2,4,5
1028 1724 m 0,21,22
 1121 1724 1121 1724 1176 1683.5 c 128,-1,23
 1231 1643 1231 1643 1231 1569 c 128,-1,24
 1231 1495 1231 1495 1172.5 1454 c 128,-1,25
 1114 1413 1114 1413 1020 1413 c 0,26,27
 927 1413 927 1413 869 1453 c 128,-1,28
 811 1493 811 1493 811 1565 c 0,29,30
 811 1640 811 1640 872 1682 c 128,-1,31
 933 1724 933 1724 1028 1724 c 0,21,22
549 1724 m 0,32,33
 642 1724 642 1724 697 1683.5 c 128,-1,34
 752 1643 752 1643 752 1569 c 128,-1,35
 752 1495 752 1495 693.5 1454 c 128,-1,36
 635 1413 635 1413 541 1413 c 0,37,38
 448 1413 448 1413 390 1453 c 128,-1,39
 332 1493 332 1493 332 1565 c 0,40,41
 332 1640 332 1640 393 1682 c 128,-1,42
 454 1724 454 1724 549 1724 c 0,32,33
EndSplineSet
Validated: 8388609
Position2: "'cpsp' Capital Spacing lookup 3 subtable" dx=10 dy=0 dh=20 dv=0
EndChar

StartChar: Agrave
Encoding: 192 192 6
Width: 1204
Flags: MW
HStem: 328 162<350 633 350 641 287 633> 1065 287<602 602> 1311 41G<522 981 981 981>
VStem: -123 1278
LayerCount: 2
Fore
SplineSet
602 1065 m 1,0,1
 534 916 534 916 350 489 c 1,2,-1
 633 489 l 1,3,-1
 602 1065 l 1,0,1
1047 354 m 2,4,5
 1062 138 1062 138 1155 82 c 1,6,7
 1127 24 1127 24 1066.5 -8.5 c 128,-1,8
 1006 -41 1006 -41 924 -41 c 0,9,10
 814 -41 814 -41 753 17.5 c 128,-1,11
 692 76 692 76 664 190 c 0,12,13
 652 242 652 242 641 328 c 1,14,-1
 287 328 l 1,15,16
 215 152 215 152 164 0 c 1,17,-1
 -123 0 l 1,18,-1
 522 1352 l 1,19,-1
 981 1352 l 1,20,-1
 1047 354 l 2,4,5
969 1456 m 1,21,-1
 725 1464 l 2,22,23
 665 1466 665 1466 615.5 1476.5 c 128,-1,24
 566 1487 566 1487 524 1508 c 128,-1,25
 482 1529 482 1529 458 1566.5 c 128,-1,26
 434 1604 434 1604 434 1655 c 0,27,28
 434 1723 434 1723 492 1765 c 1,29,-1
 993 1556 l 1,30,-1
 969 1456 l 1,21,-1
EndSplineSet
Validated: 8388609
Position2: "'cpsp' Capital Spacing lookup 3 subtable" dx=10 dy=0 dh=20 dv=0
EndChar

StartChar: Amacron
Encoding: 256 256 7
Width: 1204
Flags: MW
HStem: 328 162<350 633 350 641 287 633> 1065 287<602 602> 1311 41G<522 981 981 981> 1516 188<594 940 461 1087>
VStem: -123 1278
LayerCount: 2
Fore
SplineSet
602 1065 m 1,0,1
 534 916 534 916 350 489 c 1,2,-1
 633 489 l 1,3,-1
 602 1065 l 1,0,1
1047 354 m 2,4,5
 1062 138 1062 138 1155 82 c 1,6,7
 1127 24 1127 24 1066.5 -8.5 c 128,-1,8
 1006 -41 1006 -41 924 -41 c 0,9,10
 814 -41 814 -41 753 17.5 c 128,-1,11
 692 76 692 76 664 190 c 0,12,13
 652 242 652 242 641 328 c 1,14,-1
 287 328 l 1,15,16
 215 152 215 152 164 0 c 1,17,-1
 -123 0 l 1,18,-1
 522 1352 l 1,19,-1
 981 1352 l 1,20,-1
 1047 354 l 2,4,5
1087 1704 m 1,21,22
 1096 1668 1096 1668 1096 1647 c 0,23,24
 1096 1589 1096 1589 1055.5 1552.5 c 128,-1,25
 1015 1516 1015 1516 940 1516 c 2,26,-1
 461 1516 l 1,27,28
 455 1534 455 1534 455 1571 c 0,29,30
 456 1631 456 1631 495 1667.5 c 128,-1,31
 534 1704 534 1704 594 1704 c 2,32,-1
 1087 1704 l 1,21,22
EndSplineSet
Validated: 8388609
Position2: "'cpsp' Capital Spacing lookup 3 subtable" dx=10 dy=0 dh=20 dv=0
EndChar

StartChar: Aogonek
Encoding: 260 260 8
Width: 1204
Flags: MW
HStem: -528 172<986 1033> -74 41G 328 162<350 633 350 641 287 633> 1065 287<602 602> 1311 41G<522 981 981 981>
VStem: 692 229<-288 -240>
LayerCount: 2
Fore
SplineSet
633 489 m 1,0,-1
 602 1065 l 1,1,2
 534 916 534 916 350 489 c 1,3,-1
 633 489 l 1,0,-1
1047 354 m 2,4,5
 1062 138 1062 138 1155 82 c 1,6,7
 1133 34 1133 34 1075 -4 c 1,8,9
 1007 -56 1007 -56 964.5 -121.5 c 128,-1,10
 922 -187 922 -187 922 -252 c 0,11,12
 922 -356 922 -356 1018 -356 c 0,13,14
 1100 -356 1100 -356 1145 -305 c 1,15,16
 1165 -330 1165 -330 1173.5 -350 c 128,-1,17
 1182 -370 1182 -370 1182 -401 c 0,18,19
 1182 -455 1182 -455 1123.5 -491.5 c 128,-1,20
 1065 -528 1065 -528 961 -528 c 0,21,22
 834 -528 834 -528 763 -469.5 c 128,-1,23
 692 -411 692 -411 692 -299 c 0,24,25
 692 -134 692 -134 846 -33 c 1,26,27
 710 4 710 4 664 190 c 0,28,29
 652 242 652 242 641 328 c 1,30,-1
 287 328 l 1,31,32
 215 152 215 152 164 0 c 1,33,-1
 -123 0 l 1,34,-1
 522 1352 l 1,35,-1
 981 1352 l 1,36,-1
 1047 354 l 2,4,5
EndSplineSet
Validated: 8388609
Position2: "'cpsp' Capital Spacing lookup 3 subtable" dx=10 dy=0 dh=20 dv=0
EndChar

StartChar: Aring
Encoding: 197 197 9
Width: 1204
Flags: MW
HStem: 328 162<350 633 350 641 287 633> 1065 287<602 602> 1311 41G<522 981 981 981> 1413 74<755 813 755 829> 1669 80<786 845>
VStem: 573 139<1532 1588 1532 1615> 887 139<1568 1624>
LayerCount: 2
Fore
SplineSet
602 1065 m 1,0,1
 534 916 534 916 350 489 c 1,2,-1
 633 489 l 1,3,-1
 602 1065 l 1,0,1
1047 354 m 2,4,5
 1062 138 1062 138 1155 82 c 1,6,7
 1127 24 1127 24 1066.5 -8.5 c 128,-1,8
 1006 -41 1006 -41 924 -41 c 0,9,10
 814 -41 814 -41 753 17.5 c 128,-1,11
 692 76 692 76 664 190 c 0,12,13
 652 242 652 242 641 328 c 1,14,-1
 287 328 l 1,15,16
 215 152 215 152 164 0 c 1,17,-1
 -123 0 l 1,18,-1
 522 1352 l 1,19,-1
 981 1352 l 1,20,-1
 1047 354 l 2,4,5
887 1602 m 0,21,22
 887 1669 887 1669 821 1669 c 0,23,24
 770 1669 770 1669 741.5 1637.5 c 128,-1,25
 713 1606 713 1606 713 1554 c 0,26,27
 713 1520 713 1520 728 1503.5 c 128,-1,28
 743 1487 743 1487 778 1487 c 0,29,30
 830 1487 830 1487 858.5 1518.5 c 128,-1,31
 887 1550 887 1550 887 1602 c 0,21,22
1026 1608 m 0,32,33
 1026 1520 1026 1520 947.5 1466.5 c 128,-1,34
 869 1413 869 1413 762 1413 c 0,35,36
 676 1413 676 1413 624.5 1450.5 c 128,-1,37
 573 1488 573 1488 573 1554 c 0,38,39
 573 1641 573 1641 653.5 1695 c 128,-1,40
 734 1749 734 1749 842 1749 c 0,41,42
 927 1749 927 1749 976.5 1712.5 c 128,-1,43
 1026 1676 1026 1676 1026 1608 c 0,32,33
EndSplineSet
Validated: 8388609
Position2: "'cpsp' Capital Spacing lookup 3 subtable" dx=10 dy=0 dh=20 dv=0
EndChar

StartChar: Aringacute
Encoding: 506 506 10
Width: 1204
Flags: MW
HStem: 328 162<350 633 350 641 287 633> 1311 41G<522 565 565 565 728 786 946 981 981 981> 1530 80<760 818>
VStem: 547 139<1405 1451 1396 1477> 860 139<1447 1486>
LayerCount: 2
Fore
SplineSet
633 489 m 1,0,-1
 602 1065 l 1,1,2
 534 916 534 916 350 489 c 1,3,-1
 633 489 l 1,0,-1
686 1417 m 0,4,5
 686 1352 686 1352 752 1352 c 0,6,7
 804 1352 804 1352 832 1382 c 128,-1,8
 860 1412 860 1412 860 1464 c 0,9,10
 860 1530 860 1530 795 1530 c 0,11,12
 743 1530 743 1530 714.5 1499.5 c 128,-1,13
 686 1469 686 1469 686 1417 c 0,4,5
1047 354 m 2,14,15
 1062 138 1062 138 1155 82 c 1,16,17
 1127 24 1127 24 1066.5 -8.5 c 128,-1,18
 1006 -41 1006 -41 924 -41 c 0,19,20
 814 -41 814 -41 753 17.5 c 128,-1,21
 692 76 692 76 664 190 c 0,22,23
 652 242 652 242 641 328 c 1,24,-1
 287 328 l 1,25,26
 215 152 215 152 164 0 c 1,27,-1
 -123 0 l 1,28,-1
 522 1352 l 1,29,-1
 565 1352 l 1,30,31
 547 1379 547 1379 547 1417 c 0,32,33
 547 1503 547 1503 627 1556.5 c 128,-1,34
 707 1610 707 1610 815 1610 c 0,35,36
 900 1610 900 1610 949.5 1573.5 c 128,-1,37
 999 1537 999 1537 999 1470 c 0,38,39
 999 1402 999 1402 946 1352 c 1,40,-1
 981 1352 l 1,41,-1
 1047 354 l 2,14,15
633 1624 m 1,42,-1
 608 1724 l 1,43,-1
 1110 1933 l 1,44,45
 1167 1891 1167 1891 1167 1823 c 0,46,47
 1167 1772 1167 1772 1143.5 1734.5 c 128,-1,48
 1120 1697 1120 1697 1078 1676 c 128,-1,49
 1036 1655 1036 1655 986.5 1644.5 c 128,-1,50
 937 1634 937 1634 877 1632 c 2,51,-1
 633 1624 l 1,42,-1
EndSplineSet
Validated: 1
Position2: "'cpsp' Capital Spacing lookup 3 subtable" dx=10 dy=0 dh=20 dv=0
EndChar

StartChar: Atilde
Encoding: 195 195 11
Width: 1204
Flags: MW
HStem: 328 162<350 633 350 641 287 633> 1065 287<602 602> 1311 41G<522 981 981 981> 1479 221<963 1035 963 1035> 1516 219<528 598>
VStem: -123 1294
LayerCount: 2
Fore
SplineSet
602 1065 m 1,0,1
 534 916 534 916 350 489 c 1,2,-1
 633 489 l 1,3,-1
 602 1065 l 1,0,1
1047 354 m 2,4,5
 1062 138 1062 138 1155 82 c 1,6,7
 1127 24 1127 24 1066.5 -8.5 c 128,-1,8
 1006 -41 1006 -41 924 -41 c 0,9,10
 814 -41 814 -41 753 17.5 c 128,-1,11
 692 76 692 76 664 190 c 0,12,13
 652 242 652 242 641 328 c 1,14,-1
 287 328 l 1,15,16
 215 152 215 152 164 0 c 1,17,-1
 -123 0 l 1,18,-1
 522 1352 l 1,19,-1
 981 1352 l 1,20,-1
 1047 354 l 2,4,5
1133 1735 m 1,21,22
 1171 1689 1171 1689 1171 1630 c 0,23,24
 1171 1557 1171 1557 1119 1518 c 128,-1,25
 1067 1479 1067 1479 975 1479 c 0,26,27
 924 1479 924 1479 760 1497.5 c 128,-1,28
 596 1516 596 1516 557 1516 c 0,29,30
 475 1516 475 1516 420 1481 c 1,31,32
 379 1539 379 1539 379 1597 c 0,33,34
 379 1663 379 1663 431.5 1699 c 128,-1,35
 484 1735 484 1735 582 1735 c 0,36,37
 641 1735 641 1735 803 1717.5 c 128,-1,38
 965 1700 965 1700 1010 1700 c 0,39,40
 1098 1700 1098 1700 1133 1735 c 1,21,22
EndSplineSet
Validated: 8388609
Position2: "'cpsp' Capital Spacing lookup 3 subtable" dx=10 dy=0 dh=20 dv=0
EndChar

StartChar: AE
Encoding: 198 198 12
Width: 1552
Flags: MW
HStem: -41 291<1172 1194> 362 158<358 700 436 678> 563 229<1246 1342> 1096 256<1356 1463> 1151 201<788 788 1149 1149>
VStem: 676 375<179 440>
LayerCount: 2
Fore
SplineSet
700 520 m 1,0,-1
 788 1151 l 1,1,2
 592 830 592 830 436 520 c 1,3,-1
 700 520 l 1,0,-1
358 362 m 1,4,5
 252 148 252 148 186 0 c 1,6,-1
 -131 0 l 1,7,-1
 662 1352 l 1,8,-1
 1638 1352 l 1,9,10
 1638 1226 1638 1226 1571 1161 c 128,-1,11
 1504 1096 1504 1096 1391 1096 c 0,12,13
 1265 1096 1265 1096 1149 1151 c 1,14,-1
 1100 793 l 1,15,-1
 1487 793 l 1,16,17
 1487 681 1487 681 1432 622 c 128,-1,18
 1377 563 1377 563 1276 563 c 0,19,20
 1164 563 1164 563 1075 610 c 1,21,22
 1051 483 1051 483 1051 414 c 0,23,24
 1051 319 1051 319 1093.5 284.5 c 128,-1,25
 1136 250 1136 250 1237 250 c 0,26,27
 1361 250 1361 250 1448 283 c 1,28,29
 1466 238 1466 238 1466 184 c 0,30,31
 1466 131 1466 131 1444.5 90 c 128,-1,32
 1423 49 1423 49 1389 25 c 128,-1,33
 1355 1 1355 1 1307 -14.5 c 128,-1,34
 1259 -30 1259 -30 1212 -35.5 c 128,-1,35
 1165 -41 1165 -41 1112 -41 c 0,36,37
 912 -41 912 -41 794 42.5 c 128,-1,38
 676 126 676 126 676 301 c 0,39,40
 676 317 676 317 677 338 c 128,-1,41
 678 359 678 359 678 362 c 1,42,-1
 358 362 l 1,4,5
EndSplineSet
Validated: 8388609
Position2: "'cpsp' Capital Spacing lookup 3 subtable" dx=10 dy=0 dh=20 dv=0
EndChar

StartChar: AEacute
Encoding: 508 508 13
Width: 1552
Flags: MW
HStem: -41 291<1172 1194> 362 158<358 700 436 678> 563 229<1246 1342> 1096 256<1356 1463> 1151 201<788 788 1149 1149>
VStem: 676 375<179 440>
LayerCount: 2
Fore
SplineSet
788 1151 m 1,0,1
 592 830 592 830 436 520 c 1,2,-1
 700 520 l 1,3,-1
 788 1151 l 1,0,1
358 362 m 1,4,5
 252 148 252 148 186 0 c 1,6,-1
 -131 0 l 1,7,-1
 662 1352 l 1,8,-1
 1638 1352 l 1,9,10
 1638 1226 1638 1226 1571 1161 c 128,-1,11
 1504 1096 1504 1096 1391 1096 c 0,12,13
 1265 1096 1265 1096 1149 1151 c 1,14,-1
 1100 793 l 1,15,-1
 1487 793 l 1,16,17
 1487 681 1487 681 1432 622 c 128,-1,18
 1377 563 1377 563 1276 563 c 0,19,20
 1164 563 1164 563 1075 610 c 1,21,22
 1051 483 1051 483 1051 414 c 0,23,24
 1051 319 1051 319 1093.5 284.5 c 128,-1,25
 1136 250 1136 250 1237 250 c 0,26,27
 1361 250 1361 250 1448 283 c 1,28,29
 1466 238 1466 238 1466 184 c 0,30,31
 1466 131 1466 131 1444.5 90 c 128,-1,32
 1423 49 1423 49 1389 25 c 128,-1,33
 1355 1 1355 1 1307 -14.5 c 128,-1,34
 1259 -30 1259 -30 1212 -35.5 c 128,-1,35
 1165 -41 1165 -41 1112 -41 c 0,36,37
 912 -41 912 -41 794 42.5 c 128,-1,38
 676 126 676 126 676 301 c 0,39,40
 676 317 676 317 677 338 c 128,-1,41
 678 359 678 359 678 362 c 1,42,-1
 358 362 l 1,4,5
797 1554 m 1,43,-1
 1298 1763 l 1,44,45
 1356 1721 1356 1721 1356 1653 c 0,46,47
 1356 1602 1356 1602 1332 1564.5 c 128,-1,48
 1308 1527 1308 1527 1266 1506 c 128,-1,49
 1224 1485 1224 1485 1174.5 1474.5 c 128,-1,50
 1125 1464 1125 1464 1065 1462 c 2,51,-1
 821 1454 l 1,52,-1
 797 1554 l 1,43,-1
EndSplineSet
Validated: 8388609
Position2: "'cpsp' Capital Spacing lookup 3 subtable" dx=10 dy=0 dh=20 dv=0
EndChar

StartChar: B
Encoding: 66 66 14
Width: 1228
Flags: MW
HStem: -41 41G<-12 -12> -10 147<479 593 479 625> 649 139<539 588> 1229 133<686 750>
VStem: 776 399<362 514> 856 344<1010 1118>
LayerCount: 2
Fore
SplineSet
440 139 m 1,0,1
 458 137 458 137 483 137 c 0,2,3
 562 137 562 137 620.5 162.5 c 128,-1,4
 679 188 679 188 712 232 c 128,-1,5
 745 276 745 276 760.5 327 c 128,-1,6
 776 378 776 378 776 436 c 0,7,8
 776 548 776 548 718.5 595.5 c 128,-1,9
 661 643 661 643 539 649 c 1,10,-1
 440 139 l 1,0,1
565 788 m 1,11,-1
 588 788 l 2,12,13
 661 788 661 788 714.5 810.5 c 128,-1,14
 768 833 768 833 798 872 c 128,-1,15
 828 911 828 911 842 957.5 c 128,-1,16
 856 1004 856 1004 856 1059 c 0,17,18
 856 1148 856 1148 817 1188.5 c 128,-1,19
 778 1229 778 1229 692 1229 c 0,20,21
 665 1229 665 1229 651 1227 c 1,22,-1
 565 788 l 1,11,-1
246 1352 m 1,23,24
 503 1362 503 1362 647 1362 c 0,25,26
 715 1362 715 1362 764 1360.5 c 128,-1,27
 813 1359 813 1359 874.5 1352.5 c 128,-1,28
 936 1346 936 1346 979.5 1335 c 128,-1,29
 1023 1324 1023 1324 1067.5 1304 c 128,-1,30
 1112 1284 1112 1284 1139 1256 c 128,-1,31
 1166 1228 1166 1228 1183 1186.5 c 128,-1,32
 1200 1145 1200 1145 1200 1092 c 0,33,34
 1200 975 1200 975 1125 890 c 128,-1,35
 1050 805 1050 805 930 764 c 1,36,37
 979 753 979 753 1018.5 734.5 c 128,-1,38
 1058 716 1058 716 1096 682 c 128,-1,39
 1134 648 1134 648 1155 590.5 c 128,-1,40
 1176 533 1176 533 1176 455 c 0,41,42
 1176 -10 1176 -10 391 -10 c 0,43,44
 220 -10 220 -10 -12 0 c 1,45,-1
 246 1352 l 1,23,24
EndSplineSet
Validated: 8388609
Position2: "'cpsp' Capital Spacing lookup 3 subtable" dx=10 dy=0 dh=20 dv=0
EndChar

StartChar: C
Encoding: 67 67 15
Width: 1236
Flags: MW
HStem: -41 311<655 754> 1247 145<705 861>
VStem: 43 440<463 671 463 762> 924 356<1068 1098>
LayerCount: 2
Fore
SplineSet
868 1393 m 0,0,1
 948 1393 948 1393 1016.5 1381 c 128,-1,2
 1085 1369 1085 1369 1147 1342.5 c 128,-1,3
 1209 1316 1209 1316 1244.5 1265.5 c 128,-1,4
 1280 1215 1280 1215 1280 1145 c 0,5,6
 1280 1033 1280 1033 1197.5 961 c 128,-1,7
 1115 889 1115 889 1001 889 c 0,8,9
 948 889 948 889 907 903 c 1,10,11
 924 976 924 976 924 1061 c 0,12,13
 924 1247 924 1247 809 1247 c 0,14,15
 749 1247 749 1247 695 1197 c 128,-1,16
 641 1147 641 1147 603.5 1069.5 c 128,-1,17
 566 992 566 992 538 898 c 128,-1,18
 510 804 510 804 496.5 715.5 c 128,-1,19
 483 627 483 627 483 557 c 0,20,21
 483 414 483 414 547.5 342 c 128,-1,22
 612 270 612 270 748 270 c 0,23,24
 852 270 852 270 939.5 310.5 c 128,-1,25
 1027 351 1027 351 1085 424 c 1,26,27
 1139 384 1139 384 1139 291 c 0,28,29
 1139 154 1139 154 985 56.5 c 128,-1,30
 831 -41 831 -41 586 -41 c 0,31,32
 314 -41 314 -41 178.5 97.5 c 128,-1,33
 43 236 43 236 43 520 c 0,34,35
 43 702 43 702 98.5 860.5 c 128,-1,36
 154 1019 154 1019 256.5 1137.5 c 128,-1,37
 359 1256 359 1256 517 1324.5 c 128,-1,38
 675 1393 675 1393 868 1393 c 0,0,1
EndSplineSet
Validated: 1
Position2: "'cpsp' Capital Spacing lookup 3 subtable" dx=10 dy=0 dh=20 dv=0
EndChar

StartChar: Cacute
Encoding: 262 262 16
Width: 1236
Flags: MW
HStem: -41 311<655 754> 1247 145<705 861>
VStem: 43 440<463 671 463 762> 924 356<1068 1098>
LayerCount: 2
Fore
SplineSet
868 1393 m 0,0,1
 948 1393 948 1393 1016.5 1381 c 128,-1,2
 1085 1369 1085 1369 1147 1342.5 c 128,-1,3
 1209 1316 1209 1316 1244.5 1265.5 c 128,-1,4
 1280 1215 1280 1215 1280 1145 c 0,5,6
 1280 1033 1280 1033 1197.5 961 c 128,-1,7
 1115 889 1115 889 1001 889 c 0,8,9
 948 889 948 889 907 903 c 1,10,11
 924 976 924 976 924 1061 c 0,12,13
 924 1247 924 1247 809 1247 c 0,14,15
 749 1247 749 1247 695 1197 c 128,-1,16
 641 1147 641 1147 603.5 1069.5 c 128,-1,17
 566 992 566 992 538 898 c 128,-1,18
 510 804 510 804 496.5 715.5 c 128,-1,19
 483 627 483 627 483 557 c 0,20,21
 483 414 483 414 547.5 342 c 128,-1,22
 612 270 612 270 748 270 c 0,23,24
 852 270 852 270 939.5 310.5 c 128,-1,25
 1027 351 1027 351 1085 424 c 1,26,27
 1139 384 1139 384 1139 291 c 0,28,29
 1139 154 1139 154 985 56.5 c 128,-1,30
 831 -41 831 -41 586 -41 c 0,31,32
 314 -41 314 -41 178.5 97.5 c 128,-1,33
 43 236 43 236 43 520 c 0,34,35
 43 702 43 702 98.5 860.5 c 128,-1,36
 154 1019 154 1019 256.5 1137.5 c 128,-1,37
 359 1256 359 1256 517 1324.5 c 128,-1,38
 675 1393 675 1393 868 1393 c 0,0,1
684 1554 m 1,39,-1
 1186 1763 l 1,40,41
 1243 1721 1243 1721 1243 1653 c 0,42,43
 1243 1602 1243 1602 1219 1564.5 c 128,-1,44
 1195 1527 1195 1527 1153 1506 c 128,-1,45
 1111 1485 1111 1485 1061.5 1474.5 c 128,-1,46
 1012 1464 1012 1464 952 1462 c 2,47,-1
 709 1454 l 1,48,-1
 684 1554 l 1,39,-1
EndSplineSet
Validated: 1
Substitution2: "'locl' Localized Forms in Latin lookup 13 subtable" Cacute.loclPLK
Substitution2: "'aalt' Access All Alternates lookup 0 subtable" Cacute.loclPLK
Position2: "'cpsp' Capital Spacing lookup 3 subtable" dx=10 dy=0 dh=20 dv=0
EndChar

StartChar: Ccaron
Encoding: 268 268 17
Width: 1236
Flags: MW
HStem: -41 311<655 754> 1247 145<705 861>
VStem: 43 440<463 671 463 762> 924 356<1068 1098>
LayerCount: 2
Fore
SplineSet
868 1393 m 0,0,1
 948 1393 948 1393 1016.5 1381 c 128,-1,2
 1085 1369 1085 1369 1147 1342.5 c 128,-1,3
 1209 1316 1209 1316 1244.5 1265.5 c 128,-1,4
 1280 1215 1280 1215 1280 1145 c 0,5,6
 1280 1033 1280 1033 1197.5 961 c 128,-1,7
 1115 889 1115 889 1001 889 c 0,8,9
 948 889 948 889 907 903 c 1,10,11
 924 976 924 976 924 1061 c 0,12,13
 924 1247 924 1247 809 1247 c 0,14,15
 749 1247 749 1247 695 1197 c 128,-1,16
 641 1147 641 1147 603.5 1069.5 c 128,-1,17
 566 992 566 992 538 898 c 128,-1,18
 510 804 510 804 496.5 715.5 c 128,-1,19
 483 627 483 627 483 557 c 0,20,21
 483 414 483 414 547.5 342 c 128,-1,22
 612 270 612 270 748 270 c 0,23,24
 852 270 852 270 939.5 310.5 c 128,-1,25
 1027 351 1027 351 1085 424 c 1,26,27
 1139 384 1139 384 1139 291 c 0,28,29
 1139 154 1139 154 985 56.5 c 128,-1,30
 831 -41 831 -41 586 -41 c 0,31,32
 314 -41 314 -41 178.5 97.5 c 128,-1,33
 43 236 43 236 43 520 c 0,34,35
 43 702 43 702 98.5 860.5 c 128,-1,36
 154 1019 154 1019 256.5 1137.5 c 128,-1,37
 359 1256 359 1256 517 1324.5 c 128,-1,38
 675 1393 675 1393 868 1393 c 0,0,1
655 1749 m 1,39,-1
 895 1642 l 1,40,-1
 1198 1749 l 1,41,-1
 1262 1655 l 1,42,-1
 940 1417 l 1,43,-1
 805 1417 l 1,44,-1
 553 1655 l 1,45,-1
 655 1749 l 1,39,-1
EndSplineSet
Validated: 1
Position2: "'cpsp' Capital Spacing lookup 3 subtable" dx=10 dy=0 dh=20 dv=0
EndChar

StartChar: Ccedilla
Encoding: 199 199 18
Width: 1236
Flags: MW
HStem: -528 139<534 605 534 678> -225 109<543 762> -39 309<530 818 657 657> 1247 145<705 861>
VStem: 43 440<463 671 463 762> 678 248<-333 -269> 924 356<1068 1098>
LayerCount: 2
Fore
SplineSet
530 -39 m 1,0,1
 286 -25 286 -25 164.5 113 c 128,-1,2
 43 251 43 251 43 520 c 0,3,4
 43 702 43 702 98.5 860.5 c 128,-1,5
 154 1019 154 1019 256.5 1137.5 c 128,-1,6
 359 1256 359 1256 517 1324.5 c 128,-1,7
 675 1393 675 1393 868 1393 c 0,8,9
 948 1393 948 1393 1016.5 1381 c 128,-1,10
 1085 1369 1085 1369 1147 1342.5 c 128,-1,11
 1209 1316 1209 1316 1244.5 1265.5 c 128,-1,12
 1280 1215 1280 1215 1280 1145 c 0,13,14
 1280 1033 1280 1033 1197.5 961 c 128,-1,15
 1115 889 1115 889 1001 889 c 0,16,17
 948 889 948 889 907 903 c 1,18,19
 924 976 924 976 924 1061 c 0,20,21
 924 1247 924 1247 809 1247 c 0,22,23
 749 1247 749 1247 695 1197 c 128,-1,24
 641 1147 641 1147 603.5 1069.5 c 128,-1,25
 566 992 566 992 538 898 c 128,-1,26
 510 804 510 804 496.5 715.5 c 128,-1,27
 483 627 483 627 483 557 c 0,28,29
 483 414 483 414 547.5 342 c 128,-1,30
 612 270 612 270 748 270 c 0,31,32
 852 270 852 270 939.5 310.5 c 128,-1,33
 1027 351 1027 351 1085 424 c 1,34,35
 1139 384 1139 384 1139 291 c 0,36,37
 1139 165 1139 165 1006 70.5 c 128,-1,38
 873 -24 873 -24 657 -39 c 1,39,-1
 633 -119 l 1,40,41
 656 -117 656 -117 700 -117 c 0,42,43
 800 -117 800 -117 863 -158 c 128,-1,44
 926 -199 926 -199 926 -283 c 0,45,46
 926 -390 926 -390 827 -459 c 128,-1,47
 728 -528 728 -528 584 -528 c 0,48,49
 494 -528 494 -528 441.5 -499.5 c 128,-1,50
 389 -471 389 -471 389 -420 c 0,51,52
 389 -358 389 -358 426 -324 c 1,53,54
 469 -389 469 -389 573 -389 c 0,55,56
 678 -389 678 -389 678 -301 c 0,57,58
 678 -225 678 -225 559 -225 c 0,59,60
 531 -225 531 -225 473 -229 c 1,61,-1
 530 -39 l 1,0,1
EndSplineSet
Validated: 8388609
Position2: "'cpsp' Capital Spacing lookup 3 subtable" dx=10 dy=0 dh=20 dv=0
EndChar

StartChar: Ccircumflex
Encoding: 264 264 19
Width: 1236
Flags: MW
HStem: -41 311<655 754> 1247 145<705 861>
VStem: 43 440<463 671 463 762> 924 356<1068 1098>
LayerCount: 2
Fore
SplineSet
868 1393 m 0,0,1
 948 1393 948 1393 1016.5 1381 c 128,-1,2
 1085 1369 1085 1369 1147 1342.5 c 128,-1,3
 1209 1316 1209 1316 1244.5 1265.5 c 128,-1,4
 1280 1215 1280 1215 1280 1145 c 0,5,6
 1280 1033 1280 1033 1197.5 961 c 128,-1,7
 1115 889 1115 889 1001 889 c 0,8,9
 948 889 948 889 907 903 c 1,10,11
 924 976 924 976 924 1061 c 0,12,13
 924 1247 924 1247 809 1247 c 0,14,15
 749 1247 749 1247 695 1197 c 128,-1,16
 641 1147 641 1147 603.5 1069.5 c 128,-1,17
 566 992 566 992 538 898 c 128,-1,18
 510 804 510 804 496.5 715.5 c 128,-1,19
 483 627 483 627 483 557 c 0,20,21
 483 414 483 414 547.5 342 c 128,-1,22
 612 270 612 270 748 270 c 0,23,24
 852 270 852 270 939.5 310.5 c 128,-1,25
 1027 351 1027 351 1085 424 c 1,26,27
 1139 384 1139 384 1139 291 c 0,28,29
 1139 154 1139 154 985 56.5 c 128,-1,30
 831 -41 831 -41 586 -41 c 0,31,32
 314 -41 314 -41 178.5 97.5 c 128,-1,33
 43 236 43 236 43 520 c 0,34,35
 43 702 43 702 98.5 860.5 c 128,-1,36
 154 1019 154 1019 256.5 1137.5 c 128,-1,37
 359 1256 359 1256 517 1324.5 c 128,-1,38
 675 1393 675 1393 868 1393 c 0,0,1
1102 1407 m 1,39,-1
 864 1513 l 1,40,-1
 561 1407 l 1,41,-1
 498 1501 l 1,42,-1
 840 1739 l 1,43,-1
 932 1739 l 1,44,-1
 1204 1501 l 1,45,-1
 1102 1407 l 1,39,-1
EndSplineSet
Validated: 1
Position2: "'cpsp' Capital Spacing lookup 3 subtable" dx=10 dy=0 dh=20 dv=0
EndChar

StartChar: Cdotaccent
Encoding: 266 266 20
Width: 1236
Flags: MW
HStem: -41 311<655 754> 1247 145<705 861> 1413 311<814 927>
VStem: 43 440<463 671 463 762> 657 420<1518 1617> 924 356<1068 1098>
LayerCount: 2
Fore
SplineSet
868 1393 m 0,0,1
 948 1393 948 1393 1016.5 1381 c 128,-1,2
 1085 1369 1085 1369 1147 1342.5 c 128,-1,3
 1209 1316 1209 1316 1244.5 1265.5 c 128,-1,4
 1280 1215 1280 1215 1280 1145 c 0,5,6
 1280 1033 1280 1033 1197.5 961 c 128,-1,7
 1115 889 1115 889 1001 889 c 0,8,9
 948 889 948 889 907 903 c 1,10,11
 924 976 924 976 924 1061 c 0,12,13
 924 1247 924 1247 809 1247 c 0,14,15
 749 1247 749 1247 695 1197 c 128,-1,16
 641 1147 641 1147 603.5 1069.5 c 128,-1,17
 566 992 566 992 538 898 c 128,-1,18
 510 804 510 804 496.5 715.5 c 128,-1,19
 483 627 483 627 483 557 c 0,20,21
 483 414 483 414 547.5 342 c 128,-1,22
 612 270 612 270 748 270 c 0,23,24
 852 270 852 270 939.5 310.5 c 128,-1,25
 1027 351 1027 351 1085 424 c 1,26,27
 1139 384 1139 384 1139 291 c 0,28,29
 1139 154 1139 154 985 56.5 c 128,-1,30
 831 -41 831 -41 586 -41 c 0,31,32
 314 -41 314 -41 178.5 97.5 c 128,-1,33
 43 236 43 236 43 520 c 0,34,35
 43 702 43 702 98.5 860.5 c 128,-1,36
 154 1019 154 1019 256.5 1137.5 c 128,-1,37
 359 1256 359 1256 517 1324.5 c 128,-1,38
 675 1393 675 1393 868 1393 c 0,0,1
874 1724 m 0,39,40
 967 1724 967 1724 1022 1683.5 c 128,-1,41
 1077 1643 1077 1643 1077 1569 c 128,-1,42
 1077 1495 1077 1495 1018.5 1454 c 128,-1,43
 960 1413 960 1413 866 1413 c 0,44,45
 773 1413 773 1413 715 1453 c 128,-1,46
 657 1493 657 1493 657 1565 c 0,47,48
 657 1640 657 1640 718 1682 c 128,-1,49
 779 1724 779 1724 874 1724 c 0,39,40
EndSplineSet
Validated: 8388609
Position2: "'cpsp' Capital Spacing lookup 3 subtable" dx=10 dy=0 dh=20 dv=0
EndChar

StartChar: D
Encoding: 68 68 21
Width: 1382
Flags: MW
HStem: -41 41G<-14 -14> -10 147<505 628 505 683> 1217 145<724 808>
VStem: 936 399<976 1041 541 1086>
LayerCount: 2
Fore
SplineSet
444 143 m 1,0,1
 484 137 484 137 516 137 c 0,2,3
 674 137 674 137 762.5 275 c 128,-1,4
 851 413 851 413 899 680 c 0,5,6
 936 884 936 884 936 1014 c 0,7,8
 936 1123 936 1123 889.5 1170 c 128,-1,9
 843 1217 843 1217 737 1217 c 0,10,11
 698 1217 698 1217 651 1210 c 1,12,-1
 444 143 l 1,0,1
246 1352 m 1,13,14
 415 1362 415 1362 616 1362 c 0,15,16
 747 1362 747 1362 844 1352.5 c 128,-1,17
 941 1343 941 1343 1025 1319.5 c 128,-1,18
 1109 1296 1109 1296 1164.5 1257 c 128,-1,19
 1220 1218 1220 1218 1259.5 1157.5 c 128,-1,20
 1299 1097 1299 1097 1317 1013.5 c 128,-1,21
 1335 930 1335 930 1335 819 c 0,22,23
 1335 405 1335 405 1089.5 197.5 c 128,-1,24
 844 -10 844 -10 373 -10 c 0,25,26
 159 -10 159 -10 -14 0 c 1,27,-1
 246 1352 l 1,13,14
EndSplineSet
Validated: 8388609
Position2: "'cpsp' Capital Spacing lookup 3 subtable" dx=10 dy=0 dh=20 dv=0
EndChar

StartChar: DZ
Encoding: 497 497 22
Width: 2484
Flags: MW
HStem: -41 41G<-14 -14> -25 352<2047 2146 2047 2180> -10 147<505 628 505 683> 1026 356<1742 1800> 1217 145<724 808> 1311 41G<246 246>
VStem: 936 399<976 1041 541 1086>
LayerCount: 2
Fore
SplineSet
444 143 m 1,0,1
 484 137 484 137 516 137 c 0,2,3
 674 137 674 137 762.5 275 c 128,-1,4
 851 413 851 413 899 680 c 0,5,6
 936 884 936 884 936 1014 c 0,7,8
 936 1123 936 1123 889.5 1170 c 128,-1,9
 843 1217 843 1217 737 1217 c 0,10,11
 698 1217 698 1217 651 1210 c 1,12,-1
 444 143 l 1,0,1
246 1352 m 1,13,14
 415 1362 415 1362 616 1362 c 0,15,16
 747 1362 747 1362 844 1352.5 c 128,-1,17
 941 1343 941 1343 1025 1319.5 c 128,-1,18
 1109 1296 1109 1296 1164.5 1257 c 128,-1,19
 1220 1218 1220 1218 1259.5 1157.5 c 128,-1,20
 1299 1097 1299 1097 1317 1013.5 c 128,-1,21
 1335 930 1335 930 1335 819 c 0,22,23
 1335 405 1335 405 1089.5 197.5 c 128,-1,24
 844 -10 844 -10 373 -10 c 0,25,26
 159 -10 159 -10 -14 0 c 1,27,-1
 246 1352 l 1,13,14
2138 983 m 1,28,29
 1854 1026 1854 1026 1778 1026 c 0,30,31
 1662 1026 1662 1026 1563 979 c 1,32,33
 1507 1066 1507 1066 1507 1161 c 0,34,35
 1507 1274 1507 1274 1582 1328 c 128,-1,36
 1657 1382 1657 1382 1792 1382 c 0,37,38
 1868 1382 1868 1382 2031 1356.5 c 128,-1,39
 2194 1331 2194 1331 2273 1331 c 0,40,41
 2364 1331 2364 1331 2449 1352 c 1,42,43
 2531 1283 2531 1283 2531 1159 c 0,44,45
 2531 1082 2531 1082 2498 1024.5 c 128,-1,46
 2465 967 2465 967 2394 909 c 2,47,-1
 1733 371 l 1,48,49
 1895 328 1895 328 2101 328 c 0,50,51
 2180 328 2180 328 2236 340.5 c 128,-1,52
 2292 353 2292 353 2331 391 c 1,53,54
 2384 323 2384 323 2384 227 c 0,55,56
 2384 104 2384 104 2309 39.5 c 128,-1,57
 2234 -25 2234 -25 2052 -25 c 0,58,59
 1947 -25 1947 -25 1777 3 c 128,-1,60
 1607 31 1607 31 1554 31 c 0,61,62
 1482 31 1482 31 1448 0 c 1,63,64
 1415 28 1415 28 1391.5 88.5 c 128,-1,65
 1368 149 1368 149 1368 211 c 0,66,67
 1368 338 1368 338 1493 444 c 1,68,-1
 2138 983 l 1,28,29
EndSplineSet
Validated: 8388609
Position2: "'cpsp' Capital Spacing lookup 3 subtable" dx=10 dy=0 dh=20 dv=0
EndChar

StartChar: DZcaron
Encoding: 452 452 23
Width: 2484
Flags: MW
HStem: -41 41G<-14 -14> -25 352<2047 2146 2047 2180> -10 147<505 628 505 683> 1026 356<1742 1800> 1217 145<724 808> 1311 41G<246 246>
VStem: 936 399<976 1041 541 1086>
LayerCount: 2
Fore
SplineSet
444 143 m 1,0,1
 484 137 484 137 516 137 c 0,2,3
 674 137 674 137 762.5 275 c 128,-1,4
 851 413 851 413 899 680 c 0,5,6
 936 884 936 884 936 1014 c 0,7,8
 936 1123 936 1123 889.5 1170 c 128,-1,9
 843 1217 843 1217 737 1217 c 0,10,11
 698 1217 698 1217 651 1210 c 1,12,-1
 444 143 l 1,0,1
246 1352 m 1,13,14
 415 1362 415 1362 616 1362 c 0,15,16
 747 1362 747 1362 844 1352.5 c 128,-1,17
 941 1343 941 1343 1025 1319.5 c 128,-1,18
 1109 1296 1109 1296 1164.5 1257 c 128,-1,19
 1220 1218 1220 1218 1259.5 1157.5 c 128,-1,20
 1299 1097 1299 1097 1317 1013.5 c 128,-1,21
 1335 930 1335 930 1335 819 c 0,22,23
 1335 405 1335 405 1089.5 197.5 c 128,-1,24
 844 -10 844 -10 373 -10 c 0,25,26
 159 -10 159 -10 -14 0 c 1,27,-1
 246 1352 l 1,13,14
2138 983 m 1,28,29
 1854 1026 1854 1026 1778 1026 c 0,30,31
 1662 1026 1662 1026 1563 979 c 1,32,33
 1507 1066 1507 1066 1507 1161 c 0,34,35
 1507 1274 1507 1274 1582 1328 c 128,-1,36
 1657 1382 1657 1382 1792 1382 c 0,37,38
 1868 1382 1868 1382 2031 1356.5 c 128,-1,39
 2194 1331 2194 1331 2273 1331 c 0,40,41
 2364 1331 2364 1331 2449 1352 c 1,42,43
 2531 1283 2531 1283 2531 1159 c 0,44,45
 2531 1082 2531 1082 2498 1024.5 c 128,-1,46
 2465 967 2465 967 2394 909 c 2,47,-1
 1733 371 l 1,48,49
 1895 328 1895 328 2101 328 c 0,50,51
 2180 328 2180 328 2236 340.5 c 128,-1,52
 2292 353 2292 353 2331 391 c 1,53,54
 2384 323 2384 323 2384 227 c 0,55,56
 2384 104 2384 104 2309 39.5 c 128,-1,57
 2234 -25 2234 -25 2052 -25 c 0,58,59
 1947 -25 1947 -25 1777 3 c 128,-1,60
 1607 31 1607 31 1554 31 c 0,61,62
 1482 31 1482 31 1448 0 c 1,63,64
 1415 28 1415 28 1391.5 88.5 c 128,-1,65
 1368 149 1368 149 1368 211 c 0,66,67
 1368 338 1368 338 1493 444 c 1,68,-1
 2138 983 l 1,28,29
1835 1749 m 1,69,-1
 2075 1642 l 1,70,-1
 2378 1749 l 1,71,-1
 2441 1655 l 1,72,-1
 2120 1417 l 1,73,-1
 1985 1417 l 1,74,-1
 1733 1655 l 1,75,-1
 1835 1749 l 1,69,-1
EndSplineSet
Validated: 8388609
Position2: "'cpsp' Capital Spacing lookup 3 subtable" dx=10 dy=0 dh=20 dv=0
EndChar

StartChar: Eth
Encoding: 208 208 24
Width: 1382
Flags: MW
HStem: -41 41G<-14 -14> -10 147<505 628 505 683> 596 188<92 100 -41 137 569 602> 1217 145<724 808>
VStem: 936 399<976 1041 541 1086>
LayerCount: 2
Fore
SplineSet
444 143 m 1,0,1
 484 137 484 137 516 137 c 0,2,3
 674 137 674 137 762.5 275 c 128,-1,4
 851 413 851 413 899 680 c 0,5,6
 936 884 936 884 936 1014 c 0,7,8
 936 1123 936 1123 889.5 1170 c 128,-1,9
 843 1217 843 1217 737 1217 c 0,10,11
 698 1217 698 1217 651 1210 c 1,12,-1
 569 784 l 1,13,-1
 750 784 l 1,14,15
 758 752 758 752 758 727 c 0,16,17
 758 669 758 669 717.5 632.5 c 128,-1,18
 677 596 677 596 602 596 c 2,19,-1
 532 596 l 1,20,-1
 444 143 l 1,0,1
246 1352 m 1,21,22
 415 1362 415 1362 616 1362 c 0,23,24
 747 1362 747 1362 844 1352.5 c 128,-1,25
 941 1343 941 1343 1025 1319.5 c 128,-1,26
 1109 1296 1109 1296 1164.5 1257 c 128,-1,27
 1220 1218 1220 1218 1259.5 1157.5 c 128,-1,28
 1299 1097 1299 1097 1317 1013.5 c 128,-1,29
 1335 930 1335 930 1335 819 c 0,30,31
 1335 405 1335 405 1089.5 197.5 c 128,-1,32
 844 -10 844 -10 373 -10 c 0,33,34
 159 -10 159 -10 -14 0 c 1,35,-1
 100 596 l 1,36,-1
 -41 596 l 1,37,38
 -47 614 -47 614 -47 651 c 0,39,40
 -46 711 -46 711 -7 747.5 c 128,-1,41
 32 784 32 784 92 784 c 2,42,-1
 137 784 l 1,43,-1
 246 1352 l 1,21,22
EndSplineSet
Validated: 8388609
Position2: "'cpsp' Capital Spacing lookup 3 subtable" dx=10 dy=0 dh=20 dv=0
EndChar

StartChar: Dcaron
Encoding: 270 270 25
Width: 1382
Flags: MW
HStem: -41 41G<-14 -14> -10 147<505 628 505 683> 1217 145<724 808>
VStem: 936 399<976 1041 541 1086>
LayerCount: 2
Fore
SplineSet
444 143 m 1,0,1
 484 137 484 137 516 137 c 0,2,3
 674 137 674 137 762.5 275 c 128,-1,4
 851 413 851 413 899 680 c 0,5,6
 936 884 936 884 936 1014 c 0,7,8
 936 1123 936 1123 889.5 1170 c 128,-1,9
 843 1217 843 1217 737 1217 c 0,10,11
 698 1217 698 1217 651 1210 c 1,12,-1
 444 143 l 1,0,1
246 1352 m 1,13,14
 415 1362 415 1362 616 1362 c 0,15,16
 747 1362 747 1362 844 1352.5 c 128,-1,17
 941 1343 941 1343 1025 1319.5 c 128,-1,18
 1109 1296 1109 1296 1164.5 1257 c 128,-1,19
 1220 1218 1220 1218 1259.5 1157.5 c 128,-1,20
 1299 1097 1299 1097 1317 1013.5 c 128,-1,21
 1335 930 1335 930 1335 819 c 0,22,23
 1335 405 1335 405 1089.5 197.5 c 128,-1,24
 844 -10 844 -10 373 -10 c 0,25,26
 159 -10 159 -10 -14 0 c 1,27,-1
 246 1352 l 1,13,14
575 1749 m 1,28,-1
 815 1642 l 1,29,-1
 1118 1749 l 1,30,-1
 1182 1655 l 1,31,-1
 860 1417 l 1,32,-1
 725 1417 l 1,33,-1
 473 1655 l 1,34,-1
 575 1749 l 1,28,-1
EndSplineSet
Validated: 8388609
Position2: "'cpsp' Capital Spacing lookup 3 subtable" dx=10 dy=0 dh=20 dv=0
EndChar

StartChar: Dcroat
Encoding: 272 272 26
Width: 1382
Flags: MW
HStem: -41 41G<-14 -14> -10 147<505 628 505 683> 596 188<92 100 -41 137 569 602> 1217 145<724 808>
VStem: 936 399<976 1041 541 1086>
LayerCount: 2
Fore
SplineSet
444 143 m 1,0,1
 484 137 484 137 516 137 c 0,2,3
 674 137 674 137 762.5 275 c 128,-1,4
 851 413 851 413 899 680 c 0,5,6
 936 884 936 884 936 1014 c 0,7,8
 936 1123 936 1123 889.5 1170 c 128,-1,9
 843 1217 843 1217 737 1217 c 0,10,11
 698 1217 698 1217 651 1210 c 1,12,-1
 569 784 l 1,13,-1
 750 784 l 1,14,15
 758 752 758 752 758 727 c 0,16,17
 758 669 758 669 717.5 632.5 c 128,-1,18
 677 596 677 596 602 596 c 2,19,-1
 532 596 l 1,20,-1
 444 143 l 1,0,1
246 1352 m 1,21,22
 415 1362 415 1362 616 1362 c 0,23,24
 747 1362 747 1362 844 1352.5 c 128,-1,25
 941 1343 941 1343 1025 1319.5 c 128,-1,26
 1109 1296 1109 1296 1164.5 1257 c 128,-1,27
 1220 1218 1220 1218 1259.5 1157.5 c 128,-1,28
 1299 1097 1299 1097 1317 1013.5 c 128,-1,29
 1335 930 1335 930 1335 819 c 0,30,31
 1335 405 1335 405 1089.5 197.5 c 128,-1,32
 844 -10 844 -10 373 -10 c 0,33,34
 159 -10 159 -10 -14 0 c 1,35,-1
 100 596 l 1,36,-1
 -41 596 l 1,37,38
 -47 614 -47 614 -47 651 c 0,39,40
 -46 711 -46 711 -7 747.5 c 128,-1,41
 32 784 32 784 92 784 c 2,42,-1
 137 784 l 1,43,-1
 246 1352 l 1,21,22
EndSplineSet
Validated: 8388609
Position2: "'cpsp' Capital Spacing lookup 3 subtable" dx=10 dy=0 dh=20 dv=0
EndChar

StartChar: Ddotbelow
Encoding: 7692 7692 27
Width: 1382
Flags: MW
HStem: -397 311<441 554> -41 41G<-14 -14> -10 147<505 628 505 683> 1217 145<724 808>
VStem: 285 422<-293 -194> 936 399<976 1041 541 1086>
LayerCount: 2
Fore
SplineSet
502 -86 m 0,0,1
 595 -86 595 -86 651 -127 c 128,-1,2
 707 -168 707 -168 707 -242 c 128,-1,3
 707 -316 707 -316 647.5 -356.5 c 128,-1,4
 588 -397 588 -397 494 -397 c 0,5,6
 401 -397 401 -397 343 -357.5 c 128,-1,7
 285 -318 285 -318 285 -246 c 0,8,9
 285 -171 285 -171 346.5 -128.5 c 128,-1,10
 408 -86 408 -86 502 -86 c 0,0,1
444 143 m 1,11,12
 484 137 484 137 516 137 c 0,13,14
 674 137 674 137 762.5 275 c 128,-1,15
 851 413 851 413 899 680 c 0,16,17
 936 884 936 884 936 1014 c 0,18,19
 936 1123 936 1123 889.5 1170 c 128,-1,20
 843 1217 843 1217 737 1217 c 0,21,22
 698 1217 698 1217 651 1210 c 1,23,-1
 444 143 l 1,11,12
246 1352 m 1,24,25
 415 1362 415 1362 616 1362 c 0,26,27
 747 1362 747 1362 844 1352.5 c 128,-1,28
 941 1343 941 1343 1025 1319.5 c 128,-1,29
 1109 1296 1109 1296 1164.5 1257 c 128,-1,30
 1220 1218 1220 1218 1259.5 1157.5 c 128,-1,31
 1299 1097 1299 1097 1317 1013.5 c 128,-1,32
 1335 930 1335 930 1335 819 c 0,33,34
 1335 405 1335 405 1089.5 197.5 c 128,-1,35
 844 -10 844 -10 373 -10 c 0,36,37
 159 -10 159 -10 -14 0 c 1,38,-1
 246 1352 l 1,24,25
EndSplineSet
Validated: 8388609
Position2: "'cpsp' Capital Spacing lookup 3 subtable" dx=10 dy=0 dh=20 dv=0
EndChar

StartChar: Dz
Encoding: 498 498 28
Width: 2308
Flags: MW
HStem: -41 41 -41 338<1951 2024 1951 2064> -10 147<505 628 505 683> 768 317<1673 1758> 1016 41G 1217 145<724 808>
VStem: 936 399<976 1041 541 1086>
LayerCount: 2
Fore
SplineSet
1991 727 m 1,0,1
 1847 768 1847 768 1722 768 c 0,2,3
 1581 768 1581 768 1534 678 c 1,4,5
 1502 716 1502 716 1483 772 c 128,-1,6
 1464 828 1464 828 1464 883 c 0,7,8
 1464 989 1464 989 1533.5 1037 c 128,-1,9
 1603 1085 1603 1085 1720 1085 c 0,10,11
 1791 1085 1791 1085 1956 1059.5 c 128,-1,12
 2121 1034 2121 1034 2183 1034 c 0,13,14
 2256 1034 2256 1034 2298 1057 c 1,15,16
 2351 1006 2351 1006 2351 934 c 0,17,18
 2351 820 2351 820 2222 725 c 1,19,-1
 1716 344 l 1,20,21
 1876 297 1876 297 1987 297 c 0,22,23
 2130 297 2130 297 2204 379 c 1,24,25
 2261 313 2261 313 2261 209 c 0,26,27
 2261 86 2261 86 2185.5 22.5 c 128,-1,28
 2110 -41 2110 -41 1982 -41 c 0,29,30
 1911 -41 1911 -41 1770 -11.5 c 128,-1,31
 1629 18 1629 18 1561 18 c 0,32,33
 1497 18 1497 18 1432 -2 c 1,34,35
 1362 44 1362 44 1362 139 c 0,36,37
 1362 263 1362 263 1485 360 c 1,38,-1
 1991 727 l 1,0,1
444 143 m 1,39,40
 484 137 484 137 516 137 c 0,41,42
 674 137 674 137 762.5 275 c 128,-1,43
 851 413 851 413 899 680 c 0,44,45
 936 884 936 884 936 1014 c 0,46,47
 936 1123 936 1123 889.5 1170 c 128,-1,48
 843 1217 843 1217 737 1217 c 0,49,50
 698 1217 698 1217 651 1210 c 1,51,-1
 444 143 l 1,39,40
246 1352 m 1,52,53
 415 1362 415 1362 616 1362 c 0,54,55
 747 1362 747 1362 844 1352.5 c 128,-1,56
 941 1343 941 1343 1025 1319.5 c 128,-1,57
 1109 1296 1109 1296 1164.5 1257 c 128,-1,58
 1220 1218 1220 1218 1259.5 1157.5 c 128,-1,59
 1299 1097 1299 1097 1317 1013.5 c 128,-1,60
 1335 930 1335 930 1335 819 c 0,61,62
 1335 405 1335 405 1089.5 197.5 c 128,-1,63
 844 -10 844 -10 373 -10 c 0,64,65
 159 -10 159 -10 -14 0 c 1,66,-1
 246 1352 l 1,52,53
EndSplineSet
Validated: 8388609
Position2: "'cpsp' Capital Spacing lookup 3 subtable" dx=10 dy=0 dh=20 dv=0
EndChar

StartChar: Dzcaron
Encoding: 453 453 29
Width: 2308
Flags: MW
HStem: -41 41 -41 338<1951 2024 1951 2064> -10 147<505 628 505 683> 768 317<1673 1758> 1016 41G 1217 145<724 808> 1401 41G<1763 1763 2306 2306>
VStem: 936 399<976 1041 541 1086>
LayerCount: 2
Fore
SplineSet
1991 727 m 1,0,1
 1847 768 1847 768 1722 768 c 0,2,3
 1581 768 1581 768 1534 678 c 1,4,5
 1502 716 1502 716 1483 772 c 128,-1,6
 1464 828 1464 828 1464 883 c 0,7,8
 1464 989 1464 989 1533.5 1037 c 128,-1,9
 1603 1085 1603 1085 1720 1085 c 0,10,11
 1791 1085 1791 1085 1956 1059.5 c 128,-1,12
 2121 1034 2121 1034 2183 1034 c 0,13,14
 2256 1034 2256 1034 2298 1057 c 1,15,16
 2351 1006 2351 1006 2351 934 c 0,17,18
 2351 820 2351 820 2222 725 c 1,19,-1
 1716 344 l 1,20,21
 1876 297 1876 297 1987 297 c 0,22,23
 2130 297 2130 297 2204 379 c 1,24,25
 2261 313 2261 313 2261 209 c 0,26,27
 2261 86 2261 86 2185.5 22.5 c 128,-1,28
 2110 -41 2110 -41 1982 -41 c 0,29,30
 1911 -41 1911 -41 1770 -11.5 c 128,-1,31
 1629 18 1629 18 1561 18 c 0,32,33
 1497 18 1497 18 1432 -2 c 1,34,35
 1362 44 1362 44 1362 139 c 0,36,37
 1362 263 1362 263 1485 360 c 1,38,-1
 1991 727 l 1,0,1
444 143 m 1,39,40
 484 137 484 137 516 137 c 0,41,42
 674 137 674 137 762.5 275 c 128,-1,43
 851 413 851 413 899 680 c 0,44,45
 936 884 936 884 936 1014 c 0,46,47
 936 1123 936 1123 889.5 1170 c 128,-1,48
 843 1217 843 1217 737 1217 c 0,49,50
 698 1217 698 1217 651 1210 c 1,51,-1
 444 143 l 1,39,40
246 1352 m 1,52,53
 415 1362 415 1362 616 1362 c 0,54,55
 747 1362 747 1362 844 1352.5 c 128,-1,56
 941 1343 941 1343 1025 1319.5 c 128,-1,57
 1109 1296 1109 1296 1164.5 1257 c 128,-1,58
 1220 1218 1220 1218 1259.5 1157.5 c 128,-1,59
 1299 1097 1299 1097 1317 1013.5 c 128,-1,60
 1335 930 1335 930 1335 819 c 0,61,62
 1335 405 1335 405 1089.5 197.5 c 128,-1,63
 844 -10 844 -10 373 -10 c 0,64,65
 159 -10 159 -10 -14 0 c 1,66,-1
 246 1352 l 1,52,53
1763 1442 m 1,67,-1
 2003 1335 l 1,68,-1
 2306 1442 l 1,69,-1
 2370 1348 l 1,70,-1
 2048 1110 l 1,71,-1
 1913 1110 l 1,72,-1
 1661 1348 l 1,73,-1
 1763 1442 l 1,67,-1
EndSplineSet
Validated: 8388609
Position2: "'cpsp' Capital Spacing lookup 3 subtable" dx=10 dy=0 dh=20 dv=0
EndChar

StartChar: E
Encoding: 69 69 30
Width: 1015
Flags: MW
HStem: 0 246<479 639> 563 229<689 808> 1096 256<830 967> 1151 201<647 647>
VStem: -6 1133
LayerCount: 2
Fore
SplineSet
1126 1352 m 1,0,1
 1126 1096 1126 1096 885 1096 c 0,2,3
 767 1096 767 1096 647 1151 c 1,4,-1
 584 793 l 1,5,-1
 948 793 l 1,6,7
 948 684 948 684 894.5 623.5 c 128,-1,8
 841 563 841 563 737 563 c 0,9,10
 694 563 694 563 648 573.5 c 128,-1,11
 602 584 602 584 577 594.5 c 128,-1,12
 552 605 552 605 547 610 c 1,13,-1
 479 246 l 1,14,-1
 662 246 l 2,15,16
 799 246 799 246 864 266 c 1,17,18
 893 227 893 227 893 154 c 0,19,20
 893 0 893 0 639 0 c 2,21,-1
 -6 0 l 1,22,-1
 246 1352 l 1,23,-1
 1126 1352 l 1,0,1
EndSplineSet
Validated: 8388609
Position2: "'cpsp' Capital Spacing lookup 3 subtable" dx=10 dy=0 dh=20 dv=0
EndChar

StartChar: Eacute
Encoding: 201 201 31
Width: 1015
Flags: MW
HStem: 0 246<479 639> 563 229<689 808> 1096 256<830 967> 1151 201<647 647>
VStem: -6 1133
LayerCount: 2
Fore
SplineSet
1126 1352 m 1,0,1
 1126 1096 1126 1096 885 1096 c 0,2,3
 767 1096 767 1096 647 1151 c 1,4,-1
 584 793 l 1,5,-1
 948 793 l 1,6,7
 948 684 948 684 894.5 623.5 c 128,-1,8
 841 563 841 563 737 563 c 0,9,10
 694 563 694 563 648 573.5 c 128,-1,11
 602 584 602 584 577 594.5 c 128,-1,12
 552 605 552 605 547 610 c 1,13,-1
 479 246 l 1,14,-1
 662 246 l 2,15,16
 799 246 799 246 864 266 c 1,17,18
 893 227 893 227 893 154 c 0,19,20
 893 0 893 0 639 0 c 2,21,-1
 -6 0 l 1,22,-1
 246 1352 l 1,23,-1
 1126 1352 l 1,0,1
543 1554 m 1,24,-1
 1044 1763 l 1,25,26
 1102 1721 1102 1721 1102 1653 c 0,27,28
 1102 1602 1102 1602 1078 1564.5 c 128,-1,29
 1054 1527 1054 1527 1012 1506 c 128,-1,30
 970 1485 970 1485 920.5 1474.5 c 128,-1,31
 871 1464 871 1464 811 1462 c 2,32,-1
 567 1454 l 1,33,-1
 543 1554 l 1,24,-1
EndSplineSet
Validated: 8388609
Position2: "'cpsp' Capital Spacing lookup 3 subtable" dx=10 dy=0 dh=20 dv=0
EndChar

StartChar: Ebreve
Encoding: 276 276 32
Width: 1015
Flags: MW
HStem: 0 246<479 639> 563 229<689 808> 1096 256<830 967> 1151 201<647 647> 1436 100<701 787 701 858>
VStem: 360 303<1615 1642 1615 1662>
LayerCount: 2
Fore
SplineSet
1126 1352 m 1,0,1
 1126 1096 1126 1096 885 1096 c 0,2,3
 767 1096 767 1096 647 1151 c 1,4,-1
 584 793 l 1,5,-1
 948 793 l 1,6,7
 948 684 948 684 894.5 623.5 c 128,-1,8
 841 563 841 563 737 563 c 0,9,10
 694 563 694 563 648 573.5 c 128,-1,11
 602 584 602 584 577 594.5 c 128,-1,12
 552 605 552 605 547 610 c 1,13,-1
 479 246 l 1,14,-1
 662 246 l 2,15,16
 799 246 799 246 864 266 c 1,17,18
 893 227 893 227 893 154 c 0,19,20
 893 0 893 0 639 0 c 2,21,-1
 -6 0 l 1,22,-1
 246 1352 l 1,23,-1
 1126 1352 l 1,0,1
672 1708 m 1,24,25
 664 1650 664 1650 664 1630 c 0,26,27
 664 1613 664 1613 665.5 1601.5 c 128,-1,28
 667 1590 667 1590 673 1572.5 c 128,-1,29
 679 1555 679 1555 695.5 1545.5 c 128,-1,30
 712 1536 712 1536 737 1536 c 0,31,32
 766 1536 766 1536 788.5 1548 c 128,-1,33
 811 1560 811 1560 823 1573 c 128,-1,34
 835 1586 835 1586 847 1616 c 128,-1,35
 859 1646 859 1646 862.5 1659.5 c 128,-1,36
 866 1673 866 1673 874 1708 c 1,37,-1
 1169 1708 l 1,38,39
 1142 1586 1142 1586 1030 1511 c 128,-1,40
 918 1436 918 1436 717 1436 c 0,41,42
 546 1436 546 1436 453 1498.5 c 128,-1,43
 360 1561 360 1561 360 1653 c 0,44,45
 360 1673 360 1673 367 1708 c 1,46,-1
 672 1708 l 1,24,25
EndSplineSet
Validated: 8388609
Position2: "'cpsp' Capital Spacing lookup 3 subtable" dx=10 dy=0 dh=20 dv=0
EndChar

StartChar: Ecaron
Encoding: 282 282 33
Width: 1015
Flags: MW
HStem: 0 246<479 639> 563 229<689 808> 1096 256<830 967> 1151 201<647 647>
VStem: -6 1133
LayerCount: 2
Fore
SplineSet
1126 1352 m 1,0,1
 1126 1096 1126 1096 885 1096 c 0,2,3
 767 1096 767 1096 647 1151 c 1,4,-1
 584 793 l 1,5,-1
 948 793 l 1,6,7
 948 684 948 684 894.5 623.5 c 128,-1,8
 841 563 841 563 737 563 c 0,9,10
 694 563 694 563 648 573.5 c 128,-1,11
 602 584 602 584 577 594.5 c 128,-1,12
 552 605 552 605 547 610 c 1,13,-1
 479 246 l 1,14,-1
 662 246 l 2,15,16
 799 246 799 246 864 266 c 1,17,18
 893 227 893 227 893 154 c 0,19,20
 893 0 893 0 639 0 c 2,21,-1
 -6 0 l 1,22,-1
 246 1352 l 1,23,-1
 1126 1352 l 1,0,1
514 1749 m 1,24,-1
 754 1642 l 1,25,-1
 1057 1749 l 1,26,-1
 1120 1655 l 1,27,-1
 799 1417 l 1,28,-1
 664 1417 l 1,29,-1
 412 1655 l 1,30,-1
 514 1749 l 1,24,-1
EndSplineSet
Validated: 8388609
Position2: "'cpsp' Capital Spacing lookup 3 subtable" dx=10 dy=0 dh=20 dv=0
EndChar

StartChar: Ecircumflex
Encoding: 202 202 34
Width: 1015
Flags: MW
HStem: 0 246<479 639> 563 229<689 808> 1096 256<830 967> 1151 201<647 647>
VStem: -6 1133
LayerCount: 2
Fore
SplineSet
1126 1352 m 1,0,1
 1126 1096 1126 1096 885 1096 c 0,2,3
 767 1096 767 1096 647 1151 c 1,4,-1
 584 793 l 1,5,-1
 948 793 l 1,6,7
 948 684 948 684 894.5 623.5 c 128,-1,8
 841 563 841 563 737 563 c 0,9,10
 694 563 694 563 648 573.5 c 128,-1,11
 602 584 602 584 577 594.5 c 128,-1,12
 552 605 552 605 547 610 c 1,13,-1
 479 246 l 1,14,-1
 662 246 l 2,15,16
 799 246 799 246 864 266 c 1,17,18
 893 227 893 227 893 154 c 0,19,20
 893 0 893 0 639 0 c 2,21,-1
 -6 0 l 1,22,-1
 246 1352 l 1,23,-1
 1126 1352 l 1,0,1
961 1407 m 1,24,-1
 723 1513 l 1,25,-1
 420 1407 l 1,26,-1
 356 1501 l 1,27,-1
 698 1739 l 1,28,-1
 791 1739 l 1,29,-1
 1063 1501 l 1,30,-1
 961 1407 l 1,24,-1
EndSplineSet
Validated: 8388609
Position2: "'cpsp' Capital Spacing lookup 3 subtable" dx=10 dy=0 dh=20 dv=0
EndChar

StartChar: Edieresis
Encoding: 203 203 35
Width: 1015
Flags: MW
HStem: 0 246<479 639> 563 229<689 808> 1096 256<830 967> 1151 201<647 647> 1413 311<441 554 921 1033>
VStem: -6 1190 285 420<1518 1617> 764 420<1518 1617>
LayerCount: 2
Fore
SplineSet
1126 1352 m 1,0,1
 1126 1096 1126 1096 885 1096 c 0,2,3
 767 1096 767 1096 647 1151 c 1,4,-1
 584 793 l 1,5,-1
 948 793 l 1,6,7
 948 684 948 684 894.5 623.5 c 128,-1,8
 841 563 841 563 737 563 c 0,9,10
 694 563 694 563 648 573.5 c 128,-1,11
 602 584 602 584 577 594.5 c 128,-1,12
 552 605 552 605 547 610 c 1,13,-1
 479 246 l 1,14,-1
 662 246 l 2,15,16
 799 246 799 246 864 266 c 1,17,18
 893 227 893 227 893 154 c 0,19,20
 893 0 893 0 639 0 c 2,21,-1
 -6 0 l 1,22,-1
 246 1352 l 1,23,-1
 1126 1352 l 1,0,1
981 1724 m 0,24,25
 1074 1724 1074 1724 1129 1683.5 c 128,-1,26
 1184 1643 1184 1643 1184 1569 c 128,-1,27
 1184 1495 1184 1495 1125.5 1454 c 128,-1,28
 1067 1413 1067 1413 973 1413 c 0,29,30
 880 1413 880 1413 822 1453 c 128,-1,31
 764 1493 764 1493 764 1565 c 0,32,33
 764 1640 764 1640 825 1682 c 128,-1,34
 886 1724 886 1724 981 1724 c 0,24,25
502 1724 m 0,35,36
 595 1724 595 1724 650 1683.5 c 128,-1,37
 705 1643 705 1643 705 1569 c 128,-1,38
 705 1495 705 1495 646.5 1454 c 128,-1,39
 588 1413 588 1413 494 1413 c 0,40,41
 401 1413 401 1413 343 1453 c 128,-1,42
 285 1493 285 1493 285 1565 c 0,43,44
 285 1640 285 1640 346 1682 c 128,-1,45
 407 1724 407 1724 502 1724 c 0,35,36
EndSplineSet
Validated: 8388609
Position2: "'cpsp' Capital Spacing lookup 3 subtable" dx=10 dy=0 dh=20 dv=0
EndChar

StartChar: Edotaccent
Encoding: 278 278 36
Width: 1015
Flags: MW
HStem: 0 246<479 639> 563 229<689 808> 1096 256<830 967> 1151 201<647 647> 1413 311<671 783>
VStem: -6 1133 514 420<1518 1617>
LayerCount: 2
Fore
SplineSet
1126 1352 m 1,0,1
 1126 1096 1126 1096 885 1096 c 0,2,3
 767 1096 767 1096 647 1151 c 1,4,-1
 584 793 l 1,5,-1
 948 793 l 1,6,7
 948 684 948 684 894.5 623.5 c 128,-1,8
 841 563 841 563 737 563 c 0,9,10
 694 563 694 563 648 573.5 c 128,-1,11
 602 584 602 584 577 594.5 c 128,-1,12
 552 605 552 605 547 610 c 1,13,-1
 479 246 l 1,14,-1
 662 246 l 2,15,16
 799 246 799 246 864 266 c 1,17,18
 893 227 893 227 893 154 c 0,19,20
 893 0 893 0 639 0 c 2,21,-1
 -6 0 l 1,22,-1
 246 1352 l 1,23,-1
 1126 1352 l 1,0,1
731 1724 m 0,24,25
 824 1724 824 1724 879 1683.5 c 128,-1,26
 934 1643 934 1643 934 1569 c 128,-1,27
 934 1495 934 1495 875.5 1454 c 128,-1,28
 817 1413 817 1413 723 1413 c 0,29,30
 630 1413 630 1413 572 1453 c 128,-1,31
 514 1493 514 1493 514 1565 c 0,32,33
 514 1640 514 1640 575 1682 c 128,-1,34
 636 1724 636 1724 731 1724 c 0,24,25
EndSplineSet
Validated: 8388609
Position2: "'cpsp' Capital Spacing lookup 3 subtable" dx=10 dy=0 dh=20 dv=0
EndChar

StartChar: Edotbelow
Encoding: 7864 7864 37
Width: 1015
Flags: MW
HStem: -397 311<355 468> 0 246<479 639> 563 229<689 808> 1096 256<830 967> 1151 201<647 647>
VStem: -6 1133 199 422<-293 -194>
LayerCount: 2
Fore
SplineSet
416 -86 m 0,0,1
 509 -86 509 -86 565 -127 c 128,-1,2
 621 -168 621 -168 621 -242 c 128,-1,3
 621 -316 621 -316 561.5 -356.5 c 128,-1,4
 502 -397 502 -397 408 -397 c 0,5,6
 315 -397 315 -397 257 -357.5 c 128,-1,7
 199 -318 199 -318 199 -246 c 0,8,9
 199 -171 199 -171 260.5 -128.5 c 128,-1,10
 322 -86 322 -86 416 -86 c 0,0,1
1126 1352 m 1,11,12
 1126 1096 1126 1096 885 1096 c 0,13,14
 767 1096 767 1096 647 1151 c 1,15,-1
 584 793 l 1,16,-1
 948 793 l 1,17,18
 948 684 948 684 894.5 623.5 c 128,-1,19
 841 563 841 563 737 563 c 0,20,21
 694 563 694 563 648 573.5 c 128,-1,22
 602 584 602 584 577 594.5 c 128,-1,23
 552 605 552 605 547 610 c 1,24,-1
 479 246 l 1,25,-1
 662 246 l 2,26,27
 799 246 799 246 864 266 c 1,28,29
 893 227 893 227 893 154 c 0,30,31
 893 0 893 0 639 0 c 2,32,-1
 -6 0 l 1,33,-1
 246 1352 l 1,34,-1
 1126 1352 l 1,11,12
EndSplineSet
Validated: 8388609
Position2: "'cpsp' Capital Spacing lookup 3 subtable" dx=10 dy=0 dh=20 dv=0
EndChar

StartChar: Egrave
Encoding: 200 200 38
Width: 1015
Flags: MW
HStem: 0 246<479 639> 563 229<689 808> 1096 256<830 967> 1151 201<647 647>
VStem: -6 1133
LayerCount: 2
Fore
SplineSet
1126 1352 m 1,0,1
 1126 1096 1126 1096 885 1096 c 0,2,3
 767 1096 767 1096 647 1151 c 1,4,-1
 584 793 l 1,5,-1
 948 793 l 1,6,7
 948 684 948 684 894.5 623.5 c 128,-1,8
 841 563 841 563 737 563 c 0,9,10
 694 563 694 563 648 573.5 c 128,-1,11
 602 584 602 584 577 594.5 c 128,-1,12
 552 605 552 605 547 610 c 1,13,-1
 479 246 l 1,14,-1
 662 246 l 2,15,16
 799 246 799 246 864 266 c 1,17,18
 893 227 893 227 893 154 c 0,19,20
 893 0 893 0 639 0 c 2,21,-1
 -6 0 l 1,22,-1
 246 1352 l 1,23,-1
 1126 1352 l 1,0,1
922 1456 m 1,24,-1
 678 1464 l 2,25,26
 618 1466 618 1466 568.5 1476.5 c 128,-1,27
 519 1487 519 1487 477 1508 c 128,-1,28
 435 1529 435 1529 411 1566.5 c 128,-1,29
 387 1604 387 1604 387 1655 c 0,30,31
 387 1723 387 1723 444 1765 c 1,32,-1
 946 1556 l 1,33,-1
 922 1456 l 1,24,-1
EndSplineSet
Validated: 8388609
Position2: "'cpsp' Capital Spacing lookup 3 subtable" dx=10 dy=0 dh=20 dv=0
EndChar

StartChar: Emacron
Encoding: 274 274 39
Width: 1015
Flags: MW
HStem: 0 246<479 639> 563 229<689 808> 1096 256<830 967> 1151 201<647 647> 1516 188<547 893 414 1040>
VStem: -6 1133
LayerCount: 2
Fore
SplineSet
1126 1352 m 1,0,1
 1126 1096 1126 1096 885 1096 c 0,2,3
 767 1096 767 1096 647 1151 c 1,4,-1
 584 793 l 1,5,-1
 948 793 l 1,6,7
 948 684 948 684 894.5 623.5 c 128,-1,8
 841 563 841 563 737 563 c 0,9,10
 694 563 694 563 648 573.5 c 128,-1,11
 602 584 602 584 577 594.5 c 128,-1,12
 552 605 552 605 547 610 c 1,13,-1
 479 246 l 1,14,-1
 662 246 l 2,15,16
 799 246 799 246 864 266 c 1,17,18
 893 227 893 227 893 154 c 0,19,20
 893 0 893 0 639 0 c 2,21,-1
 -6 0 l 1,22,-1
 246 1352 l 1,23,-1
 1126 1352 l 1,0,1
1040 1704 m 1,24,25
 1049 1668 1049 1668 1049 1647 c 0,26,27
 1049 1589 1049 1589 1008.5 1552.5 c 128,-1,28
 968 1516 968 1516 893 1516 c 2,29,-1
 414 1516 l 1,30,31
 408 1534 408 1534 408 1571 c 0,32,33
 409 1631 409 1631 448 1667.5 c 128,-1,34
 487 1704 487 1704 547 1704 c 2,35,-1
 1040 1704 l 1,24,25
EndSplineSet
Validated: 8388609
Position2: "'cpsp' Capital Spacing lookup 3 subtable" dx=10 dy=0 dh=20 dv=0
EndChar

StartChar: Eogonek
Encoding: 280 280 40
Width: 1015
Flags: MW
HStem: -528 172<669 716> 0 246<479 584> 563 229<689 808> 1096 256<830 967> 1151 201<647 647>
VStem: 375 229<-288 -228>
LayerCount: 2
Fore
SplineSet
1126 1352 m 1,0,1
 1126 1096 1126 1096 885 1096 c 0,2,3
 767 1096 767 1096 647 1151 c 1,4,-1
 584 793 l 1,5,-1
 948 793 l 1,6,7
 948 684 948 684 894.5 623.5 c 128,-1,8
 841 563 841 563 737 563 c 0,9,10
 694 563 694 563 648 573.5 c 128,-1,11
 602 584 602 584 577 594.5 c 128,-1,12
 552 605 552 605 547 610 c 1,13,-1
 479 246 l 1,14,-1
 662 246 l 2,15,16
 799 246 799 246 864 266 c 1,17,18
 893 227 893 227 893 154 c 0,19,20
 893 55 893 55 791 20 c 1,21,22
 710 -35 710 -35 657 -107.5 c 128,-1,23
 604 -180 604 -180 604 -252 c 0,24,25
 604 -356 604 -356 700 -356 c 0,26,27
 782 -356 782 -356 827 -305 c 1,28,29
 847 -330 847 -330 855.5 -350 c 128,-1,30
 864 -370 864 -370 864 -401 c 0,31,32
 864 -455 864 -455 805.5 -491.5 c 128,-1,33
 747 -528 747 -528 643 -528 c 0,34,35
 516 -528 516 -528 445.5 -469.5 c 128,-1,36
 375 -411 375 -411 375 -299 c 0,37,38
 375 -198 375 -198 432 -122.5 c 128,-1,39
 489 -47 489 -47 584 0 c 1,40,-1
 -6 0 l 1,41,-1
 246 1352 l 1,42,-1
 1126 1352 l 1,0,1
EndSplineSet
Validated: 8388609
Position2: "'cpsp' Capital Spacing lookup 3 subtable" dx=10 dy=0 dh=20 dv=0
EndChar

StartChar: Etilde
Encoding: 7868 7868 41
Width: 1015
Flags: MW
HStem: 0 246<479 639> 563 229<689 808> 1096 256<830 967> 1151 201<647 647> 1479 221<915 988 915 988> 1516 219<481 551>
VStem: -6 1133
LayerCount: 2
Fore
SplineSet
1126 1352 m 1,0,1
 1126 1096 1126 1096 885 1096 c 0,2,3
 767 1096 767 1096 647 1151 c 1,4,-1
 584 793 l 1,5,-1
 948 793 l 1,6,7
 948 684 948 684 894.5 623.5 c 128,-1,8
 841 563 841 563 737 563 c 0,9,10
 694 563 694 563 648 573.5 c 128,-1,11
 602 584 602 584 577 594.5 c 128,-1,12
 552 605 552 605 547 610 c 1,13,-1
 479 246 l 1,14,-1
 662 246 l 2,15,16
 799 246 799 246 864 266 c 1,17,18
 893 227 893 227 893 154 c 0,19,20
 893 0 893 0 639 0 c 2,21,-1
 -6 0 l 1,22,-1
 246 1352 l 1,23,-1
 1126 1352 l 1,0,1
1085 1735 m 1,24,25
 1124 1688 1124 1688 1124 1630 c 0,26,27
 1124 1557 1124 1557 1072 1518 c 128,-1,28
 1020 1479 1020 1479 928 1479 c 0,29,30
 877 1479 877 1479 713 1497.5 c 128,-1,31
 549 1516 549 1516 510 1516 c 0,32,33
 428 1516 428 1516 373 1481 c 1,34,35
 332 1539 332 1539 332 1597 c 0,36,37
 332 1663 332 1663 384.5 1699 c 128,-1,38
 437 1735 437 1735 535 1735 c 0,39,40
 594 1735 594 1735 756 1717.5 c 128,-1,41
 918 1700 918 1700 963 1700 c 0,42,43
 1050 1700 1050 1700 1085 1735 c 1,24,25
EndSplineSet
Validated: 8388609
Position2: "'cpsp' Capital Spacing lookup 3 subtable" dx=10 dy=0 dh=20 dv=0
EndChar

StartChar: F
Encoding: 70 70 42
Width: 1044
Flags: MW
HStem: 563 246<712 840> 1085 266<871 1006> 1141 211<647 647>
VStem: -6 1159
LayerCount: 2
Fore
SplineSet
1153 1352 m 1,0,1
 1153 1219 1153 1219 1099 1152 c 128,-1,2
 1045 1085 1045 1085 918 1085 c 0,3,4
 851 1085 851 1085 772.5 1101.5 c 128,-1,5
 694 1118 694 1118 647 1141 c 1,6,-1
 586 809 l 1,7,-1
 981 809 l 1,8,9
 981 696 981 696 927.5 629.5 c 128,-1,10
 874 563 874 563 758 563 c 0,11,12
 656 563 656 563 547 612 c 1,13,-1
 438 0 l 1,14,-1
 -6 0 l 1,15,-1
 246 1352 l 1,16,-1
 1153 1352 l 1,0,1
EndSplineSet
Validated: 8388609
Position2: "'cpsp' Capital Spacing lookup 3 subtable" dx=10 dy=0 dh=20 dv=0
EndChar

StartChar: G
Encoding: 71 71 43
Width: 1310
Flags: MW
HStem: -41 244<333 706> 1247 145<718 872>
VStem: 43 438<468 685 468 763> 819 330 932 358<1068 1097>
LayerCount: 2
Fore
SplineSet
1296 696 m 1,0,1
 1149 374 1149 374 1149 -2 c 1,2,3
 1093 -41 1093 -41 1022 -41 c 0,4,5
 941 -41 941 -41 884 -4.5 c 128,-1,6
 827 32 827 32 819 74 c 1,7,8
 758 15 758 15 669 -13 c 128,-1,9
 580 -41 580 -41 485 -41 c 0,10,11
 263 -41 263 -41 153 106 c 128,-1,12
 43 253 43 253 43 514 c 0,13,14
 43 663 43 663 78 796.5 c 128,-1,15
 113 930 113 930 183 1039 c 128,-1,16
 253 1148 253 1148 352 1227 c 128,-1,17
 451 1306 451 1306 584.5 1349.5 c 128,-1,18
 718 1393 718 1393 874 1393 c 0,19,20
 937 1393 937 1393 993 1386.5 c 128,-1,21
 1049 1380 1049 1380 1105 1362.5 c 128,-1,22
 1161 1345 1161 1345 1201 1317.5 c 128,-1,23
 1241 1290 1241 1290 1265.5 1246 c 128,-1,24
 1290 1202 1290 1202 1290 1145 c 0,25,26
 1290 1033 1290 1033 1208 961 c 128,-1,27
 1126 889 1126 889 1012 889 c 0,28,29
 959 889 959 889 918 903 c 1,30,31
 932 978 932 978 932 1063 c 0,32,33
 932 1247 932 1247 819 1247 c 0,34,35
 723 1247 723 1247 643 1129.5 c 128,-1,36
 563 1012 563 1012 522 851.5 c 128,-1,37
 481 691 481 691 481 541 c 0,38,39
 481 479 481 479 489.5 425.5 c 128,-1,40
 498 372 498 372 518.5 318.5 c 128,-1,41
 539 265 539 265 581.5 234 c 128,-1,42
 624 203 624 203 684 203 c 0,43,44
 722 203 722 203 760 214 c 128,-1,45
 798 225 798 225 817 248 c 1,46,-1
 883 659 l 1,47,-1
 1296 696 l 1,0,1
EndSplineSet
Validated: 8388609
Position2: "'cpsp' Capital Spacing lookup 3 subtable" dx=10 dy=0 dh=20 dv=0
EndChar

StartChar: Gbreve
Encoding: 286 286 44
Width: 1310
Flags: MW
HStem: -41 244<333 706> 1247 145<718 872> 1436 100<876 962 876 1032>
VStem: 43 438<468 685 468 763> 535 303<1615 1642 1615 1662> 819 330 932 358<1068 1097>
LayerCount: 2
Fore
SplineSet
1296 696 m 1,0,1
 1149 374 1149 374 1149 -2 c 1,2,3
 1093 -41 1093 -41 1022 -41 c 0,4,5
 941 -41 941 -41 884 -4.5 c 128,-1,6
 827 32 827 32 819 74 c 1,7,8
 758 15 758 15 669 -13 c 128,-1,9
 580 -41 580 -41 485 -41 c 0,10,11
 263 -41 263 -41 153 106 c 128,-1,12
 43 253 43 253 43 514 c 0,13,14
 43 663 43 663 78 796.5 c 128,-1,15
 113 930 113 930 183 1039 c 128,-1,16
 253 1148 253 1148 352 1227 c 128,-1,17
 451 1306 451 1306 584.5 1349.5 c 128,-1,18
 718 1393 718 1393 874 1393 c 0,19,20
 937 1393 937 1393 993 1386.5 c 128,-1,21
 1049 1380 1049 1380 1105 1362.5 c 128,-1,22
 1161 1345 1161 1345 1201 1317.5 c 128,-1,23
 1241 1290 1241 1290 1265.5 1246 c 128,-1,24
 1290 1202 1290 1202 1290 1145 c 0,25,26
 1290 1033 1290 1033 1208 961 c 128,-1,27
 1126 889 1126 889 1012 889 c 0,28,29
 959 889 959 889 918 903 c 1,30,31
 932 978 932 978 932 1063 c 0,32,33
 932 1247 932 1247 819 1247 c 0,34,35
 723 1247 723 1247 643 1129.5 c 128,-1,36
 563 1012 563 1012 522 851.5 c 128,-1,37
 481 691 481 691 481 541 c 0,38,39
 481 479 481 479 489.5 425.5 c 128,-1,40
 498 372 498 372 518.5 318.5 c 128,-1,41
 539 265 539 265 581.5 234 c 128,-1,42
 624 203 624 203 684 203 c 0,43,44
 722 203 722 203 760 214 c 128,-1,45
 798 225 798 225 817 248 c 1,46,-1
 883 659 l 1,47,-1
 1296 696 l 1,0,1
846 1708 m 1,48,49
 838 1650 838 1650 838 1630 c 0,50,51
 838 1613 838 1613 839.5 1601.5 c 128,-1,52
 841 1590 841 1590 847 1572.5 c 128,-1,53
 853 1555 853 1555 869.5 1545.5 c 128,-1,54
 886 1536 886 1536 911 1536 c 0,55,56
 940 1536 940 1536 962.5 1548 c 128,-1,57
 985 1560 985 1560 997.5 1573.5 c 128,-1,58
 1010 1587 1010 1587 1021.5 1616 c 128,-1,59
 1033 1645 1033 1645 1037 1659.5 c 128,-1,60
 1041 1674 1041 1674 1049 1708 c 1,61,-1
 1343 1708 l 1,62,63
 1316 1586 1316 1586 1204 1511 c 128,-1,64
 1092 1436 1092 1436 891 1436 c 0,65,66
 720 1436 720 1436 627.5 1498.5 c 128,-1,67
 535 1561 535 1561 535 1653 c 0,68,69
 535 1678 535 1678 541 1708 c 1,70,-1
 846 1708 l 1,48,49
EndSplineSet
Validated: 8388609
Position2: "'cpsp' Capital Spacing lookup 3 subtable" dx=10 dy=0 dh=20 dv=0
EndChar

StartChar: Gcircumflex
Encoding: 284 284 45
Width: 1310
Flags: MW
HStem: -41 244<333 706> 1247 145<718 872>
VStem: 43 438<468 685 468 763> 819 330 932 358<1068 1097>
LayerCount: 2
Fore
SplineSet
1296 696 m 1,0,1
 1149 374 1149 374 1149 -2 c 1,2,3
 1093 -41 1093 -41 1022 -41 c 0,4,5
 941 -41 941 -41 884 -4.5 c 128,-1,6
 827 32 827 32 819 74 c 1,7,8
 758 15 758 15 669 -13 c 128,-1,9
 580 -41 580 -41 485 -41 c 0,10,11
 263 -41 263 -41 153 106 c 128,-1,12
 43 253 43 253 43 514 c 0,13,14
 43 663 43 663 78 796.5 c 128,-1,15
 113 930 113 930 183 1039 c 128,-1,16
 253 1148 253 1148 352 1227 c 128,-1,17
 451 1306 451 1306 584.5 1349.5 c 128,-1,18
 718 1393 718 1393 874 1393 c 0,19,20
 937 1393 937 1393 993 1386.5 c 128,-1,21
 1049 1380 1049 1380 1105 1362.5 c 128,-1,22
 1161 1345 1161 1345 1201 1317.5 c 128,-1,23
 1241 1290 1241 1290 1265.5 1246 c 128,-1,24
 1290 1202 1290 1202 1290 1145 c 0,25,26
 1290 1033 1290 1033 1208 961 c 128,-1,27
 1126 889 1126 889 1012 889 c 0,28,29
 959 889 959 889 918 903 c 1,30,31
 932 978 932 978 932 1063 c 0,32,33
 932 1247 932 1247 819 1247 c 0,34,35
 723 1247 723 1247 643 1129.5 c 128,-1,36
 563 1012 563 1012 522 851.5 c 128,-1,37
 481 691 481 691 481 541 c 0,38,39
 481 479 481 479 489.5 425.5 c 128,-1,40
 498 372 498 372 518.5 318.5 c 128,-1,41
 539 265 539 265 581.5 234 c 128,-1,42
 624 203 624 203 684 203 c 0,43,44
 722 203 722 203 760 214 c 128,-1,45
 798 225 798 225 817 248 c 1,46,-1
 883 659 l 1,47,-1
 1296 696 l 1,0,1
1135 1407 m 1,48,-1
 897 1513 l 1,49,-1
 594 1407 l 1,50,-1
 530 1501 l 1,51,-1
 872 1739 l 1,52,-1
 965 1739 l 1,53,-1
 1237 1501 l 1,54,-1
 1135 1407 l 1,48,-1
EndSplineSet
Validated: 8388609
Position2: "'cpsp' Capital Spacing lookup 3 subtable" dx=10 dy=0 dh=20 dv=0
EndChar

StartChar: Gcommaaccent
Encoding: 290 290 46
Width: 1310
Flags: MW
HStem: -41 244<333 706> 1247 145<718 872>
VStem: 43 438<468 685 468 763> 453 274<-300 -222> 819 330 932 358<1068 1097>
LayerCount: 2
Fore
SplineSet
727 -244 m 0,0,1
 727 -310 727 -310 695 -365.5 c 128,-1,2
 663 -421 663 -421 613 -455.5 c 128,-1,3
 563 -490 563 -490 507.5 -509 c 128,-1,4
 452 -528 452 -528 401 -528 c 128,-1,5
 350 -528 350 -528 322 -520 c 1,6,7
 392 -443 392 -443 422.5 -384 c 128,-1,8
 453 -325 453 -325 453 -240 c 0,9,10
 453 -183 453 -183 432 -135 c 1,11,12
 447 -124 447 -124 488.5 -114 c 128,-1,13
 530 -104 530 -104 559 -104 c 0,14,15
 637 -104 637 -104 682 -143 c 128,-1,16
 727 -182 727 -182 727 -244 c 0,0,1
1296 696 m 1,17,18
 1149 374 1149 374 1149 -2 c 1,19,20
 1093 -41 1093 -41 1022 -41 c 0,21,22
 941 -41 941 -41 884 -4.5 c 128,-1,23
 827 32 827 32 819 74 c 1,24,25
 758 15 758 15 669 -13 c 128,-1,26
 580 -41 580 -41 485 -41 c 0,27,28
 263 -41 263 -41 153 106 c 128,-1,29
 43 253 43 253 43 514 c 0,30,31
 43 663 43 663 78 796.5 c 128,-1,32
 113 930 113 930 183 1039 c 128,-1,33
 253 1148 253 1148 352 1227 c 128,-1,34
 451 1306 451 1306 584.5 1349.5 c 128,-1,35
 718 1393 718 1393 874 1393 c 0,36,37
 937 1393 937 1393 993 1386.5 c 128,-1,38
 1049 1380 1049 1380 1105 1362.5 c 128,-1,39
 1161 1345 1161 1345 1201 1317.5 c 128,-1,40
 1241 1290 1241 1290 1265.5 1246 c 128,-1,41
 1290 1202 1290 1202 1290 1145 c 0,42,43
 1290 1033 1290 1033 1208 961 c 128,-1,44
 1126 889 1126 889 1012 889 c 0,45,46
 959 889 959 889 918 903 c 1,47,48
 932 978 932 978 932 1063 c 0,49,50
 932 1247 932 1247 819 1247 c 0,51,52
 723 1247 723 1247 643 1129.5 c 128,-1,53
 563 1012 563 1012 522 851.5 c 128,-1,54
 481 691 481 691 481 541 c 0,55,56
 481 479 481 479 489.5 425.5 c 128,-1,57
 498 372 498 372 518.5 318.5 c 128,-1,58
 539 265 539 265 581.5 234 c 128,-1,59
 624 203 624 203 684 203 c 0,60,61
 722 203 722 203 760 214 c 128,-1,62
 798 225 798 225 817 248 c 1,63,-1
 883 659 l 1,64,-1
 1296 696 l 1,17,18
EndSplineSet
Validated: 8388609
Position2: "'cpsp' Capital Spacing lookup 3 subtable" dx=10 dy=0 dh=20 dv=0
EndChar

StartChar: Gdotaccent
Encoding: 288 288 47
Width: 1310
Flags: MW
HStem: -41 244<333 706> 1247 145<718 872> 1413 311<847 959>
VStem: 43 438<468 685 468 763> 690 420<1518 1617> 819 330 932 358<1068 1097>
LayerCount: 2
Fore
SplineSet
1296 696 m 1,0,1
 1149 374 1149 374 1149 -2 c 1,2,3
 1093 -41 1093 -41 1022 -41 c 0,4,5
 941 -41 941 -41 884 -4.5 c 128,-1,6
 827 32 827 32 819 74 c 1,7,8
 758 15 758 15 669 -13 c 128,-1,9
 580 -41 580 -41 485 -41 c 0,10,11
 263 -41 263 -41 153 106 c 128,-1,12
 43 253 43 253 43 514 c 0,13,14
 43 663 43 663 78 796.5 c 128,-1,15
 113 930 113 930 183 1039 c 128,-1,16
 253 1148 253 1148 352 1227 c 128,-1,17
 451 1306 451 1306 584.5 1349.5 c 128,-1,18
 718 1393 718 1393 874 1393 c 0,19,20
 937 1393 937 1393 993 1386.5 c 128,-1,21
 1049 1380 1049 1380 1105 1362.5 c 128,-1,22
 1161 1345 1161 1345 1201 1317.5 c 128,-1,23
 1241 1290 1241 1290 1265.5 1246 c 128,-1,24
 1290 1202 1290 1202 1290 1145 c 0,25,26
 1290 1033 1290 1033 1208 961 c 128,-1,27
 1126 889 1126 889 1012 889 c 0,28,29
 959 889 959 889 918 903 c 1,30,31
 932 978 932 978 932 1063 c 0,32,33
 932 1247 932 1247 819 1247 c 0,34,35
 723 1247 723 1247 643 1129.5 c 128,-1,36
 563 1012 563 1012 522 851.5 c 128,-1,37
 481 691 481 691 481 541 c 0,38,39
 481 479 481 479 489.5 425.5 c 128,-1,40
 498 372 498 372 518.5 318.5 c 128,-1,41
 539 265 539 265 581.5 234 c 128,-1,42
 624 203 624 203 684 203 c 0,43,44
 722 203 722 203 760 214 c 128,-1,45
 798 225 798 225 817 248 c 1,46,-1
 883 659 l 1,47,-1
 1296 696 l 1,0,1
907 1724 m 0,48,49
 1000 1724 1000 1724 1055 1683.5 c 128,-1,50
 1110 1643 1110 1643 1110 1569 c 128,-1,51
 1110 1495 1110 1495 1051.5 1454 c 128,-1,52
 993 1413 993 1413 899 1413 c 0,53,54
 806 1413 806 1413 748 1453 c 128,-1,55
 690 1493 690 1493 690 1565 c 0,56,57
 690 1640 690 1640 751 1682 c 128,-1,58
 812 1724 812 1724 907 1724 c 0,48,49
EndSplineSet
Validated: 8388609
Position2: "'cpsp' Capital Spacing lookup 3 subtable" dx=10 dy=0 dh=20 dv=0
EndChar

StartChar: H
Encoding: 72 72 48
Width: 1390
Flags: MW
HStem: 584 164<557 831 524 862> 1311 41G<246 676 676 676 975 1405 1405 1405>
VStem: -14 1419<0 1352>
LayerCount: 2
Fore
SplineSet
1210 326 m 1,0,1
 1192 223 1192 223 1192 158 c 0,2,3
 1192 77 1192 77 1219 29 c 1,4,5
 1118 -41 1118 -41 985 -41 c 0,6,7
 879 -41 879 -41 825.5 14 c 128,-1,8
 772 69 772 69 772 162 c 0,9,10
 772 202 772 202 793 346 c 1,11,-1
 831 584 l 1,12,-1
 524 584 l 1,13,-1
 412 0 l 1,14,-1
 -14 0 l 1,15,-1
 246 1352 l 1,16,-1
 676 1352 l 1,17,-1
 557 748 l 1,18,-1
 862 748 l 1,19,-1
 975 1352 l 1,20,-1
 1405 1352 l 1,21,-1
 1210 326 l 1,0,1
EndSplineSet
Validated: 1
Position2: "'cpsp' Capital Spacing lookup 3 subtable" dx=10 dy=0 dh=20 dv=0
EndChar

StartChar: Hbar
Encoding: 294 294 49
Width: 1390
Flags: MW
HStem: 584 164<557 831 524 862> 989 186<59 213 59 213 641 907 1372 1389> 989 362<59 676 59 676 604 604 604 676 246 907 1337 1389>
VStem: -14 1505<0 1128>
LayerCount: 2
Fore
SplineSet
907 989 m 1,0,-1
 604 989 l 1,1,-1
 557 748 l 1,2,-1
 862 748 l 1,3,-1
 907 989 l 1,0,-1
1210 326 m 1,4,5
 1192 223 1192 223 1192 158 c 0,6,7
 1192 77 1192 77 1219 29 c 1,8,9
 1118 -41 1118 -41 985 -41 c 0,10,11
 879 -41 879 -41 825.5 14 c 128,-1,12
 772 69 772 69 772 162 c 0,13,14
 772 202 772 202 793 346 c 1,15,-1
 831 584 l 1,16,-1
 524 584 l 1,17,-1
 412 0 l 1,18,-1
 -14 0 l 1,19,-1
 176 989 l 1,20,-1
 59 989 l 1,21,22
 53 1007 53 1007 53 1044 c 0,23,24
 54 1102 54 1102 93.5 1139 c 128,-1,25
 133 1176 133 1176 193 1176 c 2,26,-1
 213 1176 l 1,27,-1
 246 1352 l 1,28,-1
 676 1352 l 1,29,-1
 641 1176 l 1,30,-1
 942 1176 l 1,31,-1
 975 1352 l 1,32,-1
 1405 1352 l 1,33,-1
 1372 1176 l 1,34,-1
 1483 1176 l 1,35,36
 1491 1144 1491 1144 1491 1118 c 0,37,38
 1491 1060 1491 1060 1451 1024.5 c 128,-1,39
 1411 989 1411 989 1337 989 c 1,40,-1
 1210 326 l 1,4,5
EndSplineSet
Validated: 8388609
Position2: "'cpsp' Capital Spacing lookup 3 subtable" dx=10 dy=0 dh=20 dv=0
EndChar

StartChar: Hcircumflex
Encoding: 292 292 50
Width: 1390
Flags: MW
HStem: 584 164<557 831 524 862> 1311 41G<246 676 676 676 975 1405 1405 1405>
VStem: -14 1419<0 1352>
LayerCount: 2
Fore
SplineSet
1210 326 m 1,0,1
 1192 223 1192 223 1192 158 c 0,2,3
 1192 77 1192 77 1219 29 c 1,4,5
 1118 -41 1118 -41 985 -41 c 0,6,7
 879 -41 879 -41 825.5 14 c 128,-1,8
 772 69 772 69 772 162 c 0,9,10
 772 202 772 202 793 346 c 1,11,-1
 831 584 l 1,12,-1
 524 584 l 1,13,-1
 412 0 l 1,14,-1
 -14 0 l 1,15,-1
 246 1352 l 1,16,-1
 676 1352 l 1,17,-1
 557 748 l 1,18,-1
 862 748 l 1,19,-1
 975 1352 l 1,20,-1
 1405 1352 l 1,21,-1
 1210 326 l 1,0,1
1090 1407 m 1,22,-1
 852 1513 l 1,23,-1
 549 1407 l 1,24,-1
 485 1501 l 1,25,-1
 827 1739 l 1,26,-1
 920 1739 l 1,27,-1
 1192 1501 l 1,28,-1
 1090 1407 l 1,22,-1
EndSplineSet
Validated: 1
Position2: "'cpsp' Capital Spacing lookup 3 subtable" dx=10 dy=0 dh=20 dv=0
EndChar

StartChar: Hdotbelow
Encoding: 7716 7716 51
Width: 1390
Flags: MW
HStem: -397 311<501 613> 584 164<557 831 524 862> 1311 41G<246 676 676 676 975 1405 1405 1405>
VStem: -14 1419<0 1352> 344 422<-293 -194>
LayerCount: 2
Fore
SplineSet
561 -86 m 0,0,1
 654 -86 654 -86 710 -127 c 128,-1,2
 766 -168 766 -168 766 -242 c 128,-1,3
 766 -316 766 -316 706.5 -356.5 c 128,-1,4
 647 -397 647 -397 553 -397 c 0,5,6
 460 -397 460 -397 402 -357.5 c 128,-1,7
 344 -318 344 -318 344 -246 c 0,8,9
 344 -171 344 -171 405.5 -128.5 c 128,-1,10
 467 -86 467 -86 561 -86 c 0,0,1
1210 326 m 1,11,12
 1192 223 1192 223 1192 158 c 0,13,14
 1192 77 1192 77 1219 29 c 1,15,16
 1118 -41 1118 -41 985 -41 c 0,17,18
 879 -41 879 -41 825.5 14 c 128,-1,19
 772 69 772 69 772 162 c 0,20,21
 772 202 772 202 793 346 c 1,22,-1
 831 584 l 1,23,-1
 524 584 l 1,24,-1
 412 0 l 1,25,-1
 -14 0 l 1,26,-1
 246 1352 l 1,27,-1
 676 1352 l 1,28,-1
 557 748 l 1,29,-1
 862 748 l 1,30,-1
 975 1352 l 1,31,-1
 1405 1352 l 1,32,-1
 1210 326 l 1,11,12
EndSplineSet
Validated: 8388609
Position2: "'cpsp' Capital Spacing lookup 3 subtable" dx=10 dy=0 dh=20 dv=0
EndChar

StartChar: I
Encoding: 73 73 52
Width: 686
Flags: MW
HStem: 1311 41G<246 694 694 694>
VStem: -14 709
LayerCount: 2
Fore
SplineSet
430 0 m 1,0,-1
 -14 0 l 1,1,-1
 246 1352 l 1,2,-1
 694 1352 l 1,3,-1
 430 0 l 1,0,-1
EndSplineSet
Validated: 1
Position2: "'cpsp' Capital Spacing lookup 3 subtable" dx=10 dy=0 dh=20 dv=0
EndChar

StartChar: IJ
Encoding: 306 306 53
Width: 1374
Flags: MW
HStem: 1311 41G<246 694 694 694 936 1378 1378 1378>
VStem: -14 1393<0 1352>
LayerCount: 2
Fore
SplineSet
1180 315 m 2,0,1
 1131 56 1131 56 1063 -97.5 c 128,-1,2
 995 -251 995 -251 901 -320 c 128,-1,3
 807 -389 807 -389 672 -389 c 0,4,5
 486 -389 486 -389 440 -283 c 1,6,7
 503 -257 503 -257 539.5 -228 c 128,-1,8
 576 -199 576 -199 611.5 -133 c 128,-1,9
 647 -67 647 -67 675 36 c 128,-1,10
 703 139 703 139 737 315 c 2,11,-1
 936 1352 l 1,12,-1
 1378 1352 l 1,13,-1
 1180 315 l 2,0,1
-14 0 m 1,14,-1
 246 1352 l 1,15,-1
 694 1352 l 1,16,-1
 430 0 l 1,17,-1
 -14 0 l 1,14,-1
EndSplineSet
Validated: 1
Position2: "'cpsp' Capital Spacing lookup 3 subtable" dx=10 dy=0 dh=20 dv=0
EndChar

StartChar: Iacute
Encoding: 205 205 54
Width: 686
Flags: MW
HStem: 1311 41G<246 694 694 694>
VStem: -14 897
LayerCount: 2
Fore
SplineSet
-14 0 m 1,0,-1
 246 1352 l 1,1,-1
 694 1352 l 1,2,-1
 430 0 l 1,3,-1
 -14 0 l 1,0,-1
324 1554 m 1,4,-1
 825 1763 l 1,5,6
 883 1721 883 1721 883 1653 c 0,7,8
 883 1602 883 1602 859 1564.5 c 128,-1,9
 835 1527 835 1527 793 1506 c 128,-1,10
 751 1485 751 1485 701.5 1474.5 c 128,-1,11
 652 1464 652 1464 592 1462 c 2,12,-1
 348 1454 l 1,13,-1
 324 1554 l 1,4,-1
EndSplineSet
Validated: 1
Position2: "'cpsp' Capital Spacing lookup 3 subtable" dx=10 dy=0 dh=20 dv=0
EndChar

StartChar: Ibreve
Encoding: 300 300 55
Width: 686
Flags: MW
HStem: 1311 41G<246 694 694 694> 1436 100<482 568 482 639>
VStem: 141 303<1615 1642 1615 1662>
LayerCount: 2
Fore
SplineSet
-14 0 m 1,0,-1
 246 1352 l 1,1,-1
 694 1352 l 1,2,-1
 430 0 l 1,3,-1
 -14 0 l 1,0,-1
453 1708 m 1,4,5
 444 1643 444 1643 444 1630 c 0,6,7
 444 1536 444 1536 518 1536 c 0,8,9
 547 1536 547 1536 569.5 1548 c 128,-1,10
 592 1560 592 1560 604 1573 c 128,-1,11
 616 1586 616 1586 628 1616 c 128,-1,12
 640 1646 640 1646 643.5 1659.5 c 128,-1,13
 647 1673 647 1673 655 1708 c 1,14,-1
 950 1708 l 1,15,16
 923 1586 923 1586 811 1511 c 128,-1,17
 699 1436 699 1436 498 1436 c 0,18,19
 327 1436 327 1436 234 1498.5 c 128,-1,20
 141 1561 141 1561 141 1653 c 0,21,22
 141 1678 141 1678 147 1708 c 1,23,-1
 453 1708 l 1,4,5
EndSplineSet
Validated: 1
Position2: "'cpsp' Capital Spacing lookup 3 subtable" dx=10 dy=0 dh=20 dv=0
EndChar

StartChar: Icircumflex
Encoding: 206 206 56
Width: 686
Flags: MW
HStem: 1311 41G<246 694 694 694>
VStem: -14 858
LayerCount: 2
Fore
SplineSet
-14 0 m 1,0,-1
 246 1352 l 1,1,-1
 694 1352 l 1,2,-1
 430 0 l 1,3,-1
 -14 0 l 1,0,-1
741 1407 m 1,4,-1
 504 1513 l 1,5,-1
 201 1407 l 1,6,-1
 137 1501 l 1,7,-1
 479 1739 l 1,8,-1
 571 1739 l 1,9,-1
 844 1501 l 1,10,-1
 741 1407 l 1,4,-1
EndSplineSet
Validated: 1
Position2: "'cpsp' Capital Spacing lookup 3 subtable" dx=10 dy=0 dh=20 dv=0
EndChar

StartChar: Idieresis
Encoding: 207 207 57
Width: 686
Flags: MW
HStem: 1311 41G<246 694 694 694> 1413 311<222 335 701 814>
VStem: 66 420<1518 1617> 545 420<1518 1617>
LayerCount: 2
Fore
SplineSet
-14 0 m 1,0,-1
 246 1352 l 1,1,-1
 694 1352 l 1,2,-1
 430 0 l 1,3,-1
 -14 0 l 1,0,-1
762 1724 m 0,4,5
 855 1724 855 1724 910 1683.5 c 128,-1,6
 965 1643 965 1643 965 1569 c 128,-1,7
 965 1495 965 1495 906.5 1454 c 128,-1,8
 848 1413 848 1413 754 1413 c 0,9,10
 661 1413 661 1413 603 1453 c 128,-1,11
 545 1493 545 1493 545 1565 c 0,12,13
 545 1640 545 1640 606 1682 c 128,-1,14
 667 1724 667 1724 762 1724 c 0,4,5
283 1724 m 0,15,16
 375 1724 375 1724 430 1683.5 c 128,-1,17
 485 1643 485 1643 485 1569 c 128,-1,18
 485 1495 485 1495 426.5 1454 c 128,-1,19
 368 1413 368 1413 274 1413 c 0,20,21
 181 1413 181 1413 123.5 1453 c 128,-1,22
 66 1493 66 1493 66 1565 c 0,23,24
 66 1640 66 1640 127 1682 c 128,-1,25
 188 1724 188 1724 283 1724 c 0,15,16
EndSplineSet
Validated: 1
Position2: "'cpsp' Capital Spacing lookup 3 subtable" dx=10 dy=0 dh=20 dv=0
EndChar

StartChar: Idotaccent
Encoding: 304 304 58
Width: 686
Flags: MW
HStem: 1311 41G<246 694 694 694> 1413 311<452 564>
VStem: 295 420<1518 1617>
LayerCount: 2
Fore
SplineSet
-14 0 m 1,0,-1
 246 1352 l 1,1,-1
 694 1352 l 1,2,-1
 430 0 l 1,3,-1
 -14 0 l 1,0,-1
512 1724 m 0,4,5
 605 1724 605 1724 660 1683.5 c 128,-1,6
 715 1643 715 1643 715 1569 c 128,-1,7
 715 1495 715 1495 656.5 1454 c 128,-1,8
 598 1413 598 1413 504 1413 c 0,9,10
 411 1413 411 1413 353 1453 c 128,-1,11
 295 1493 295 1493 295 1565 c 0,12,13
 295 1640 295 1640 356 1682 c 128,-1,14
 417 1724 417 1724 512 1724 c 0,4,5
EndSplineSet
Validated: 1
Position2: "'cpsp' Capital Spacing lookup 3 subtable" dx=10 dy=0 dh=20 dv=0
EndChar

StartChar: Idotbelow
Encoding: 7882 7882 59
Width: 686
Flags: MW
HStem: -397 311<105 218> 1311 41G<246 694 694 694>
VStem: -51 422<-293 -194> -51 745
LayerCount: 2
Fore
SplineSet
166 -86 m 0,0,1
 259 -86 259 -86 315 -127 c 128,-1,2
 371 -168 371 -168 371 -242 c 128,-1,3
 371 -316 371 -316 311.5 -356.5 c 128,-1,4
 252 -397 252 -397 158 -397 c 0,5,6
 65 -397 65 -397 7 -357.5 c 128,-1,7
 -51 -318 -51 -318 -51 -246 c 0,8,9
 -51 -171 -51 -171 10.5 -128.5 c 128,-1,10
 72 -86 72 -86 166 -86 c 0,0,1
-14 0 m 1,11,-1
 246 1352 l 1,12,-1
 694 1352 l 1,13,-1
 430 0 l 1,14,-1
 -14 0 l 1,11,-1
EndSplineSet
Validated: 8388609
Position2: "'cpsp' Capital Spacing lookup 3 subtable" dx=10 dy=0 dh=20 dv=0
EndChar

StartChar: Igrave
Encoding: 204 204 60
Width: 686
Flags: MW
HStem: 1311 41G<246 694 694 694>
VStem: -14 741
LayerCount: 2
Fore
SplineSet
-14 0 m 1,0,-1
 246 1352 l 1,1,-1
 694 1352 l 1,2,-1
 430 0 l 1,3,-1
 -14 0 l 1,0,-1
702 1456 m 1,4,-1
 459 1464 l 2,5,6
 399 1466 399 1466 349.5 1476.5 c 128,-1,7
 300 1487 300 1487 258 1508 c 128,-1,8
 216 1529 216 1529 192 1566.5 c 128,-1,9
 168 1604 168 1604 168 1655 c 0,10,11
 168 1723 168 1723 225 1765 c 1,12,-1
 727 1556 l 1,13,-1
 702 1456 l 1,4,-1
EndSplineSet
Validated: 1
Position2: "'cpsp' Capital Spacing lookup 3 subtable" dx=10 dy=0 dh=20 dv=0
EndChar

StartChar: Imacron
Encoding: 298 298 61
Width: 686
Flags: MW
HStem: 1311 41G<246 694 694 694> 1516 188<328 674 195 821>
VStem: -14 844
LayerCount: 2
Fore
SplineSet
-14 0 m 1,0,-1
 246 1352 l 1,1,-1
 694 1352 l 1,2,-1
 430 0 l 1,3,-1
 -14 0 l 1,0,-1
821 1704 m 1,4,5
 829 1672 829 1672 829 1647 c 0,6,7
 829 1589 829 1589 789 1552.5 c 128,-1,8
 749 1516 749 1516 674 1516 c 2,9,-1
 195 1516 l 1,10,11
 188 1537 188 1537 188 1571 c 0,12,13
 189 1631 189 1631 228.5 1667.5 c 128,-1,14
 268 1704 268 1704 328 1704 c 2,15,-1
 821 1704 l 1,4,5
EndSplineSet
Validated: 1
Position2: "'cpsp' Capital Spacing lookup 3 subtable" dx=10 dy=0 dh=20 dv=0
EndChar

StartChar: Iogonek
Encoding: 302 302 62
Width: 686
Flags: MW
HStem: -528 172<312 359> 1311 41G<246 694 694 694>
VStem: 18 229<-288 -228>
LayerCount: 2
Fore
SplineSet
406 0 m 1,0,1
 335 -55 335 -55 291.5 -120.5 c 128,-1,2
 248 -186 248 -186 248 -252 c 0,3,4
 248 -356 248 -356 344 -356 c 0,5,6
 426 -356 426 -356 471 -305 c 1,7,8
 491 -330 491 -330 499.5 -350 c 128,-1,9
 508 -370 508 -370 508 -401 c 0,10,11
 508 -455 508 -455 449.5 -491.5 c 128,-1,12
 391 -528 391 -528 287 -528 c 0,13,14
 160 -528 160 -528 89 -469.5 c 128,-1,15
 18 -411 18 -411 18 -299 c 0,16,17
 18 -198 18 -198 75 -122.5 c 128,-1,18
 132 -47 132 -47 227 0 c 1,19,-1
 -14 0 l 1,20,-1
 246 1352 l 1,21,-1
 694 1352 l 1,22,-1
 434 20 l 1,23,-1
 430 0 l 1,24,-1
 406 0 l 1,0,1
EndSplineSet
Validated: 1
Position2: "'cpsp' Capital Spacing lookup 3 subtable" dx=10 dy=0 dh=20 dv=0
EndChar

StartChar: Itilde
Encoding: 296 296 63
Width: 686
Flags: MW
HStem: 1311 41G<246 694 694 694> 1479 221<696 769 696 769> 1516 219<262 332>
VStem: -14 920
LayerCount: 2
Fore
SplineSet
-14 0 m 1,0,-1
 246 1352 l 1,1,-1
 694 1352 l 1,2,-1
 430 0 l 1,3,-1
 -14 0 l 1,0,-1
866 1735 m 1,4,5
 905 1688 905 1688 905 1630 c 0,6,7
 905 1557 905 1557 853 1518 c 128,-1,8
 801 1479 801 1479 709 1479 c 0,9,10
 658 1479 658 1479 494 1497.5 c 128,-1,11
 330 1516 330 1516 291 1516 c 0,12,13
 209 1516 209 1516 154 1481 c 1,14,15
 113 1539 113 1539 113 1597 c 0,16,17
 113 1663 113 1663 165 1699 c 128,-1,18
 217 1735 217 1735 315 1735 c 0,19,20
 374 1735 374 1735 536 1717.5 c 128,-1,21
 698 1700 698 1700 743 1700 c 0,22,23
 831 1700 831 1700 866 1735 c 1,4,5
EndSplineSet
Validated: 8388609
Position2: "'cpsp' Capital Spacing lookup 3 subtable" dx=10 dy=0 dh=20 dv=0
EndChar

StartChar: J
Encoding: 74 74 64
Width: 686
Flags: MW
HStem: 1311 41G<250 692 692 692>
VStem: -246 938
LayerCount: 2
Fore
SplineSet
494 315 m 2,0,1
 445 56 445 56 377 -97.5 c 128,-1,2
 309 -251 309 -251 215 -320 c 128,-1,3
 121 -389 121 -389 -14 -389 c 0,4,5
 -200 -389 -200 -389 -246 -283 c 1,6,7
 -183 -257 -183 -257 -146.5 -228 c 128,-1,8
 -110 -199 -110 -199 -74.5 -133 c 128,-1,9
 -39 -67 -39 -67 -11 36 c 128,-1,10
 17 139 17 139 51 315 c 2,11,-1
 250 1352 l 1,12,-1
 692 1352 l 1,13,-1
 494 315 l 2,0,1
EndSplineSet
Validated: 1
Position2: "'cpsp' Capital Spacing lookup 3 subtable" dx=10 dy=0 dh=20 dv=0
EndChar

StartChar: Jcircumflex
Encoding: 308 308 65
Width: 686
Flags: MW
HStem: 1311 41G<250 692 692 692>
VStem: -246 1083
LayerCount: 2
Fore
SplineSet
494 315 m 2,0,1
 445 56 445 56 377 -97.5 c 128,-1,2
 309 -251 309 -251 215 -320 c 128,-1,3
 121 -389 121 -389 -14 -389 c 0,4,5
 -200 -389 -200 -389 -246 -283 c 1,6,7
 -183 -257 -183 -257 -146.5 -228 c 128,-1,8
 -110 -199 -110 -199 -74.5 -133 c 128,-1,9
 -39 -67 -39 -67 -11 36 c 128,-1,10
 17 139 17 139 51 315 c 2,11,-1
 250 1352 l 1,12,-1
 692 1352 l 1,13,-1
 494 315 l 2,0,1
735 1407 m 1,14,-1
 498 1513 l 1,15,-1
 195 1407 l 1,16,-1
 131 1501 l 1,17,-1
 473 1739 l 1,18,-1
 565 1739 l 1,19,-1
 838 1501 l 1,20,-1
 735 1407 l 1,14,-1
EndSplineSet
Validated: 1
Position2: "'cpsp' Capital Spacing lookup 3 subtable" dx=10 dy=0 dh=20 dv=0
EndChar

StartChar: K
Encoding: 75 75 66
Width: 1312
Flags: MW
HStem: 1311 41G<246 682 682 682 1094 1540 1540 1540>
VStem: -10 1550<0 1352>
LayerCount: 2
Fore
SplineSet
1540 1352 m 1,0,1
 1461 1268 1461 1268 1385.5 1183 c 128,-1,2
 1310 1098 1310 1098 1256.5 1036 c 128,-1,3
 1203 974 1203 974 1149 909.5 c 128,-1,4
 1095 845 1095 845 1066.5 809.5 c 128,-1,5
 1038 774 1038 774 1005.5 733.5 c 128,-1,6
 973 693 973 693 969 688 c 1,7,8
 1106 218 1106 218 1290 121 c 1,9,10
 1238 -41 1238 -41 1047 -41 c 0,11,12
 987 -41 987 -41 936 -22.5 c 128,-1,13
 885 -4 885 -4 847 26.5 c 128,-1,14
 809 57 809 57 775.5 110 c 128,-1,15
 742 163 742 163 718.5 216 c 128,-1,16
 695 269 695 269 671.5 350 c 128,-1,17
 648 431 648 431 632.5 500.5 c 128,-1,18
 617 570 617 570 596 672 c 1,19,-1
 1094 1352 l 1,20,-1
 1540 1352 l 1,0,1
424 0 m 1,21,-1
 -10 0 l 1,22,23
 199 1135 199 1135 246 1352 c 1,24,-1
 682 1352 l 1,25,-1
 424 0 l 1,21,-1
EndSplineSet
Validated: 1
Position2: "'cpsp' Capital Spacing lookup 3 subtable" dx=10 dy=0 dh=20 dv=0
EndChar

StartChar: Kcommaaccent
Encoding: 310 310 67
Width: 1312
Flags: MW
HStem: 1311 41G<246 682 682 682 1094 1540 1540 1540>
VStem: 457 274<-300 -222>
LayerCount: 2
Fore
SplineSet
731 -244 m 0,0,1
 731 -310 731 -310 699 -365.5 c 128,-1,2
 667 -421 667 -421 617.5 -455.5 c 128,-1,3
 568 -490 568 -490 512.5 -509 c 128,-1,4
 457 -528 457 -528 406 -528 c 0,5,6
 354 -528 354 -528 326 -520 c 1,7,8
 396 -443 396 -443 426.5 -384 c 128,-1,9
 457 -325 457 -325 457 -240 c 0,10,11
 457 -183 457 -183 436 -135 c 1,12,13
 451 -124 451 -124 492.5 -114 c 128,-1,14
 534 -104 534 -104 563 -104 c 0,15,16
 641 -104 641 -104 686 -143 c 128,-1,17
 731 -182 731 -182 731 -244 c 0,0,1
1540 1352 m 1,18,19
 1461 1268 1461 1268 1385.5 1183 c 128,-1,20
 1310 1098 1310 1098 1256.5 1036 c 128,-1,21
 1203 974 1203 974 1149 909.5 c 128,-1,22
 1095 845 1095 845 1066.5 809.5 c 128,-1,23
 1038 774 1038 774 1005.5 733.5 c 128,-1,24
 973 693 973 693 969 688 c 1,25,26
 1106 218 1106 218 1290 121 c 1,27,28
 1238 -41 1238 -41 1047 -41 c 0,29,30
 987 -41 987 -41 936 -22.5 c 128,-1,31
 885 -4 885 -4 847 26.5 c 128,-1,32
 809 57 809 57 775.5 110 c 128,-1,33
 742 163 742 163 718.5 216 c 128,-1,34
 695 269 695 269 671.5 350 c 128,-1,35
 648 431 648 431 632.5 500.5 c 128,-1,36
 617 570 617 570 596 672 c 1,37,-1
 1094 1352 l 1,38,-1
 1540 1352 l 1,18,19
-10 0 m 1,39,40
 199 1135 199 1135 246 1352 c 1,41,-1
 682 1352 l 1,42,-1
 424 0 l 1,43,-1
 -10 0 l 1,39,40
EndSplineSet
Validated: 1
Position2: "'cpsp' Capital Spacing lookup 3 subtable" dx=10 dy=0 dh=20 dv=0
EndChar

StartChar: L
Encoding: 76 76 68
Width: 905
Flags: MW
HStem: 0 246<492 651> 1311 41G<246 692 692 692>
VStem: -2 907<0 170>
LayerCount: 2
Fore
SplineSet
246 1352 m 1,0,-1
 692 1352 l 1,1,-1
 492 246 l 1,2,-1
 674 246 l 2,3,4
 812 246 812 246 877 266 c 1,5,6
 905 228 905 228 905 154 c 0,7,8
 905 108 905 108 884.5 76 c 128,-1,9
 864 44 864 44 825.5 28.5 c 128,-1,10
 787 13 787 13 746 6.5 c 128,-1,11
 705 0 705 0 651 0 c 2,12,-1
 -2 0 l 1,13,-1
 246 1352 l 1,0,-1
EndSplineSet
Validated: 1
Position2: "'cpsp' Capital Spacing lookup 3 subtable" dx=10 dy=0 dh=20 dv=0
EndChar

StartChar: LJ
Encoding: 455 455 69
Width: 1593
Flags: MW
HStem: 0 246<492 651> 1311 41G<246 692 692 692 1155 1597 1597 1597>
VStem: -2 1599<0 1352>
LayerCount: 2
Fore
SplineSet
1399 315 m 2,0,1
 1350 56 1350 56 1282 -97.5 c 128,-1,2
 1214 -251 1214 -251 1120 -320 c 128,-1,3
 1026 -389 1026 -389 891 -389 c 0,4,5
 705 -389 705 -389 659 -283 c 1,6,7
 722 -257 722 -257 758.5 -228 c 128,-1,8
 795 -199 795 -199 830.5 -133 c 128,-1,9
 866 -67 866 -67 894 36 c 128,-1,10
 922 139 922 139 956 315 c 2,11,-1
 1155 1352 l 1,12,-1
 1597 1352 l 1,13,-1
 1399 315 l 2,0,1
692 1352 m 1,14,-1
 492 246 l 1,15,-1
 674 246 l 2,16,17
 812 246 812 246 877 266 c 1,18,19
 905 228 905 228 905 154 c 0,20,21
 905 108 905 108 884.5 76 c 128,-1,22
 864 44 864 44 825.5 28.5 c 128,-1,23
 787 13 787 13 746 6.5 c 128,-1,24
 705 0 705 0 651 0 c 2,25,-1
 -2 0 l 1,26,-1
 246 1352 l 1,27,-1
 692 1352 l 1,14,-1
EndSplineSet
Validated: 1
Position2: "'cpsp' Capital Spacing lookup 3 subtable" dx=10 dy=0 dh=20 dv=0
EndChar

StartChar: Lacute
Encoding: 313 313 70
Width: 905
Flags: MW
HStem: 0 246<492 651> 1311 41G<246 692 692 692>
VStem: -2 907<0 170>
LayerCount: 2
Fore
SplineSet
692 1352 m 1,0,-1
 492 246 l 1,1,-1
 674 246 l 2,2,3
 812 246 812 246 877 266 c 1,4,5
 905 228 905 228 905 154 c 0,6,7
 905 108 905 108 884.5 76 c 128,-1,8
 864 44 864 44 825.5 28.5 c 128,-1,9
 787 13 787 13 746 6.5 c 128,-1,10
 705 0 705 0 651 0 c 2,11,-1
 -2 0 l 1,12,-1
 246 1352 l 1,13,-1
 692 1352 l 1,0,-1
305 1554 m 1,14,-1
 807 1763 l 1,15,16
 864 1721 864 1721 864 1653 c 0,17,18
 864 1602 864 1602 840 1564.5 c 128,-1,19
 816 1527 816 1527 774 1506 c 128,-1,20
 732 1485 732 1485 682.5 1474.5 c 128,-1,21
 633 1464 633 1464 573 1462 c 2,22,-1
 330 1454 l 1,23,-1
 305 1554 l 1,14,-1
EndSplineSet
Validated: 1
Position2: "'cpsp' Capital Spacing lookup 3 subtable" dx=10 dy=0 dh=20 dv=0
EndChar

StartChar: Lcaron
Encoding: 317 317 71
Width: 905
Flags: MW
HStem: 0 246<492 651> 1044 41G 1073 279<246 895> 1430 41G<925 988>
VStem: 840 250<1292 1351>
LayerCount: 2
Fore
SplineSet
692 1352 m 1,0,-1
 492 246 l 1,1,-1
 674 246 l 2,2,3
 812 246 812 246 877 266 c 1,4,5
 905 228 905 228 905 154 c 0,6,7
 905 108 905 108 884.5 76 c 128,-1,8
 864 44 864 44 825.5 28.5 c 128,-1,9
 787 13 787 13 746 6.5 c 128,-1,10
 705 0 705 0 651 0 c 2,11,-1
 -2 0 l 1,12,-1
 246 1352 l 1,13,-1
 692 1352 l 1,0,-1
821 1442 m 1,14,15
 879 1470 879 1470 946 1470 c 0,16,17
 1010 1470 1010 1470 1050 1427.5 c 128,-1,18
 1090 1385 1090 1385 1090 1311 c 0,19,20
 1090 1228 1090 1228 1009.5 1150.5 c 128,-1,21
 929 1073 929 1073 813 1073 c 0,22,23
 777 1073 777 1073 741 1085 c 1,24,25
 840 1198 840 1198 840 1327 c 0,26,27
 840 1380 840 1380 821 1442 c 1,14,15
EndSplineSet
Validated: 8388609
Position2: "'cpsp' Capital Spacing lookup 3 subtable" dx=10 dy=0 dh=20 dv=0
EndChar

StartChar: Lcommaaccent
Encoding: 315 315 72
Width: 905
Flags: MW
HStem: 0 246<492 651> 1311 41G<246 692 692 692>
VStem: 250 274<-300 -222>
LayerCount: 2
Fore
SplineSet
524 -244 m 0,0,1
 524 -310 524 -310 492 -365.5 c 128,-1,2
 460 -421 460 -421 410.5 -455.5 c 128,-1,3
 361 -490 361 -490 305.5 -509 c 128,-1,4
 250 -528 250 -528 199 -528 c 0,5,6
 147 -528 147 -528 119 -520 c 1,7,8
 189 -443 189 -443 219.5 -384 c 128,-1,9
 250 -325 250 -325 250 -240 c 0,10,11
 250 -183 250 -183 229 -135 c 1,12,13
 244 -124 244 -124 285.5 -114 c 128,-1,14
 327 -104 327 -104 356 -104 c 0,15,16
 434 -104 434 -104 479 -143 c 128,-1,17
 524 -182 524 -182 524 -244 c 0,0,1
692 1352 m 1,18,-1
 492 246 l 1,19,-1
 674 246 l 2,20,21
 812 246 812 246 877 266 c 1,22,23
 905 228 905 228 905 154 c 0,24,25
 905 108 905 108 884.5 76 c 128,-1,26
 864 44 864 44 825.5 28.5 c 128,-1,27
 787 13 787 13 746 6.5 c 128,-1,28
 705 0 705 0 651 0 c 2,29,-1
 -2 0 l 1,30,-1
 246 1352 l 1,31,-1
 692 1352 l 1,18,-1
EndSplineSet
Validated: 1
Position2: "'cpsp' Capital Spacing lookup 3 subtable" dx=10 dy=0 dh=20 dv=0
EndChar

StartChar: Ldot
Encoding: 319 319 73
Width: 905
Flags: MW
HStem: 0 246<492 651> 1311 41G<246 692 692 692>
VStem: -2 913<0 737>
LayerCount: 2
Fore
SplineSet
803 809 m 0,0,1
 855 809 855 809 883 782 c 128,-1,2
 911 755 911 755 911 705 c 0,3,4
 911 692 911 692 907 668 c 1,5,6
 893 602 893 602 848 563 c 128,-1,7
 803 524 803 524 739 524 c 0,8,9
 685 524 685 524 656 552 c 128,-1,10
 627 580 627 580 627 627 c 0,11,12
 627 638 627 638 631 662 c 0,13,14
 644 729 644 729 691.5 769 c 128,-1,15
 739 809 739 809 803 809 c 0,0,1
692 1352 m 1,16,-1
 492 246 l 1,17,-1
 674 246 l 2,18,19
 812 246 812 246 877 266 c 1,20,21
 905 228 905 228 905 154 c 0,22,23
 905 108 905 108 884.5 76 c 128,-1,24
 864 44 864 44 825.5 28.5 c 128,-1,25
 787 13 787 13 746 6.5 c 128,-1,26
 705 0 705 0 651 0 c 2,27,-1
 -2 0 l 1,28,-1
 246 1352 l 1,29,-1
 692 1352 l 1,16,-1
EndSplineSet
Validated: 1
Ligature2: "Ligature Substitution lookup 20 subtable" L periodcentered
Position2: "'cpsp' Capital Spacing lookup 3 subtable" dx=10 dy=0 dh=20 dv=0
EndChar

StartChar: Lj
Encoding: 456 456 74
Width: 1525
Flags: MW
HStem: -410 152 0 246<492 651> 1044 41G 1208 328<1300 1419> 1311 41G<246 692 692 692>
VStem: -2 1581<0 1424> 1137 442<1318 1422>
LayerCount: 2
Fore
SplineSet
1348 186 m 2,0,1
 1287 -124 1287 -124 1186.5 -267 c 128,-1,2
 1086 -410 1086 -410 907 -410 c 0,3,4
 815 -410 815 -410 750 -373 c 128,-1,5
 685 -336 685 -336 664 -258 c 1,6,7
 781 -254 781 -254 841 -147.5 c 128,-1,8
 901 -41 901 -41 954 229 c 2,9,-1
 1112 1044 l 1,10,-1
 1522 1085 l 1,11,-1
 1348 186 l 2,0,1
692 1352 m 1,12,-1
 492 246 l 1,13,-1
 674 246 l 2,14,15
 812 246 812 246 877 266 c 1,16,17
 905 228 905 228 905 154 c 0,18,19
 905 108 905 108 884.5 76 c 128,-1,20
 864 44 864 44 825.5 28.5 c 128,-1,21
 787 13 787 13 746 6.5 c 128,-1,22
 705 0 705 0 651 0 c 2,23,-1
 -2 0 l 1,24,-1
 246 1352 l 1,25,-1
 692 1352 l 1,12,-1
1364 1536 m 0,26,27
 1461 1536 1461 1536 1520 1492.5 c 128,-1,28
 1579 1449 1579 1449 1579 1372 c 0,29,30
 1579 1293 1579 1293 1517 1250.5 c 128,-1,31
 1455 1208 1455 1208 1356 1208 c 0,32,33
 1258 1208 1258 1208 1197.5 1250 c 128,-1,34
 1137 1292 1137 1292 1137 1368 c 0,35,36
 1137 1447 1137 1447 1201 1491.5 c 128,-1,37
 1265 1536 1265 1536 1364 1536 c 0,26,27
EndSplineSet
Validated: 8388609
Position2: "'cpsp' Capital Spacing lookup 3 subtable" dx=10 dy=0 dh=20 dv=0
EndChar

StartChar: Lslash
Encoding: 321 321 75
Width: 1021
Flags: MW
HStem: 0 246<608 768> 1311 41G<362 809 809 809>
VStem: -14 1036<89 525>
LayerCount: 2
Fore
SplineSet
791 246 m 2,0,1
 928 246 928 246 993 266 c 1,2,3
 1022 227 1022 227 1022 154 c 0,4,5
 1022 108 1022 108 1001.5 76 c 128,-1,6
 981 44 981 44 942.5 28.5 c 128,-1,7
 904 13 904 13 863 6.5 c 128,-1,8
 822 0 822 0 768 0 c 2,9,-1
 115 0 l 1,10,-1
 201 469 l 1,11,-1
 29 408 l 1,12,13
 -14 448 -14 448 -14 502 c 0,14,15
 -14 590 -14 590 78 623 c 2,16,-1
 240 682 l 1,17,-1
 362 1352 l 1,18,-1
 809 1352 l 1,19,-1
 719 858 l 1,20,-1
 897 924 l 1,21,22
 936 890 936 890 936 823 c 0,23,24
 936 774 936 774 902.5 741.5 c 128,-1,25
 869 709 869 709 793 682 c 2,26,-1
 680 641 l 1,27,-1
 608 246 l 1,28,-1
 791 246 l 2,0,1
EndSplineSet
Validated: 1
Position2: "'cpsp' Capital Spacing lookup 3 subtable" dx=10 dy=0 dh=20 dv=0
EndChar

StartChar: M
Encoding: 77 77 76
Width: 1660
Flags: MW
HStem: 1311 41G<287 713 713 713 1204 1614 1614 1614>
VStem: 1149 395<117 264>
LayerCount: 2
Fore
SplineSet
1614 1352 m 1,0,-1
 1548 358 l 2,1,2
 1544 308 1544 308 1544 254 c 0,3,4
 1544 114 1544 114 1610 68 c 1,5,6
 1582 20 1582 20 1515.5 -10.5 c 128,-1,7
 1449 -41 1449 -41 1364 -41 c 0,8,9
 1149 -41 1149 -41 1149 190 c 0,10,11
 1149 231 1149 231 1153 285 c 2,12,-1
 1208 922 l 1,13,-1
 799 0 l 1,14,-1
 559 0 l 1,15,-1
 391 922 l 1,16,-1
 193 0 l 1,17,-1
 -43 0 l 1,18,-1
 287 1352 l 1,19,-1
 713 1352 l 1,20,-1
 856 592 l 1,21,-1
 1204 1352 l 1,22,-1
 1614 1352 l 1,0,-1
EndSplineSet
Validated: 1
Position2: "'cpsp' Capital Spacing lookup 3 subtable" dx=10 dy=0 dh=20 dv=0
EndChar

StartChar: N
Encoding: 78 78 77
Width: 1406
Flags: MW
HStem: 1311 41G<246 686 686 686 1159 1401 1401 1401>
VStem: 0 1401<0 1352>
LayerCount: 2
Fore
SplineSet
0 0 m 1,0,-1
 246 1352 l 1,1,-1
 686 1352 l 1,2,-1
 1004 420 l 1,3,-1
 1159 1352 l 1,4,-1
 1401 1352 l 1,5,-1
 1151 0 l 1,6,-1
 684 0 l 1,7,-1
 389 897 l 1,8,-1
 240 0 l 1,9,-1
 0 0 l 1,0,-1
EndSplineSet
Validated: 1
Position2: "'cpsp' Capital Spacing lookup 3 subtable" dx=10 dy=0 dh=20 dv=0
EndChar

StartChar: NJ
Encoding: 458 458 78
Width: 2093
Flags: MW
HStem: 1311 41G<246 686 686 686 1159 1401 1401 1401 1657 2099 2099 2099>
VStem: 0 2099<0 1352>
LayerCount: 2
Fore
SplineSet
1901 315 m 2,0,1
 1852 56 1852 56 1784 -97.5 c 128,-1,2
 1716 -251 1716 -251 1622 -320 c 128,-1,3
 1528 -389 1528 -389 1393 -389 c 0,4,5
 1207 -389 1207 -389 1161 -283 c 1,6,7
 1224 -257 1224 -257 1260.5 -228 c 128,-1,8
 1297 -199 1297 -199 1332.5 -133 c 128,-1,9
 1368 -67 1368 -67 1396 36 c 128,-1,10
 1424 139 1424 139 1458 315 c 2,11,-1
 1657 1352 l 1,12,-1
 2099 1352 l 1,13,-1
 1901 315 l 2,0,1
246 1352 m 1,14,-1
 686 1352 l 1,15,-1
 1004 420 l 1,16,-1
 1159 1352 l 1,17,-1
 1401 1352 l 1,18,-1
 1151 0 l 1,19,-1
 684 0 l 1,20,-1
 389 897 l 1,21,-1
 240 0 l 1,22,-1
 0 0 l 1,23,-1
 246 1352 l 1,14,-1
EndSplineSet
Validated: 1
Position2: "'cpsp' Capital Spacing lookup 3 subtable" dx=10 dy=0 dh=20 dv=0
EndChar

StartChar: Nacute
Encoding: 323 323 79
Width: 1406
Flags: MW
HStem: 1311 41G<246 686 686 686 1159 1401 1401 1401>
VStem: 0 1401<0 1352>
LayerCount: 2
Fore
SplineSet
246 1352 m 1,0,-1
 686 1352 l 1,1,-1
 1004 420 l 1,2,-1
 1159 1352 l 1,3,-1
 1401 1352 l 1,4,-1
 1151 0 l 1,5,-1
 684 0 l 1,6,-1
 389 897 l 1,7,-1
 240 0 l 1,8,-1
 0 0 l 1,9,-1
 246 1352 l 1,0,-1
688 1554 m 1,10,-1
 1190 1763 l 1,11,12
 1247 1721 1247 1721 1247 1653 c 0,13,14
 1247 1602 1247 1602 1223 1564.5 c 128,-1,15
 1199 1527 1199 1527 1157 1506 c 128,-1,16
 1115 1485 1115 1485 1065.5 1474.5 c 128,-1,17
 1016 1464 1016 1464 956 1462 c 2,18,-1
 713 1454 l 1,19,-1
 688 1554 l 1,10,-1
EndSplineSet
Validated: 1
Substitution2: "'locl' Localized Forms in Latin lookup 13 subtable" Nacute.loclPLK
Substitution2: "'aalt' Access All Alternates lookup 0 subtable" Nacute.loclPLK
Position2: "'cpsp' Capital Spacing lookup 3 subtable" dx=10 dy=0 dh=20 dv=0
EndChar

StartChar: Ncaron
Encoding: 327 327 80
Width: 1406
Flags: MW
HStem: 1311 41G<246 686 686 686 1159 1401 1401 1401>
VStem: 0 1401<0 1352>
LayerCount: 2
Fore
SplineSet
246 1352 m 1,0,-1
 686 1352 l 1,1,-1
 1004 420 l 1,2,-1
 1159 1352 l 1,3,-1
 1401 1352 l 1,4,-1
 1151 0 l 1,5,-1
 684 0 l 1,6,-1
 389 897 l 1,7,-1
 240 0 l 1,8,-1
 0 0 l 1,9,-1
 246 1352 l 1,0,-1
659 1749 m 1,10,-1
 899 1642 l 1,11,-1
 1202 1749 l 1,12,-1
 1266 1655 l 1,13,-1
 944 1417 l 1,14,-1
 809 1417 l 1,15,-1
 557 1655 l 1,16,-1
 659 1749 l 1,10,-1
EndSplineSet
Validated: 1
Position2: "'cpsp' Capital Spacing lookup 3 subtable" dx=10 dy=0 dh=20 dv=0
EndChar

StartChar: Ncommaaccent
Encoding: 325 325 81
Width: 1406
Flags: MW
HStem: 1311 41G<246 686 686 686 1159 1401 1401 1401>
VStem: 489 274<-300 -222>
LayerCount: 2
Fore
SplineSet
764 -244 m 0,0,1
 764 -310 764 -310 732 -365.5 c 128,-1,2
 700 -421 700 -421 650 -455.5 c 128,-1,3
 600 -490 600 -490 544.5 -509 c 128,-1,4
 489 -528 489 -528 438 -528 c 0,5,6
 386 -528 386 -528 358 -520 c 1,7,8
 428 -443 428 -443 458.5 -384 c 128,-1,9
 489 -325 489 -325 489 -240 c 0,10,11
 489 -181 489 -181 469 -135 c 1,12,13
 484 -124 484 -124 525.5 -114 c 128,-1,14
 567 -104 567 -104 596 -104 c 0,15,16
 674 -104 674 -104 719 -143 c 128,-1,17
 764 -182 764 -182 764 -244 c 0,0,1
246 1352 m 1,18,-1
 686 1352 l 1,19,-1
 1004 420 l 1,20,-1
 1159 1352 l 1,21,-1
 1401 1352 l 1,22,-1
 1151 0 l 1,23,-1
 684 0 l 1,24,-1
 389 897 l 1,25,-1
 240 0 l 1,26,-1
 0 0 l 1,27,-1
 246 1352 l 1,18,-1
EndSplineSet
Validated: 1
Position2: "'cpsp' Capital Spacing lookup 3 subtable" dx=10 dy=0 dh=20 dv=0
EndChar

StartChar: Ndotaccent
Encoding: 7748 7748 82
Width: 1406
Flags: MW
HStem: 1311 41G<246 686 686 686 1159 1401 1401 1401> 1413 311<816 929>
VStem: 0 1401<0 1352> 659 420<1518 1617>
LayerCount: 2
Fore
SplineSet
246 1352 m 1,0,-1
 686 1352 l 1,1,-1
 1004 420 l 1,2,-1
 1159 1352 l 1,3,-1
 1401 1352 l 1,4,-1
 1151 0 l 1,5,-1
 684 0 l 1,6,-1
 389 897 l 1,7,-1
 240 0 l 1,8,-1
 0 0 l 1,9,-1
 246 1352 l 1,0,-1
877 1724 m 0,10,11
 969 1724 969 1724 1024 1683.5 c 128,-1,12
 1079 1643 1079 1643 1079 1569 c 128,-1,13
 1079 1495 1079 1495 1020.5 1454 c 128,-1,14
 962 1413 962 1413 868 1413 c 0,15,16
 775 1413 775 1413 717 1453 c 128,-1,17
 659 1493 659 1493 659 1565 c 0,18,19
 659 1640 659 1640 720.5 1682 c 128,-1,20
 782 1724 782 1724 877 1724 c 0,10,11
EndSplineSet
Validated: 8388609
Position2: "'cpsp' Capital Spacing lookup 3 subtable" dx=10 dy=0 dh=20 dv=0
EndChar

StartChar: Eng
Encoding: 330 330 83
Width: 1406
Flags: MW
HStem: 1311 41G<246 686 686 686 1159 1401 1401 1401>
VStem: 0 1401<0 1352>
LayerCount: 2
Fore
SplineSet
240 0 m 1,0,-1
 0 0 l 1,1,-1
 246 1352 l 1,2,-1
 686 1352 l 1,3,-1
 1004 420 l 1,4,-1
 1159 1352 l 1,5,-1
 1401 1352 l 1,6,-1
 1171 113 l 2,7,8
 1119 -166 1119 -166 1042 -284.5 c 128,-1,9
 965 -403 965 -403 825 -403 c 0,10,11
 709 -403 709 -403 678 -334 c 1,12,13
 731 -315 731 -315 762.5 -297 c 128,-1,14
 794 -279 794 -279 827 -243.5 c 128,-1,15
 860 -208 860 -208 883.5 -149 c 128,-1,16
 907 -90 907 -90 926 0 c 1,17,-1
 694 0 l 1,18,-1
 389 897 l 1,19,-1
 240 0 l 1,0,-1
EndSplineSet
Validated: 1
Position2: "'cpsp' Capital Spacing lookup 3 subtable" dx=10 dy=0 dh=20 dv=0
EndChar

StartChar: Nj
Encoding: 459 459 84
Width: 2025
Flags: MW
HStem: -410 152 1044 41G 1208 328<1802 1921> 1311 41G<246 686 686 686 1159 1401 1401 1401>
VStem: 0 2081<0 1424> 1638 442<1318 1422>
LayerCount: 2
Fore
SplineSet
1849 186 m 2,0,1
 1788 -124 1788 -124 1688 -267 c 128,-1,2
 1588 -410 1588 -410 1409 -410 c 0,3,4
 1317 -410 1317 -410 1251.5 -373 c 128,-1,5
 1186 -336 1186 -336 1165 -258 c 1,6,7
 1283 -254 1283 -254 1343 -147.5 c 128,-1,8
 1403 -41 1403 -41 1456 229 c 2,9,-1
 1614 1044 l 1,10,-1
 2023 1085 l 1,11,-1
 1849 186 l 2,0,1
246 1352 m 1,12,-1
 686 1352 l 1,13,-1
 1004 420 l 1,14,-1
 1159 1352 l 1,15,-1
 1401 1352 l 1,16,-1
 1151 0 l 1,17,-1
 684 0 l 1,18,-1
 389 897 l 1,19,-1
 240 0 l 1,20,-1
 0 0 l 1,21,-1
 246 1352 l 1,12,-1
1866 1536 m 0,22,23
 1963 1536 1963 1536 2022 1492.5 c 128,-1,24
 2081 1449 2081 1449 2081 1372 c 0,25,26
 2081 1293 2081 1293 2019 1250.5 c 128,-1,27
 1957 1208 1957 1208 1858 1208 c 0,28,29
 1760 1208 1760 1208 1699 1250 c 128,-1,30
 1638 1292 1638 1292 1638 1368 c 0,31,32
 1638 1447 1638 1447 1702.5 1491.5 c 128,-1,33
 1767 1536 1767 1536 1866 1536 c 0,22,23
EndSplineSet
Validated: 8388609
Position2: "'cpsp' Capital Spacing lookup 3 subtable" dx=10 dy=0 dh=20 dv=0
EndChar

StartChar: Ntilde
Encoding: 209 209 85
Width: 1406
Flags: MW
HStem: 1311 41G<246 686 686 686 1159 1401 1401 1401> 1479 221<1061 1134 1061 1134> 1516 219<627 696>
VStem: 0 1401<0 1352>
LayerCount: 2
Fore
SplineSet
246 1352 m 1,0,-1
 686 1352 l 1,1,-1
 1004 420 l 1,2,-1
 1159 1352 l 1,3,-1
 1401 1352 l 1,4,-1
 1151 0 l 1,5,-1
 684 0 l 1,6,-1
 389 897 l 1,7,-1
 240 0 l 1,8,-1
 0 0 l 1,9,-1
 246 1352 l 1,0,-1
1231 1735 m 1,10,11
 1270 1688 1270 1688 1270 1630 c 0,12,13
 1270 1557 1270 1557 1217.5 1518 c 128,-1,14
 1165 1479 1165 1479 1073 1479 c 0,15,16
 1022 1479 1022 1479 858 1497.5 c 128,-1,17
 694 1516 694 1516 655 1516 c 0,18,19
 573 1516 573 1516 518 1481 c 1,20,21
 477 1539 477 1539 477 1597 c 0,22,23
 477 1663 477 1663 529.5 1699 c 128,-1,24
 582 1735 582 1735 680 1735 c 0,25,26
 739 1735 739 1735 901 1717.5 c 128,-1,27
 1063 1700 1063 1700 1108 1700 c 0,28,29
 1196 1700 1196 1700 1231 1735 c 1,10,11
EndSplineSet
Validated: 8388609
Position2: "'cpsp' Capital Spacing lookup 3 subtable" dx=10 dy=0 dh=20 dv=0
EndChar

StartChar: O
Encoding: 79 79 86
Width: 1411
Flags: MW
HStem: -41 145<553 674 553 833> 1249 143<736 857>
VStem: 45 444<232 761> 922 444<592 1121>
LayerCount: 2
Fore
SplineSet
809 1249 m 0,0,1
 700 1249 700 1249 631.5 1104.5 c 128,-1,2
 563 960 563 960 520 641 c 0,3,4
 489 406 489 406 489 283 c 0,5,6
 489 197 489 197 512 150.5 c 128,-1,7
 535 104 535 104 600 104 c 0,8,9
 710 104 710 104 779 248.5 c 128,-1,10
 848 393 848 393 891 713 c 0,11,12
 922 948 922 948 922 1071 c 0,13,14
 922 1157 922 1157 898.5 1203 c 128,-1,15
 875 1249 875 1249 809 1249 c 0,0,1
836 1393 m 0,16,17
 1366 1393 1366 1393 1366 827 c 0,18,19
 1366 685 1366 685 1333.5 556 c 128,-1,20
 1301 427 1301 427 1235 318 c 128,-1,21
 1169 209 1169 209 1076 129 c 128,-1,22
 983 49 983 49 854.5 4 c 128,-1,23
 726 -41 726 -41 575 -41 c 0,24,25
 45 -41 45 -41 45 526 c 0,26,27
 45 667 45 667 77.5 796 c 128,-1,28
 110 925 110 925 176 1034 c 128,-1,29
 242 1143 242 1143 335 1223 c 128,-1,30
 428 1303 428 1303 556.5 1348 c 128,-1,31
 685 1393 685 1393 836 1393 c 0,16,17
EndSplineSet
Validated: 1
Substitution2: "Single Substitution lookup 21 subtable" ordmasculine
Substitution2: "'aalt' Access All Alternates lookup 0 subtable" ordmasculine
Position2: "'cpsp' Capital Spacing lookup 3 subtable" dx=10 dy=0 dh=20 dv=0
EndChar

StartChar: Oacute
Encoding: 211 211 87
Width: 1411
Flags: MW
HStem: -41 145<553 674 553 833> 1249 143<736 857>
VStem: 45 444<232 761> 922 444<592 1121>
LayerCount: 2
Fore
SplineSet
809 1249 m 0,0,1
 700 1249 700 1249 631.5 1104.5 c 128,-1,2
 563 960 563 960 520 641 c 0,3,4
 489 406 489 406 489 283 c 0,5,6
 489 197 489 197 512 150.5 c 128,-1,7
 535 104 535 104 600 104 c 0,8,9
 710 104 710 104 779 248.5 c 128,-1,10
 848 393 848 393 891 713 c 0,11,12
 922 948 922 948 922 1071 c 0,13,14
 922 1157 922 1157 898.5 1203 c 128,-1,15
 875 1249 875 1249 809 1249 c 0,0,1
836 1393 m 0,16,17
 1366 1393 1366 1393 1366 827 c 0,18,19
 1366 685 1366 685 1333.5 556 c 128,-1,20
 1301 427 1301 427 1235 318 c 128,-1,21
 1169 209 1169 209 1076 129 c 128,-1,22
 983 49 983 49 854.5 4 c 128,-1,23
 726 -41 726 -41 575 -41 c 0,24,25
 45 -41 45 -41 45 526 c 0,26,27
 45 667 45 667 77.5 796 c 128,-1,28
 110 925 110 925 176 1034 c 128,-1,29
 242 1143 242 1143 335 1223 c 128,-1,30
 428 1303 428 1303 556.5 1348 c 128,-1,31
 685 1393 685 1393 836 1393 c 0,16,17
672 1554 m 1,32,-1
 1174 1763 l 1,33,34
 1231 1721 1231 1721 1231 1653 c 0,35,36
 1231 1602 1231 1602 1207 1564.5 c 128,-1,37
 1183 1527 1183 1527 1141 1506 c 128,-1,38
 1099 1485 1099 1485 1049.5 1474.5 c 128,-1,39
 1000 1464 1000 1464 940 1462 c 2,40,-1
 696 1454 l 1,41,-1
 672 1554 l 1,32,-1
EndSplineSet
Validated: 1
Substitution2: "'locl' Localized Forms in Latin lookup 13 subtable" Oacute.loclPLK
Substitution2: "'aalt' Access All Alternates lookup 0 subtable" Oacute.loclPLK
Position2: "'cpsp' Capital Spacing lookup 3 subtable" dx=10 dy=0 dh=20 dv=0
EndChar

StartChar: Obreve
Encoding: 334 334 88
Width: 1411
Flags: MW
HStem: -41 145<553 674 553 833> 1249 143<736 857> 1436 100<830 916 830 987>
VStem: 45 444<232 761> 489 303<1615 1642 1615 1662> 922 444<592 1121>
LayerCount: 2
Fore
SplineSet
809 1249 m 0,0,1
 700 1249 700 1249 631.5 1104.5 c 128,-1,2
 563 960 563 960 520 641 c 0,3,4
 489 406 489 406 489 283 c 0,5,6
 489 197 489 197 512 150.5 c 128,-1,7
 535 104 535 104 600 104 c 0,8,9
 710 104 710 104 779 248.5 c 128,-1,10
 848 393 848 393 891 713 c 0,11,12
 922 948 922 948 922 1071 c 0,13,14
 922 1157 922 1157 898.5 1203 c 128,-1,15
 875 1249 875 1249 809 1249 c 0,0,1
836 1393 m 0,16,17
 1366 1393 1366 1393 1366 827 c 0,18,19
 1366 685 1366 685 1333.5 556 c 128,-1,20
 1301 427 1301 427 1235 318 c 128,-1,21
 1169 209 1169 209 1076 129 c 128,-1,22
 983 49 983 49 854.5 4 c 128,-1,23
 726 -41 726 -41 575 -41 c 0,24,25
 45 -41 45 -41 45 526 c 0,26,27
 45 667 45 667 77.5 796 c 128,-1,28
 110 925 110 925 176 1034 c 128,-1,29
 242 1143 242 1143 335 1223 c 128,-1,30
 428 1303 428 1303 556.5 1348 c 128,-1,31
 685 1393 685 1393 836 1393 c 0,16,17
801 1708 m 1,32,33
 793 1650 793 1650 793 1630 c 0,34,35
 793 1613 793 1613 794.5 1601.5 c 128,-1,36
 796 1590 796 1590 802 1572.5 c 128,-1,37
 808 1555 808 1555 824.5 1545.5 c 128,-1,38
 841 1536 841 1536 866 1536 c 0,39,40
 895 1536 895 1536 917.5 1548 c 128,-1,41
 940 1560 940 1560 952.5 1573.5 c 128,-1,42
 965 1587 965 1587 976.5 1616 c 128,-1,43
 988 1645 988 1645 992 1659.5 c 128,-1,44
 996 1674 996 1674 1004 1708 c 1,45,-1
 1298 1708 l 1,46,47
 1271 1586 1271 1586 1159 1511 c 128,-1,48
 1047 1436 1047 1436 846 1436 c 0,49,50
 675 1436 675 1436 582 1498.5 c 128,-1,51
 489 1561 489 1561 489 1653 c 0,52,53
 489 1673 489 1673 496 1708 c 1,54,-1
 801 1708 l 1,32,33
EndSplineSet
Validated: 8388609
Position2: "'cpsp' Capital Spacing lookup 3 subtable" dx=10 dy=0 dh=20 dv=0
EndChar

StartChar: Ocircumflex
Encoding: 212 212 89
Width: 1411
Flags: MW
HStem: -41 145<553 674 553 833> 1249 143<736 857>
VStem: 45 444<232 761> 922 444<592 1121>
LayerCount: 2
Fore
SplineSet
809 1249 m 0,0,1
 700 1249 700 1249 631.5 1104.5 c 128,-1,2
 563 960 563 960 520 641 c 0,3,4
 489 406 489 406 489 283 c 0,5,6
 489 197 489 197 512 150.5 c 128,-1,7
 535 104 535 104 600 104 c 0,8,9
 710 104 710 104 779 248.5 c 128,-1,10
 848 393 848 393 891 713 c 0,11,12
 922 948 922 948 922 1071 c 0,13,14
 922 1157 922 1157 898.5 1203 c 128,-1,15
 875 1249 875 1249 809 1249 c 0,0,1
836 1393 m 0,16,17
 1366 1393 1366 1393 1366 827 c 0,18,19
 1366 685 1366 685 1333.5 556 c 128,-1,20
 1301 427 1301 427 1235 318 c 128,-1,21
 1169 209 1169 209 1076 129 c 128,-1,22
 983 49 983 49 854.5 4 c 128,-1,23
 726 -41 726 -41 575 -41 c 0,24,25
 45 -41 45 -41 45 526 c 0,26,27
 45 667 45 667 77.5 796 c 128,-1,28
 110 925 110 925 176 1034 c 128,-1,29
 242 1143 242 1143 335 1223 c 128,-1,30
 428 1303 428 1303 556.5 1348 c 128,-1,31
 685 1393 685 1393 836 1393 c 0,16,17
1090 1407 m 1,32,-1
 852 1513 l 1,33,-1
 549 1407 l 1,34,-1
 485 1501 l 1,35,-1
 827 1739 l 1,36,-1
 920 1739 l 1,37,-1
 1192 1501 l 1,38,-1
 1090 1407 l 1,32,-1
EndSplineSet
Validated: 1
Position2: "'cpsp' Capital Spacing lookup 3 subtable" dx=10 dy=0 dh=20 dv=0
EndChar

StartChar: Odieresis
Encoding: 214 214 90
Width: 1411
Flags: MW
HStem: -41 145<553 674 553 833> 1249 143<736 857> 1413 311<570 683 1050 1162>
VStem: 45 444<232 761> 414 420<1518 1617> 893 420<1518 1617> 922 444<592 1121>
LayerCount: 2
Fore
SplineSet
809 1249 m 0,0,1
 700 1249 700 1249 631.5 1104.5 c 128,-1,2
 563 960 563 960 520 641 c 0,3,4
 489 406 489 406 489 283 c 0,5,6
 489 197 489 197 512 150.5 c 128,-1,7
 535 104 535 104 600 104 c 0,8,9
 710 104 710 104 779 248.5 c 128,-1,10
 848 393 848 393 891 713 c 0,11,12
 922 948 922 948 922 1071 c 0,13,14
 922 1157 922 1157 898.5 1203 c 128,-1,15
 875 1249 875 1249 809 1249 c 0,0,1
836 1393 m 0,16,17
 1366 1393 1366 1393 1366 827 c 0,18,19
 1366 685 1366 685 1333.5 556 c 128,-1,20
 1301 427 1301 427 1235 318 c 128,-1,21
 1169 209 1169 209 1076 129 c 128,-1,22
 983 49 983 49 854.5 4 c 128,-1,23
 726 -41 726 -41 575 -41 c 0,24,25
 45 -41 45 -41 45 526 c 0,26,27
 45 667 45 667 77.5 796 c 128,-1,28
 110 925 110 925 176 1034 c 128,-1,29
 242 1143 242 1143 335 1223 c 128,-1,30
 428 1303 428 1303 556.5 1348 c 128,-1,31
 685 1393 685 1393 836 1393 c 0,16,17
1110 1724 m 0,32,33
 1203 1724 1203 1724 1258 1683.5 c 128,-1,34
 1313 1643 1313 1643 1313 1569 c 128,-1,35
 1313 1495 1313 1495 1254.5 1454 c 128,-1,36
 1196 1413 1196 1413 1102 1413 c 0,37,38
 1009 1413 1009 1413 951 1453 c 128,-1,39
 893 1493 893 1493 893 1565 c 0,40,41
 893 1640 893 1640 954 1682 c 128,-1,42
 1015 1724 1015 1724 1110 1724 c 0,32,33
631 1724 m 0,43,44
 724 1724 724 1724 779 1683.5 c 128,-1,45
 834 1643 834 1643 834 1569 c 128,-1,46
 834 1495 834 1495 775.5 1454 c 128,-1,47
 717 1413 717 1413 623 1413 c 0,48,49
 530 1413 530 1413 472 1453 c 128,-1,50
 414 1493 414 1493 414 1565 c 0,51,52
 414 1640 414 1640 475 1682 c 128,-1,53
 536 1724 536 1724 631 1724 c 0,43,44
EndSplineSet
Validated: 8388609
Position2: "'cpsp' Capital Spacing lookup 3 subtable" dx=10 dy=0 dh=20 dv=0
EndChar

StartChar: Odotbelow
Encoding: 7884 7884 91
Width: 1411
Flags: MW
HStem: -397 311<519 632> -41 145<553 674 553 833> 1249 143<736 857>
VStem: 45 444<232 761> 362 422<-293 -194> 922 444<592 1121>
LayerCount: 2
Fore
SplineSet
580 -86 m 0,0,1
 673 -86 673 -86 728.5 -127 c 128,-1,2
 784 -168 784 -168 784 -242 c 128,-1,3
 784 -316 784 -316 724.5 -356.5 c 128,-1,4
 665 -397 665 -397 571 -397 c 0,5,6
 478 -397 478 -397 420 -357.5 c 128,-1,7
 362 -318 362 -318 362 -246 c 0,8,9
 362 -171 362 -171 423.5 -128.5 c 128,-1,10
 485 -86 485 -86 580 -86 c 0,0,1
809 1249 m 0,11,12
 700 1249 700 1249 631.5 1104.5 c 128,-1,13
 563 960 563 960 520 641 c 0,14,15
 489 406 489 406 489 283 c 0,16,17
 489 197 489 197 512 150.5 c 128,-1,18
 535 104 535 104 600 104 c 0,19,20
 710 104 710 104 779 248.5 c 128,-1,21
 848 393 848 393 891 713 c 0,22,23
 922 948 922 948 922 1071 c 0,24,25
 922 1157 922 1157 898.5 1203 c 128,-1,26
 875 1249 875 1249 809 1249 c 0,11,12
836 1393 m 0,27,28
 1366 1393 1366 1393 1366 827 c 0,29,30
 1366 685 1366 685 1333.5 556 c 128,-1,31
 1301 427 1301 427 1235 318 c 128,-1,32
 1169 209 1169 209 1076 129 c 128,-1,33
 983 49 983 49 854.5 4 c 128,-1,34
 726 -41 726 -41 575 -41 c 0,35,36
 45 -41 45 -41 45 526 c 0,37,38
 45 667 45 667 77.5 796 c 128,-1,39
 110 925 110 925 176 1034 c 128,-1,40
 242 1143 242 1143 335 1223 c 128,-1,41
 428 1303 428 1303 556.5 1348 c 128,-1,42
 685 1393 685 1393 836 1393 c 0,27,28
EndSplineSet
Validated: 8388609
Position2: "'cpsp' Capital Spacing lookup 3 subtable" dx=10 dy=0 dh=20 dv=0
EndChar

StartChar: Ograve
Encoding: 210 210 92
Width: 1411
Flags: MW
HStem: -41 145<553 674 553 833> 1249 143<736 857>
VStem: 45 444<232 761> 922 444<592 1121>
LayerCount: 2
Fore
SplineSet
809 1249 m 0,0,1
 700 1249 700 1249 631.5 1104.5 c 128,-1,2
 563 960 563 960 520 641 c 0,3,4
 489 406 489 406 489 283 c 0,5,6
 489 197 489 197 512 150.5 c 128,-1,7
 535 104 535 104 600 104 c 0,8,9
 710 104 710 104 779 248.5 c 128,-1,10
 848 393 848 393 891 713 c 0,11,12
 922 948 922 948 922 1071 c 0,13,14
 922 1157 922 1157 898.5 1203 c 128,-1,15
 875 1249 875 1249 809 1249 c 0,0,1
836 1393 m 0,16,17
 1366 1393 1366 1393 1366 827 c 0,18,19
 1366 685 1366 685 1333.5 556 c 128,-1,20
 1301 427 1301 427 1235 318 c 128,-1,21
 1169 209 1169 209 1076 129 c 128,-1,22
 983 49 983 49 854.5 4 c 128,-1,23
 726 -41 726 -41 575 -41 c 0,24,25
 45 -41 45 -41 45 526 c 0,26,27
 45 667 45 667 77.5 796 c 128,-1,28
 110 925 110 925 176 1034 c 128,-1,29
 242 1143 242 1143 335 1223 c 128,-1,30
 428 1303 428 1303 556.5 1348 c 128,-1,31
 685 1393 685 1393 836 1393 c 0,16,17
1051 1456 m 1,32,-1
 807 1464 l 2,33,34
 747 1466 747 1466 697.5 1476.5 c 128,-1,35
 648 1487 648 1487 606 1508 c 128,-1,36
 564 1529 564 1529 540 1566.5 c 128,-1,37
 516 1604 516 1604 516 1655 c 0,38,39
 516 1723 516 1723 573 1765 c 1,40,-1
 1075 1556 l 1,41,-1
 1051 1456 l 1,32,-1
EndSplineSet
Validated: 1
Position2: "'cpsp' Capital Spacing lookup 3 subtable" dx=10 dy=0 dh=20 dv=0
EndChar

StartChar: Ohungarumlaut
Encoding: 336 336 93
Width: 1411
Flags: MW
HStem: -41 145<553 674 553 833> 1249 143<736 857>
VStem: 45 444<232 761> 922 444<592 1121>
LayerCount: 2
Fore
SplineSet
809 1249 m 0,0,1
 700 1249 700 1249 631.5 1104.5 c 128,-1,2
 563 960 563 960 520 641 c 0,3,4
 489 406 489 406 489 283 c 0,5,6
 489 197 489 197 512 150.5 c 128,-1,7
 535 104 535 104 600 104 c 0,8,9
 710 104 710 104 779 248.5 c 128,-1,10
 848 393 848 393 891 713 c 0,11,12
 922 948 922 948 922 1071 c 0,13,14
 922 1157 922 1157 898.5 1203 c 128,-1,15
 875 1249 875 1249 809 1249 c 0,0,1
836 1393 m 0,16,17
 1366 1393 1366 1393 1366 827 c 0,18,19
 1366 685 1366 685 1333.5 556 c 128,-1,20
 1301 427 1301 427 1235 318 c 128,-1,21
 1169 209 1169 209 1076 129 c 128,-1,22
 983 49 983 49 854.5 4 c 128,-1,23
 726 -41 726 -41 575 -41 c 0,24,25
 45 -41 45 -41 45 526 c 0,26,27
 45 667 45 667 77.5 796 c 128,-1,28
 110 925 110 925 176 1034 c 128,-1,29
 242 1143 242 1143 335 1223 c 128,-1,30
 428 1303 428 1303 556.5 1348 c 128,-1,31
 685 1393 685 1393 836 1393 c 0,16,17
1323 1755 m 1,32,33
 1363 1735 1363 1735 1387 1706.5 c 128,-1,34
 1411 1678 1411 1678 1411 1645 c 0,35,36
 1411 1571 1411 1571 1359 1534.5 c 128,-1,37
 1307 1498 1307 1498 1180 1468 c 2,38,-1
 1001 1427 l 1,39,-1
 942 1497 l 1,40,-1
 1323 1755 l 1,32,33
874 1755 m 1,41,42
 915 1736 915 1736 940 1706 c 128,-1,43
 965 1676 965 1676 965 1642 c 0,44,45
 965 1568 965 1568 912.5 1532 c 128,-1,46
 860 1496 860 1496 733 1468 c 2,47,-1
 551 1427 l 1,48,-1
 494 1497 l 1,49,-1
 874 1755 l 1,41,42
EndSplineSet
Validated: 1
Position2: "'cpsp' Capital Spacing lookup 3 subtable" dx=10 dy=0 dh=20 dv=0
EndChar

StartChar: Omacron
Encoding: 332 332 94
Width: 1411
Flags: MW
HStem: -41 145<553 674 553 833> 1249 143<736 857> 1516 188<676 1022 543 1169>
VStem: 45 444<232 761> 922 444<592 1121>
LayerCount: 2
Fore
SplineSet
809 1249 m 0,0,1
 700 1249 700 1249 631.5 1104.5 c 128,-1,2
 563 960 563 960 520 641 c 0,3,4
 489 406 489 406 489 283 c 0,5,6
 489 197 489 197 512 150.5 c 128,-1,7
 535 104 535 104 600 104 c 0,8,9
 710 104 710 104 779 248.5 c 128,-1,10
 848 393 848 393 891 713 c 0,11,12
 922 948 922 948 922 1071 c 0,13,14
 922 1157 922 1157 898.5 1203 c 128,-1,15
 875 1249 875 1249 809 1249 c 0,0,1
836 1393 m 0,16,17
 1366 1393 1366 1393 1366 827 c 0,18,19
 1366 685 1366 685 1333.5 556 c 128,-1,20
 1301 427 1301 427 1235 318 c 128,-1,21
 1169 209 1169 209 1076 129 c 128,-1,22
 983 49 983 49 854.5 4 c 128,-1,23
 726 -41 726 -41 575 -41 c 0,24,25
 45 -41 45 -41 45 526 c 0,26,27
 45 667 45 667 77.5 796 c 128,-1,28
 110 925 110 925 176 1034 c 128,-1,29
 242 1143 242 1143 335 1223 c 128,-1,30
 428 1303 428 1303 556.5 1348 c 128,-1,31
 685 1393 685 1393 836 1393 c 0,16,17
1169 1704 m 1,32,33
 1178 1668 1178 1668 1178 1647 c 0,34,35
 1178 1589 1178 1589 1137.5 1552.5 c 128,-1,36
 1097 1516 1097 1516 1022 1516 c 2,37,-1
 543 1516 l 1,38,39
 537 1534 537 1534 537 1571 c 0,40,41
 538 1631 538 1631 577 1667.5 c 128,-1,42
 616 1704 616 1704 676 1704 c 2,43,-1
 1169 1704 l 1,32,33
EndSplineSet
Validated: 1
Position2: "'cpsp' Capital Spacing lookup 3 subtable" dx=10 dy=0 dh=20 dv=0
EndChar

StartChar: Oogonek
Encoding: 490 490 95
Width: 1411
Flags: MW
HStem: -528 172<771 818> -41 145<553 575 575 618> 1249 143<736 857>
VStem: 45 444<232 761> 477 229<-288 -242> 922 444<645 1121>
LayerCount: 2
Fore
SplineSet
489 283 m 0,0,1
 489 197 489 197 512 150.5 c 128,-1,2
 535 104 535 104 600 104 c 0,3,4
 710 104 710 104 779 248.5 c 128,-1,5
 848 393 848 393 891 713 c 0,6,7
 922 948 922 948 922 1071 c 0,8,9
 922 1157 922 1157 898.5 1203 c 128,-1,10
 875 1249 875 1249 809 1249 c 0,11,12
 700 1249 700 1249 631.5 1104.5 c 128,-1,13
 563 960 563 960 520 641 c 0,14,15
 489 406 489 406 489 283 c 0,0,1
887 16 m 1,16,17
 808 -39 808 -39 757.5 -110 c 128,-1,18
 707 -181 707 -181 707 -252 c 0,19,20
 707 -356 707 -356 803 -356 c 0,21,22
 885 -356 885 -356 930 -305 c 1,23,24
 950 -330 950 -330 958.5 -350 c 128,-1,25
 967 -370 967 -370 967 -401 c 0,26,27
 967 -455 967 -455 908 -491.5 c 128,-1,28
 849 -528 849 -528 745 -528 c 0,29,30
 618 -528 618 -528 547.5 -469.5 c 128,-1,31
 477 -411 477 -411 477 -299 c 0,32,33
 477 -140 477 -140 618 -41 c 1,34,-1
 575 -41 l 2,35,36
 45 -41 45 -41 45 526 c 0,37,38
 45 667 45 667 77.5 796 c 128,-1,39
 110 925 110 925 176 1034 c 128,-1,40
 242 1143 242 1143 335 1223 c 128,-1,41
 428 1303 428 1303 556.5 1348 c 128,-1,42
 685 1393 685 1393 836 1393 c 0,43,44
 1366 1393 1366 1393 1366 827 c 0,45,46
 1366 546 1366 546 1241 327 c 128,-1,47
 1116 108 1116 108 887 16 c 1,16,17
EndSplineSet
Validated: 8388609
Position2: "'cpsp' Capital Spacing lookup 3 subtable" dx=10 dy=0 dh=20 dv=0
EndChar

StartChar: Oslash
Encoding: 216 216 96
Width: 1411
Flags: MW
HStem: -41 145<554 720 554 833> 1249 143<737 853>
VStem: 897 469<768 768>
LayerCount: 2
Fore
SplineSet
489 281 m 2,0,1
 489 196 489 196 512.5 150 c 128,-1,2
 536 104 536 104 602 104 c 0,3,4
 647 104 647 104 686 130 c 128,-1,5
 725 156 725 156 752 196.5 c 128,-1,6
 779 237 779 237 802 295 c 128,-1,7
 825 353 825 353 839 408.5 c 128,-1,8
 853 464 853 464 864.5 529.5 c 128,-1,9
 876 595 876 595 882 640 c 128,-1,10
 888 685 888 685 892.848248984 732.218622974 c 0,11,12
 896 758 896 758 897 768 c 1,13,-1
 489 307 l 1,14,-1
 489 281 l 2,0,1
922 1102 m 1,15,16
 919 1172 919 1172 894.5 1210.5 c 128,-1,17
 870 1249 870 1249 811 1249 c 0,18,19
 701 1249 701 1249 632 1107 c 128,-1,20
 563 965 563 965 520 649 c 1,21,-1
 922 1102 l 1,15,16
1276 1194 m 1,22,23
 1366 1057 1366 1057 1366 827 c 0,24,25
 1366 685 1366 685 1333.5 556 c 128,-1,26
 1301 427 1301 427 1235 318 c 128,-1,27
 1169 209 1169 209 1076 129 c 128,-1,28
 983 49 983 49 854.5 4 c 128,-1,29
 726 -41 726 -41 575 -41 c 0,30,31
 377 -41 377 -41 250 39 c 1,32,33
 177 -40 177 -40 133 -119 c 1,34,35
 82 -119 82 -119 51 -85.5 c 128,-1,36
 20 -52 20 -52 18 4 c 1,37,38
 18 77 18 77 68 133 c 2,39,-1
 117 188 l 1,40,41
 45 320 45 320 45 526 c 0,42,43
 45 667 45 667 77.5 796 c 128,-1,44
 110 925 110 925 176 1034 c 128,-1,45
 242 1143 242 1143 335 1223 c 128,-1,46
 428 1303 428 1303 556.5 1348 c 128,-1,47
 685 1393 685 1393 836 1393 c 0,48,49
 1010 1393 1010 1393 1124 1333 c 1,50,51
 1197 1417 1197 1417 1235 1477 c 1,52,53
 1279 1477 1279 1477 1315.5 1434 c 128,-1,54
 1352 1391 1352 1391 1352 1339 c 0,55,56
 1352 1274 1352 1274 1298 1217 c 2,57,-1
 1276 1194 l 1,22,23
EndSplineSet
Validated: 524289
Position2: "'cpsp' Capital Spacing lookup 3 subtable" dx=10 dy=0 dh=20 dv=0
EndChar

StartChar: Oslashacute
Encoding: 510 510 97
Width: 1411
Flags: MW
HStem: -41 145<554 720 554 833> 1249 143<737 853>
VStem: 18 1348<4 904> 897 469<768 768>
LayerCount: 2
Fore
SplineSet
489 281 m 2,0,1
 489 196 489 196 512.5 150 c 128,-1,2
 536 104 536 104 602 104 c 0,3,4
 647 104 647 104 686 130 c 128,-1,5
 725 156 725 156 752 196.5 c 128,-1,6
 779 237 779 237 802 295 c 128,-1,7
 825 353 825 353 839 408.5 c 128,-1,8
 853 464 853 464 864.5 529.5 c 128,-1,9
 876 595 876 595 882 640 c 128,-1,10
 888 685 888 685 892.848248984 732.218622974 c 0,11,12
 896 758 896 758 897 768 c 1,13,-1
 489 307 l 1,14,-1
 489 281 l 2,0,1
922 1102 m 1,15,16
 919 1172 919 1172 894.5 1210.5 c 128,-1,17
 870 1249 870 1249 811 1249 c 0,18,19
 701 1249 701 1249 632 1107 c 128,-1,20
 563 965 563 965 520 649 c 1,21,-1
 922 1102 l 1,15,16
1276 1194 m 1,22,23
 1366 1057 1366 1057 1366 827 c 0,24,25
 1366 685 1366 685 1333.5 556 c 128,-1,26
 1301 427 1301 427 1235 318 c 128,-1,27
 1169 209 1169 209 1076 129 c 128,-1,28
 983 49 983 49 854.5 4 c 128,-1,29
 726 -41 726 -41 575 -41 c 0,30,31
 377 -41 377 -41 250 39 c 1,32,33
 177 -40 177 -40 133 -119 c 1,34,35
 82 -119 82 -119 51 -85.5 c 128,-1,36
 20 -52 20 -52 18 4 c 1,37,38
 18 77 18 77 68 133 c 2,39,-1
 117 188 l 1,40,41
 45 320 45 320 45 526 c 0,42,43
 45 667 45 667 77.5 796 c 128,-1,44
 110 925 110 925 176 1034 c 128,-1,45
 242 1143 242 1143 335 1223 c 128,-1,46
 428 1303 428 1303 556.5 1348 c 128,-1,47
 685 1393 685 1393 836 1393 c 0,48,49
 1010 1393 1010 1393 1124 1333 c 1,50,51
 1197 1417 1197 1417 1235 1477 c 1,52,53
 1279 1477 1279 1477 1315.5 1434 c 128,-1,54
 1352 1391 1352 1391 1352 1339 c 0,55,56
 1352 1274 1352 1274 1298 1217 c 2,57,-1
 1276 1194 l 1,22,23
643 1554 m 1,58,-1
 1145 1763 l 1,59,60
 1202 1721 1202 1721 1202 1653 c 0,61,62
 1202 1602 1202 1602 1178 1564.5 c 128,-1,63
 1154 1527 1154 1527 1112 1506 c 128,-1,64
 1070 1485 1070 1485 1020.5 1474.5 c 128,-1,65
 971 1464 971 1464 911 1462 c 2,66,-1
 668 1454 l 1,67,-1
 643 1554 l 1,58,-1
EndSplineSet
Validated: 8912897
Position2: "'cpsp' Capital Spacing lookup 3 subtable" dx=10 dy=0 dh=20 dv=0
EndChar

StartChar: Otilde
Encoding: 213 213 98
Width: 1411
Flags: MW
HStem: -41 145<553 674 553 833> 1249 143<736 857> 1479 221<1044 1117 1044 1117> 1516 219<610 680>
VStem: 45 444<232 761> 922 444<592 1121>
LayerCount: 2
Fore
SplineSet
809 1249 m 0,0,1
 700 1249 700 1249 631.5 1104.5 c 128,-1,2
 563 960 563 960 520 641 c 0,3,4
 489 406 489 406 489 283 c 0,5,6
 489 197 489 197 512 150.5 c 128,-1,7
 535 104 535 104 600 104 c 0,8,9
 710 104 710 104 779 248.5 c 128,-1,10
 848 393 848 393 891 713 c 0,11,12
 922 948 922 948 922 1071 c 0,13,14
 922 1157 922 1157 898.5 1203 c 128,-1,15
 875 1249 875 1249 809 1249 c 0,0,1
836 1393 m 0,16,17
 1366 1393 1366 1393 1366 827 c 0,18,19
 1366 685 1366 685 1333.5 556 c 128,-1,20
 1301 427 1301 427 1235 318 c 128,-1,21
 1169 209 1169 209 1076 129 c 128,-1,22
 983 49 983 49 854.5 4 c 128,-1,23
 726 -41 726 -41 575 -41 c 0,24,25
 45 -41 45 -41 45 526 c 0,26,27
 45 667 45 667 77.5 796 c 128,-1,28
 110 925 110 925 176 1034 c 128,-1,29
 242 1143 242 1143 335 1223 c 128,-1,30
 428 1303 428 1303 556.5 1348 c 128,-1,31
 685 1393 685 1393 836 1393 c 0,16,17
1214 1735 m 1,32,33
 1253 1688 1253 1688 1253 1630 c 0,34,35
 1253 1557 1253 1557 1201 1518 c 128,-1,36
 1149 1479 1149 1479 1057 1479 c 0,37,38
 1006 1479 1006 1479 842 1497.5 c 128,-1,39
 678 1516 678 1516 639 1516 c 0,40,41
 557 1516 557 1516 502 1481 c 1,42,43
 461 1539 461 1539 461 1597 c 0,44,45
 461 1663 461 1663 513.5 1699 c 128,-1,46
 566 1735 566 1735 664 1735 c 0,47,48
 723 1735 723 1735 885 1717.5 c 128,-1,49
 1047 1700 1047 1700 1092 1700 c 0,50,51
 1179 1700 1179 1700 1214 1735 c 1,32,33
EndSplineSet
Validated: 8388609
Position2: "'cpsp' Capital Spacing lookup 3 subtable" dx=10 dy=0 dh=20 dv=0
EndChar

StartChar: OE
Encoding: 338 338 99
Width: 1781
Flags: MW
HStem: -41 145<553 651> -41 291<1375 1401> 563 229<1449 1545> 1096 256<1559 1663> 1151 201<1352 1352> 1249 143<736 857>
VStem: 45 444<329 332 232 754>
LayerCount: 2
Fore
SplineSet
600 104 m 0,0,1
 710 104 710 104 779 248.5 c 128,-1,2
 848 393 848 393 891 713 c 0,3,4
 922 948 922 948 922 1071 c 0,5,6
 922 1157 922 1157 898.5 1203 c 128,-1,7
 875 1249 875 1249 809 1249 c 0,8,9
 700 1249 700 1249 631.5 1104.5 c 128,-1,10
 563 960 563 960 520 641 c 0,11,12
 489 406 489 406 489 283 c 0,13,14
 489 197 489 197 512 150.5 c 128,-1,15
 535 104 535 104 600 104 c 0,0,1
1690 793 m 1,16,17
 1690 681 1690 681 1635 622 c 128,-1,18
 1580 563 1580 563 1479 563 c 0,19,20
 1367 563 1367 563 1278 610 c 1,21,22
 1253 474 1253 474 1253 414 c 0,23,24
 1253 319 1253 319 1296 284.5 c 128,-1,25
 1339 250 1339 250 1440 250 c 0,26,27
 1564 250 1564 250 1651 283 c 1,28,29
 1669 238 1669 238 1669 184 c 0,30,31
 1669 131 1669 131 1648 90.5 c 128,-1,32
 1627 50 1627 50 1593.5 26 c 128,-1,33
 1560 2 1560 2 1512.5 -14 c 128,-1,34
 1465 -30 1465 -30 1418.5 -35.5 c 128,-1,35
 1372 -41 1372 -41 1319 -41 c 0,36,37
 1195 -41 1195 -41 1115 -6.5 c 128,-1,38
 1035 28 1035 28 989 102 c 1,39,40
 850 -41 850 -41 575 -41 c 0,41,42
 45 -41 45 -41 45 520 c 0,43,44
 45 661 45 661 77 790 c 128,-1,45
 109 919 109 919 174.5 1029 c 128,-1,46
 240 1139 240 1139 332 1220 c 128,-1,47
 424 1301 424 1301 550 1347 c 128,-1,48
 676 1393 676 1393 823 1393 c 0,49,50
 966 1393 966 1393 1075 1352 c 1,51,-1
 1841 1352 l 1,52,53
 1841 1222 1841 1222 1772.5 1159 c 128,-1,54
 1704 1096 1704 1096 1593 1096 c 0,55,56
 1468 1096 1468 1096 1352 1151 c 1,57,-1
 1303 793 l 1,58,-1
 1690 793 l 1,16,17
EndSplineSet
Validated: 8388609
Position2: "'cpsp' Capital Spacing lookup 3 subtable" dx=10 dy=0 dh=20 dv=0
EndChar

StartChar: P
Encoding: 80 80 100
Width: 1273
Flags: MW
HStem: 555 119 1229 135<732 811>
VStem: 942 395<937 1098>
LayerCount: 2
Fore
SplineSet
-12 0 m 1,0,-1
 246 1352 l 1,1,2
 307 1354 307 1354 373.5 1357.5 c 128,-1,3
 440 1361 440 1361 491 1362.5 c 128,-1,4
 542 1364 542 1364 623 1364 c 0,5,6
 729 1364 729 1364 806.5 1361 c 128,-1,7
 884 1358 884 1358 963 1349 c 128,-1,8
 1042 1340 1042 1340 1096 1323.5 c 128,-1,9
 1150 1307 1150 1307 1198.5 1280.5 c 128,-1,10
 1247 1254 1247 1254 1275.5 1216.5 c 128,-1,11
 1304 1179 1304 1179 1320.5 1126.5 c 128,-1,12
 1337 1074 1337 1074 1337 1006 c 0,13,14
 1337 797 1337 797 1201 676 c 128,-1,15
 1065 555 1065 555 856 555 c 0,16,17
 650 555 650 555 606 674 c 1,18,19
 649 674 649 674 680 682 c 1,20,21
 802 702 802 702 872 796.5 c 128,-1,22
 942 891 942 891 942 1024 c 0,23,24
 942 1132 942 1132 893.5 1180.5 c 128,-1,25
 845 1229 845 1229 745 1229 c 0,26,27
 691 1229 691 1229 664 1223 c 1,28,-1
 430 0 l 1,29,-1
 -12 0 l 1,0,-1
EndSplineSet
Validated: 1
Position2: "'cpsp' Capital Spacing lookup 3 subtable" dx=10 dy=0 dh=20 dv=0
EndChar

StartChar: Thorn
Encoding: 222 222 101
Width: 1206
Flags: MW
HStem: 293 119 967 135<707 761> 967 385<682 692 246 761>
VStem: 893 395<664 835>
LayerCount: 2
Fore
SplineSet
643 1100 m 1,0,1
 663 1102 663 1102 719 1102 c 0,2,3
 822 1102 822 1102 901.5 1093.5 c 128,-1,4
 981 1085 981 1085 1056.5 1061.5 c 128,-1,5
 1132 1038 1132 1038 1180.5 998.5 c 128,-1,6
 1229 959 1229 959 1258.5 893.5 c 128,-1,7
 1288 828 1288 828 1288 739 c 0,8,9
 1288 536 1288 536 1153 414.5 c 128,-1,10
 1018 293 1018 293 807 293 c 0,11,12
 601 293 601 293 557 412 c 1,13,14
 576 412 576 412 608 416 c 0,15,16
 741 433 741 433 817 524.5 c 128,-1,17
 893 616 893 616 893 760 c 0,18,19
 893 870 893 870 844.5 918.5 c 128,-1,20
 796 967 796 967 694 967 c 0,21,22
 646 967 646 967 616 961 c 1,23,-1
 430 0 l 1,24,-1
 -14 0 l 1,25,-1
 246 1352 l 1,26,-1
 692 1352 l 1,27,-1
 643 1100 l 1,0,1
EndSplineSet
Validated: 8388609
Position2: "'cpsp' Capital Spacing lookup 3 subtable" dx=10 dy=0 dh=20 dv=0
EndChar

StartChar: Q
Encoding: 81 81 102
Width: 1415
Flags: MW
HStem: -377 301<905 1028 905 1062> -68 41G -53 41G 170 137 1249 143<767 877>
VStem: 59 442<441 517 432 793> 936 444<1016 1021 615 1111>
LayerCount: 2
Fore
SplineSet
854 1393 m 0,0,1
 1111 1393 1111 1393 1245.5 1252.5 c 128,-1,2
 1380 1112 1380 1112 1380 831 c 0,3,4
 1380 672 1380 672 1323.5 520.5 c 128,-1,5
 1267 369 1267 369 1172 254 c 128,-1,6
 1077 139 1077 139 946.5 63 c 128,-1,7
 816 -13 816 -13 674 -27 c 1,8,9
 815 -76 815 -76 973 -76 c 0,10,11
 1148 -76 1148 -76 1264 -12 c 1,12,13
 1288 -59 1288 -59 1288 -135 c 0,14,15
 1288 -201 1288 -201 1261.5 -250 c 128,-1,16
 1235 -299 1235 -299 1190.5 -325.5 c 128,-1,17
 1146 -352 1146 -352 1097 -364.5 c 128,-1,18
 1048 -377 1048 -377 995 -377 c 0,19,20
 912 -377 912 -377 827.5 -355 c 128,-1,21
 743 -333 743 -333 685 -306.5 c 128,-1,22
 627 -280 627 -280 550 -258 c 128,-1,23
 473 -236 473 -236 403 -236 c 0,24,25
 291 -236 291 -236 215 -287 c 1,26,27
 154 -215 154 -215 154 -125 c 0,28,29
 154 -99 154 -99 159 -77 c 128,-1,30
 164 -55 164 -55 171.5 -38 c 128,-1,31
 179 -21 179 -21 194.5 -7 c 128,-1,32
 210 7 210 7 223.5 17 c 128,-1,33
 237 27 237 27 262.5 35.5 c 128,-1,34
 288 44 288 44 306.5 49.5 c 128,-1,35
 325 55 325 55 359 61 c 128,-1,36
 393 67 393 67 416 70 c 128,-1,37
 439 73 439 73 481 78 c 0,38,39
 540 85 540 85 588 104 c 128,-1,40
 636 123 636 123 686 167 c 128,-1,41
 736 211 736 211 775 279 c 128,-1,42
 814 347 814 347 848 457 c 128,-1,43
 882 567 882 567 905 713 c 0,44,45
 936 916 936 916 936 1059 c 0,46,47
 936 1149 936 1149 914.5 1199 c 128,-1,48
 893 1249 893 1249 834 1249 c 0,49,50
 786 1249 786 1249 742 1213.5 c 128,-1,51
 698 1178 698 1178 663 1115.5 c 128,-1,52
 628 1053 628 1053 600.5 977.5 c 128,-1,53
 573 902 573 902 551 813 c 0,54,55
 502 615 502 615 502 467 c 0,56,57
 502 436 502 436 505 412.5 c 128,-1,58
 508 389 508 389 517.5 364 c 128,-1,59
 527 339 527 339 547 324 c 128,-1,60
 567 309 567 309 598 307 c 1,61,62
 598 245 598 245 539.5 207.5 c 128,-1,63
 481 170 481 170 381 170 c 0,64,65
 59 170 59 170 59 569 c 0,66,67
 59 702 59 702 94.5 825.5 c 128,-1,68
 130 949 130 949 198.5 1052 c 128,-1,69
 267 1155 267 1155 362.5 1231.5 c 128,-1,70
 458 1308 458 1308 584 1350.5 c 128,-1,71
 710 1393 710 1393 854 1393 c 0,0,1
EndSplineSet
Validated: 8388609
Position2: "'cpsp' Capital Spacing lookup 3 subtable" dx=10 dy=0 dh=20 dv=0
EndChar

StartChar: R
Encoding: 82 82 103
Width: 1310
Flags: MW
HStem: 1229 133<722 805>
VStem: 915 395<912 1085>
LayerCount: 2
Fore
SplineSet
246 1352 m 1,0,1
 716 1362 716 1362 717 1362 c 0,2,3
 796 1362 796 1362 856 1359 c 128,-1,4
 916 1356 916 1356 981 1347 c 128,-1,5
 1046 1338 1046 1338 1092.5 1323 c 128,-1,6
 1139 1308 1139 1308 1182.5 1281.5 c 128,-1,7
 1226 1255 1226 1255 1252.5 1219 c 128,-1,8
 1279 1183 1279 1183 1295 1131 c 128,-1,9
 1311 1079 1311 1079 1311 1014 c 0,10,11
 1311 850 1311 850 1221 740.5 c 128,-1,12
 1131 631 1131 631 979 598 c 1,13,14
 1106 196 1106 196 1278 121 c 1,15,16
 1223 -41 1223 -41 1036 -41 c 0,17,18
 975 -41 975 -41 925 -21 c 128,-1,19
 875 -1 875 -1 838 27.5 c 128,-1,20
 801 56 801 56 768 115 c 128,-1,21
 735 174 735 174 714.5 223 c 128,-1,22
 694 272 694 272 670 363.5 c 128,-1,23
 646 455 646 455 632.5 518.5 c 128,-1,24
 619 582 619 582 596 698 c 1,25,-1
 612 698 l 2,26,27
 758 698 758 698 836.5 779.5 c 128,-1,28
 915 861 915 861 915 1018 c 0,29,30
 915 1124 915 1124 874.5 1176.5 c 128,-1,31
 834 1229 834 1229 739 1229 c 0,32,33
 680 1229 680 1229 666 1227 c 1,34,-1
 430 0 l 1,35,-1
 -6 0 l 1,36,-1
 246 1352 l 1,0,1
EndSplineSet
Validated: 1
Position2: "'cpsp' Capital Spacing lookup 3 subtable" dx=10 dy=0 dh=20 dv=0
EndChar

StartChar: Racute
Encoding: 340 340 104
Width: 1310
Flags: MW
HStem: 1229 133<722 805>
VStem: 915 395<912 1085>
LayerCount: 2
Fore
SplineSet
246 1352 m 1,0,1
 716 1362 716 1362 717 1362 c 0,2,3
 796 1362 796 1362 856 1359 c 128,-1,4
 916 1356 916 1356 981 1347 c 128,-1,5
 1046 1338 1046 1338 1092.5 1323 c 128,-1,6
 1139 1308 1139 1308 1182.5 1281.5 c 128,-1,7
 1226 1255 1226 1255 1252.5 1219 c 128,-1,8
 1279 1183 1279 1183 1295 1131 c 128,-1,9
 1311 1079 1311 1079 1311 1014 c 0,10,11
 1311 850 1311 850 1221 740.5 c 128,-1,12
 1131 631 1131 631 979 598 c 1,13,14
 1106 196 1106 196 1278 121 c 1,15,16
 1223 -41 1223 -41 1036 -41 c 0,17,18
 975 -41 975 -41 925 -21 c 128,-1,19
 875 -1 875 -1 838 27.5 c 128,-1,20
 801 56 801 56 768 115 c 128,-1,21
 735 174 735 174 714.5 223 c 128,-1,22
 694 272 694 272 670 363.5 c 128,-1,23
 646 455 646 455 632.5 518.5 c 128,-1,24
 619 582 619 582 596 698 c 1,25,-1
 612 698 l 2,26,27
 758 698 758 698 836.5 779.5 c 128,-1,28
 915 861 915 861 915 1018 c 0,29,30
 915 1124 915 1124 874.5 1176.5 c 128,-1,31
 834 1229 834 1229 739 1229 c 0,32,33
 680 1229 680 1229 666 1227 c 1,34,-1
 430 0 l 1,35,-1
 -6 0 l 1,36,-1
 246 1352 l 1,0,1
600 1554 m 1,37,-1
 1102 1763 l 1,38,39
 1159 1721 1159 1721 1159 1653 c 0,40,41
 1159 1602 1159 1602 1135 1564.5 c 128,-1,42
 1111 1527 1111 1527 1069 1506 c 128,-1,43
 1027 1485 1027 1485 977.5 1474.5 c 128,-1,44
 928 1464 928 1464 868 1462 c 2,45,-1
 625 1454 l 1,46,-1
 600 1554 l 1,37,-1
EndSplineSet
Validated: 1
Position2: "'cpsp' Capital Spacing lookup 3 subtable" dx=10 dy=0 dh=20 dv=0
EndChar

StartChar: Rcaron
Encoding: 344 344 105
Width: 1310
Flags: MW
HStem: 1229 133<722 805>
VStem: 915 395<912 1085>
LayerCount: 2
Fore
SplineSet
246 1352 m 1,0,1
 716 1362 716 1362 717 1362 c 0,2,3
 796 1362 796 1362 856 1359 c 128,-1,4
 916 1356 916 1356 981 1347 c 128,-1,5
 1046 1338 1046 1338 1092.5 1323 c 128,-1,6
 1139 1308 1139 1308 1182.5 1281.5 c 128,-1,7
 1226 1255 1226 1255 1252.5 1219 c 128,-1,8
 1279 1183 1279 1183 1295 1131 c 128,-1,9
 1311 1079 1311 1079 1311 1014 c 0,10,11
 1311 850 1311 850 1221 740.5 c 128,-1,12
 1131 631 1131 631 979 598 c 1,13,14
 1106 196 1106 196 1278 121 c 1,15,16
 1223 -41 1223 -41 1036 -41 c 0,17,18
 975 -41 975 -41 925 -21 c 128,-1,19
 875 -1 875 -1 838 27.5 c 128,-1,20
 801 56 801 56 768 115 c 128,-1,21
 735 174 735 174 714.5 223 c 128,-1,22
 694 272 694 272 670 363.5 c 128,-1,23
 646 455 646 455 632.5 518.5 c 128,-1,24
 619 582 619 582 596 698 c 1,25,-1
 612 698 l 2,26,27
 758 698 758 698 836.5 779.5 c 128,-1,28
 915 861 915 861 915 1018 c 0,29,30
 915 1124 915 1124 874.5 1176.5 c 128,-1,31
 834 1229 834 1229 739 1229 c 0,32,33
 680 1229 680 1229 666 1227 c 1,34,-1
 430 0 l 1,35,-1
 -6 0 l 1,36,-1
 246 1352 l 1,0,1
571 1749 m 1,37,-1
 811 1642 l 1,38,-1
 1114 1749 l 1,39,-1
 1178 1655 l 1,40,-1
 856 1417 l 1,41,-1
 721 1417 l 1,42,-1
 469 1655 l 1,43,-1
 571 1749 l 1,37,-1
EndSplineSet
Validated: 1
Position2: "'cpsp' Capital Spacing lookup 3 subtable" dx=10 dy=0 dh=20 dv=0
EndChar

StartChar: Rcommaaccent
Encoding: 342 342 106
Width: 1310
Flags: MW
HStem: 1229 133<722 805>
VStem: 465 274<-300 -222> 915 395<912 1085>
LayerCount: 2
Fore
SplineSet
739 -244 m 0,0,1
 739 -310 739 -310 707 -365.5 c 128,-1,2
 675 -421 675 -421 625.5 -455.5 c 128,-1,3
 576 -490 576 -490 520.5 -509 c 128,-1,4
 465 -528 465 -528 414 -528 c 0,5,6
 362 -528 362 -528 334 -520 c 1,7,8
 404 -443 404 -443 434.5 -384 c 128,-1,9
 465 -325 465 -325 465 -240 c 0,10,11
 465 -183 465 -183 444 -135 c 1,12,13
 459 -124 459 -124 500.5 -114 c 128,-1,14
 542 -104 542 -104 571 -104 c 0,15,16
 649 -104 649 -104 694 -143 c 128,-1,17
 739 -182 739 -182 739 -244 c 0,0,1
246 1352 m 1,18,19
 716 1362 716 1362 717 1362 c 0,20,21
 796 1362 796 1362 856 1359 c 128,-1,22
 916 1356 916 1356 981 1347 c 128,-1,23
 1046 1338 1046 1338 1092.5 1323 c 128,-1,24
 1139 1308 1139 1308 1182.5 1281.5 c 128,-1,25
 1226 1255 1226 1255 1252.5 1219 c 128,-1,26
 1279 1183 1279 1183 1295 1131 c 128,-1,27
 1311 1079 1311 1079 1311 1014 c 0,28,29
 1311 850 1311 850 1221 740.5 c 128,-1,30
 1131 631 1131 631 979 598 c 1,31,32
 1106 196 1106 196 1278 121 c 1,33,34
 1223 -41 1223 -41 1036 -41 c 0,35,36
 975 -41 975 -41 925 -21 c 128,-1,37
 875 -1 875 -1 838 27.5 c 128,-1,38
 801 56 801 56 768 115 c 128,-1,39
 735 174 735 174 714.5 223 c 128,-1,40
 694 272 694 272 670 363.5 c 128,-1,41
 646 455 646 455 632.5 518.5 c 128,-1,42
 619 582 619 582 596 698 c 1,43,-1
 612 698 l 2,44,45
 758 698 758 698 836.5 779.5 c 128,-1,46
 915 861 915 861 915 1018 c 0,47,48
 915 1124 915 1124 874.5 1176.5 c 128,-1,49
 834 1229 834 1229 739 1229 c 0,50,51
 680 1229 680 1229 666 1227 c 1,52,-1
 430 0 l 1,53,-1
 -6 0 l 1,54,-1
 246 1352 l 1,18,19
EndSplineSet
Validated: 1
Position2: "'cpsp' Capital Spacing lookup 3 subtable" dx=10 dy=0 dh=20 dv=0
EndChar

StartChar: Rdotbelow
Encoding: 7770 7770 107
Width: 1310
Flags: MW
HStem: -397 311<517 630> 1229 133<722 805>
VStem: 360 422<-293 -194> 915 395<912 1085>
LayerCount: 2
Fore
SplineSet
578 -86 m 0,0,1
 671 -86 671 -86 726.5 -127 c 128,-1,2
 782 -168 782 -168 782 -242 c 128,-1,3
 782 -316 782 -316 722.5 -356.5 c 128,-1,4
 663 -397 663 -397 569 -397 c 0,5,6
 476 -397 476 -397 418 -357.5 c 128,-1,7
 360 -318 360 -318 360 -246 c 0,8,9
 360 -171 360 -171 421.5 -128.5 c 128,-1,10
 483 -86 483 -86 578 -86 c 0,0,1
246 1352 m 1,11,12
 716 1362 716 1362 717 1362 c 0,13,14
 796 1362 796 1362 856 1359 c 128,-1,15
 916 1356 916 1356 981 1347 c 128,-1,16
 1046 1338 1046 1338 1092.5 1323 c 128,-1,17
 1139 1308 1139 1308 1182.5 1281.5 c 128,-1,18
 1226 1255 1226 1255 1252.5 1219 c 128,-1,19
 1279 1183 1279 1183 1295 1131 c 128,-1,20
 1311 1079 1311 1079 1311 1014 c 0,21,22
 1311 850 1311 850 1221 740.5 c 128,-1,23
 1131 631 1131 631 979 598 c 1,24,25
 1106 196 1106 196 1278 121 c 1,26,27
 1223 -41 1223 -41 1036 -41 c 0,28,29
 975 -41 975 -41 925 -21 c 128,-1,30
 875 -1 875 -1 838 27.5 c 128,-1,31
 801 56 801 56 768 115 c 128,-1,32
 735 174 735 174 714.5 223 c 128,-1,33
 694 272 694 272 670 363.5 c 128,-1,34
 646 455 646 455 632.5 518.5 c 128,-1,35
 619 582 619 582 596 698 c 1,36,-1
 612 698 l 2,37,38
 758 698 758 698 836.5 779.5 c 128,-1,39
 915 861 915 861 915 1018 c 0,40,41
 915 1124 915 1124 874.5 1176.5 c 128,-1,42
 834 1229 834 1229 739 1229 c 0,43,44
 680 1229 680 1229 666 1227 c 1,45,-1
 430 0 l 1,46,-1
 -6 0 l 1,47,-1
 246 1352 l 1,11,12
EndSplineSet
Validated: 1
Position2: "'cpsp' Capital Spacing lookup 3 subtable" dx=10 dy=0 dh=20 dv=0
EndChar

StartChar: S
Encoding: 83 83 108
Width: 1185
Flags: MW
HStem: -41 139<417 514 417 569> 1264 129<684 780>
VStem: -4 350<199 273 199 282> 129 403<994 1058> 664 414<288 335> 854 336<1082 1152>
LayerCount: 2
Fore
SplineSet
788 1393 m 0,0,1
 847 1393 847 1393 900 1387 c 128,-1,2
 953 1381 953 1381 1007.5 1364 c 128,-1,3
 1062 1347 1062 1347 1101 1320.5 c 128,-1,4
 1140 1294 1140 1294 1165 1249.5 c 128,-1,5
 1190 1205 1190 1205 1190 1147 c 0,6,7
 1190 1040 1190 1040 1116.5 983 c 128,-1,8
 1043 926 1043 926 942 926 c 0,9,10
 881 926 881 926 823 946 c 1,11,12
 854 1012 854 1012 854 1106 c 0,13,14
 854 1264 854 1264 737 1264 c 0,15,16
 658 1264 658 1264 595 1201.5 c 128,-1,17
 532 1139 532 1139 532 1061 c 0,18,19
 532 1029 532 1029 545.5 999.5 c 128,-1,20
 559 970 559 970 577 949 c 128,-1,21
 595 928 595 928 630 903 c 128,-1,22
 665 878 665 878 690 863.5 c 128,-1,23
 715 849 715 849 762 823 c 128,-1,24
 809 797 809 797 834 782 c 0,25,26
 876 757 876 757 907.5 735 c 128,-1,27
 939 713 939 713 973 680.5 c 128,-1,28
 1007 648 1007 648 1028 614.5 c 128,-1,29
 1049 581 1049 581 1063 535.5 c 128,-1,30
 1077 490 1077 490 1077 438 c 0,31,32
 1077 329 1077 329 1020 237 c 128,-1,33
 963 145 963 145 867.5 85 c 128,-1,34
 772 25 772 25 648.5 -8 c 128,-1,35
 525 -41 525 -41 391 -41 c 0,36,37
 335 -41 335 -41 285 -35.5 c 128,-1,38
 235 -30 235 -30 180 -13 c 128,-1,39
 125 4 125 4 86 31 c 128,-1,40
 47 58 47 58 21.5 105.5 c 128,-1,41
 -4 153 -4 153 -4 215 c 0,42,43
 -4 318 -4 318 59 383.5 c 128,-1,44
 122 449 122 449 233 449 c 0,45,46
 306 449 306 449 379 422 c 1,47,48
 346 340 346 340 346 244 c 0,49,50
 346 171 346 171 372 134.5 c 128,-1,51
 398 98 398 98 463 98 c 0,52,53
 543 98 543 98 603.5 145.5 c 128,-1,54
 664 193 664 193 664 268 c 0,55,56
 664 300 664 300 650 330.5 c 128,-1,57
 636 361 636 361 618.5 382.5 c 128,-1,58
 601 404 601 404 565.5 430.5 c 128,-1,59
 530 457 530 457 506.5 472 c 128,-1,60
 483 487 483 487 436.5 514.5 c 128,-1,61
 390 542 390 542 369 555 c 0,62,63
 315 588 315 588 277.5 619 c 128,-1,64
 240 650 240 650 203.5 693 c 128,-1,65
 167 736 167 736 148 791.5 c 128,-1,66
 129 847 129 847 129 913 c 0,67,68
 129 1055 129 1055 215.5 1165 c 128,-1,69
 302 1275 302 1275 451.5 1334 c 128,-1,70
 601 1393 601 1393 788 1393 c 0,0,1
EndSplineSet
Validated: 8388609
Position2: "'cpsp' Capital Spacing lookup 3 subtable" dx=10 dy=0 dh=20 dv=0
EndChar

StartChar: Sacute
Encoding: 346 346 109
Width: 1185
Flags: MW
HStem: -41 139<417 514 417 569> 1264 129<684 780>
VStem: -4 350<199 273 199 282> 129 403<994 1058> 664 414<288 335> 854 336<1082 1152>
LayerCount: 2
Fore
SplineSet
788 1393 m 0,0,1
 847 1393 847 1393 900 1387 c 128,-1,2
 953 1381 953 1381 1007.5 1364 c 128,-1,3
 1062 1347 1062 1347 1101 1320.5 c 128,-1,4
 1140 1294 1140 1294 1165 1249.5 c 128,-1,5
 1190 1205 1190 1205 1190 1147 c 0,6,7
 1190 1040 1190 1040 1116.5 983 c 128,-1,8
 1043 926 1043 926 942 926 c 0,9,10
 881 926 881 926 823 946 c 1,11,12
 854 1012 854 1012 854 1106 c 0,13,14
 854 1264 854 1264 737 1264 c 0,15,16
 658 1264 658 1264 595 1201.5 c 128,-1,17
 532 1139 532 1139 532 1061 c 0,18,19
 532 1029 532 1029 545.5 999.5 c 128,-1,20
 559 970 559 970 577 949 c 128,-1,21
 595 928 595 928 630 903 c 128,-1,22
 665 878 665 878 690 863.5 c 128,-1,23
 715 849 715 849 762 823 c 128,-1,24
 809 797 809 797 834 782 c 0,25,26
 876 757 876 757 907.5 735 c 128,-1,27
 939 713 939 713 973 680.5 c 128,-1,28
 1007 648 1007 648 1028 614.5 c 128,-1,29
 1049 581 1049 581 1063 535.5 c 128,-1,30
 1077 490 1077 490 1077 438 c 0,31,32
 1077 329 1077 329 1020 237 c 128,-1,33
 963 145 963 145 867.5 85 c 128,-1,34
 772 25 772 25 648.5 -8 c 128,-1,35
 525 -41 525 -41 391 -41 c 0,36,37
 335 -41 335 -41 285 -35.5 c 128,-1,38
 235 -30 235 -30 180 -13 c 128,-1,39
 125 4 125 4 86 31 c 128,-1,40
 47 58 47 58 21.5 105.5 c 128,-1,41
 -4 153 -4 153 -4 215 c 0,42,43
 -4 318 -4 318 59 383.5 c 128,-1,44
 122 449 122 449 233 449 c 0,45,46
 306 449 306 449 379 422 c 1,47,48
 346 340 346 340 346 244 c 0,49,50
 346 171 346 171 372 134.5 c 128,-1,51
 398 98 398 98 463 98 c 0,52,53
 543 98 543 98 603.5 145.5 c 128,-1,54
 664 193 664 193 664 268 c 0,55,56
 664 300 664 300 650 330.5 c 128,-1,57
 636 361 636 361 618.5 382.5 c 128,-1,58
 601 404 601 404 565.5 430.5 c 128,-1,59
 530 457 530 457 506.5 472 c 128,-1,60
 483 487 483 487 436.5 514.5 c 128,-1,61
 390 542 390 542 369 555 c 0,62,63
 315 588 315 588 277.5 619 c 128,-1,64
 240 650 240 650 203.5 693 c 128,-1,65
 167 736 167 736 148 791.5 c 128,-1,66
 129 847 129 847 129 913 c 0,67,68
 129 1055 129 1055 215.5 1165 c 128,-1,69
 302 1275 302 1275 451.5 1334 c 128,-1,70
 601 1393 601 1393 788 1393 c 0,0,1
635 1554 m 1,71,-1
 1137 1763 l 1,72,73
 1194 1721 1194 1721 1194 1653 c 0,74,75
 1194 1602 1194 1602 1170 1564.5 c 128,-1,76
 1146 1527 1146 1527 1104 1506 c 128,-1,77
 1062 1485 1062 1485 1012.5 1474.5 c 128,-1,78
 963 1464 963 1464 903 1462 c 2,79,-1
 659 1454 l 1,80,-1
 635 1554 l 1,71,-1
EndSplineSet
Validated: 8388609
Substitution2: "'locl' Localized Forms in Latin lookup 13 subtable" Sacute.loclPLK
Substitution2: "'aalt' Access All Alternates lookup 0 subtable" Sacute.loclPLK
Position2: "'cpsp' Capital Spacing lookup 3 subtable" dx=10 dy=0 dh=20 dv=0
EndChar

StartChar: Scaron
Encoding: 352 352 110
Width: 1185
Flags: MW
HStem: -41 139<417 514 417 569> 1264 129<684 780>
VStem: -4 350<199 273 199 282> 129 403<994 1058> 664 414<288 335> 854 336<1082 1152>
LayerCount: 2
Fore
SplineSet
788 1393 m 0,0,1
 847 1393 847 1393 900 1387 c 128,-1,2
 953 1381 953 1381 1007.5 1364 c 128,-1,3
 1062 1347 1062 1347 1101 1320.5 c 128,-1,4
 1140 1294 1140 1294 1165 1249.5 c 128,-1,5
 1190 1205 1190 1205 1190 1147 c 0,6,7
 1190 1040 1190 1040 1116.5 983 c 128,-1,8
 1043 926 1043 926 942 926 c 0,9,10
 881 926 881 926 823 946 c 1,11,12
 854 1012 854 1012 854 1106 c 0,13,14
 854 1264 854 1264 737 1264 c 0,15,16
 658 1264 658 1264 595 1201.5 c 128,-1,17
 532 1139 532 1139 532 1061 c 0,18,19
 532 1029 532 1029 545.5 999.5 c 128,-1,20
 559 970 559 970 577 949 c 128,-1,21
 595 928 595 928 630 903 c 128,-1,22
 665 878 665 878 690 863.5 c 128,-1,23
 715 849 715 849 762 823 c 128,-1,24
 809 797 809 797 834 782 c 0,25,26
 876 757 876 757 907.5 735 c 128,-1,27
 939 713 939 713 973 680.5 c 128,-1,28
 1007 648 1007 648 1028 614.5 c 128,-1,29
 1049 581 1049 581 1063 535.5 c 128,-1,30
 1077 490 1077 490 1077 438 c 0,31,32
 1077 329 1077 329 1020 237 c 128,-1,33
 963 145 963 145 867.5 85 c 128,-1,34
 772 25 772 25 648.5 -8 c 128,-1,35
 525 -41 525 -41 391 -41 c 0,36,37
 335 -41 335 -41 285 -35.5 c 128,-1,38
 235 -30 235 -30 180 -13 c 128,-1,39
 125 4 125 4 86 31 c 128,-1,40
 47 58 47 58 21.5 105.5 c 128,-1,41
 -4 153 -4 153 -4 215 c 0,42,43
 -4 318 -4 318 59 383.5 c 128,-1,44
 122 449 122 449 233 449 c 0,45,46
 306 449 306 449 379 422 c 1,47,48
 346 340 346 340 346 244 c 0,49,50
 346 171 346 171 372 134.5 c 128,-1,51
 398 98 398 98 463 98 c 0,52,53
 543 98 543 98 603.5 145.5 c 128,-1,54
 664 193 664 193 664 268 c 0,55,56
 664 300 664 300 650 330.5 c 128,-1,57
 636 361 636 361 618.5 382.5 c 128,-1,58
 601 404 601 404 565.5 430.5 c 128,-1,59
 530 457 530 457 506.5 472 c 128,-1,60
 483 487 483 487 436.5 514.5 c 128,-1,61
 390 542 390 542 369 555 c 0,62,63
 315 588 315 588 277.5 619 c 128,-1,64
 240 650 240 650 203.5 693 c 128,-1,65
 167 736 167 736 148 791.5 c 128,-1,66
 129 847 129 847 129 913 c 0,67,68
 129 1055 129 1055 215.5 1165 c 128,-1,69
 302 1275 302 1275 451.5 1334 c 128,-1,70
 601 1393 601 1393 788 1393 c 0,0,1
606 1749 m 1,71,-1
 846 1642 l 1,72,-1
 1149 1749 l 1,73,-1
 1212 1655 l 1,74,-1
 891 1417 l 1,75,-1
 756 1417 l 1,76,-1
 504 1655 l 1,77,-1
 606 1749 l 1,71,-1
EndSplineSet
Validated: 8388609
Position2: "'cpsp' Capital Spacing lookup 3 subtable" dx=10 dy=0 dh=20 dv=0
EndChar

StartChar: Scedilla
Encoding: 350 350 111
Width: 1185
Flags: MW
HStem: -528 139<392 464 392 537> -225 109<401 621> -41 139<305 514> 1264 129<684 780>
VStem: -4 350<199 273 199 282> 129 403<994 1058> 537 248<-333 -269> 664 414<306 335> 854 336<1082 1152>
LayerCount: 2
Fore
SplineSet
389 -41 m 1,0,1
 333 -41 333 -41 283 -35.5 c 128,-1,2
 233 -30 233 -30 178.5 -13 c 128,-1,3
 124 4 124 4 85.5 31.5 c 128,-1,4
 47 59 47 59 21.5 106 c 128,-1,5
 -4 153 -4 153 -4 215 c 0,6,7
 -4 318 -4 318 59 383.5 c 128,-1,8
 122 449 122 449 233 449 c 0,9,10
 306 449 306 449 379 422 c 1,11,12
 346 340 346 340 346 244 c 0,13,14
 346 171 346 171 372 134.5 c 128,-1,15
 398 98 398 98 463 98 c 0,16,17
 543 98 543 98 603.5 145.5 c 128,-1,18
 664 193 664 193 664 268 c 0,19,20
 664 300 664 300 650 330.5 c 128,-1,21
 636 361 636 361 618.5 382.5 c 128,-1,22
 601 404 601 404 565.5 430.5 c 128,-1,23
 530 457 530 457 506.5 472 c 128,-1,24
 483 487 483 487 436.5 514.5 c 128,-1,25
 390 542 390 542 369 555 c 0,26,27
 315 588 315 588 277.5 619 c 128,-1,28
 240 650 240 650 203.5 693 c 128,-1,29
 167 736 167 736 148 791.5 c 128,-1,30
 129 847 129 847 129 913 c 0,31,32
 129 1055 129 1055 215.5 1165 c 128,-1,33
 302 1275 302 1275 451.5 1334 c 128,-1,34
 601 1393 601 1393 788 1393 c 0,35,36
 847 1393 847 1393 900 1387 c 128,-1,37
 953 1381 953 1381 1007.5 1364 c 128,-1,38
 1062 1347 1062 1347 1101 1320.5 c 128,-1,39
 1140 1294 1140 1294 1165 1249.5 c 128,-1,40
 1190 1205 1190 1205 1190 1147 c 0,41,42
 1190 1040 1190 1040 1116.5 983 c 128,-1,43
 1043 926 1043 926 942 926 c 0,44,45
 881 926 881 926 823 946 c 1,46,47
 854 1012 854 1012 854 1106 c 0,48,49
 854 1264 854 1264 737 1264 c 0,50,51
 658 1264 658 1264 595 1201.5 c 128,-1,52
 532 1139 532 1139 532 1061 c 0,53,54
 532 1029 532 1029 545.5 999.5 c 128,-1,55
 559 970 559 970 577 949 c 128,-1,56
 595 928 595 928 630 903 c 128,-1,57
 665 878 665 878 690 863.5 c 128,-1,58
 715 849 715 849 762 823 c 128,-1,59
 809 797 809 797 834 782 c 0,60,61
 876 757 876 757 907.5 735 c 128,-1,62
 939 713 939 713 973 680.5 c 128,-1,63
 1007 648 1007 648 1028 614.5 c 128,-1,64
 1049 581 1049 581 1063 535.5 c 128,-1,65
 1077 490 1077 490 1077 438 c 0,66,67
 1077 342 1077 342 1032.5 259 c 128,-1,68
 988 176 988 176 911 117 c 128,-1,69
 834 58 834 58 733.5 19.5 c 128,-1,70
 633 -19 633 -19 518 -33 c 1,71,-1
 492 -119 l 1,72,73
 515 -117 515 -117 559 -117 c 0,74,75
 659 -117 659 -117 721.5 -158 c 128,-1,76
 784 -199 784 -199 784 -283 c 0,77,78
 784 -390 784 -390 685 -459 c 128,-1,79
 586 -528 586 -528 442 -528 c 0,80,81
 352 -528 352 -528 300 -499.5 c 128,-1,82
 248 -471 248 -471 248 -420 c 0,83,84
 248 -358 248 -358 285 -324 c 1,85,86
 328 -389 328 -389 432 -389 c 0,87,88
 537 -389 537 -389 537 -301 c 0,89,90
 537 -225 537 -225 418 -225 c 0,91,92
 390 -225 390 -225 332 -229 c 1,93,-1
 389 -41 l 1,0,1
EndSplineSet
Validated: 8388609
Substitution2: "'locl' Localized Forms in Latin lookup 12 subtable" Scommaaccent
Substitution2: "'locl' Localized Forms in Latin lookup 11 subtable" Scommaaccent
Substitution2: "'aalt' Access All Alternates lookup 0 subtable" Scommaaccent
Position2: "'cpsp' Capital Spacing lookup 3 subtable" dx=10 dy=0 dh=20 dv=0
EndChar

StartChar: Scircumflex
Encoding: 348 348 112
Width: 1185
Flags: MW
HStem: -41 139<417 514 417 569> 1264 129<684 780>
VStem: -4 350<199 273 199 282> 129 403<994 1058> 664 414<288 335> 854 336<1082 1152>
LayerCount: 2
Fore
SplineSet
788 1393 m 0,0,1
 847 1393 847 1393 900 1387 c 128,-1,2
 953 1381 953 1381 1007.5 1364 c 128,-1,3
 1062 1347 1062 1347 1101 1320.5 c 128,-1,4
 1140 1294 1140 1294 1165 1249.5 c 128,-1,5
 1190 1205 1190 1205 1190 1147 c 0,6,7
 1190 1040 1190 1040 1116.5 983 c 128,-1,8
 1043 926 1043 926 942 926 c 0,9,10
 881 926 881 926 823 946 c 1,11,12
 854 1012 854 1012 854 1106 c 0,13,14
 854 1264 854 1264 737 1264 c 0,15,16
 658 1264 658 1264 595 1201.5 c 128,-1,17
 532 1139 532 1139 532 1061 c 0,18,19
 532 1029 532 1029 545.5 999.5 c 128,-1,20
 559 970 559 970 577 949 c 128,-1,21
 595 928 595 928 630 903 c 128,-1,22
 665 878 665 878 690 863.5 c 128,-1,23
 715 849 715 849 762 823 c 128,-1,24
 809 797 809 797 834 782 c 0,25,26
 876 757 876 757 907.5 735 c 128,-1,27
 939 713 939 713 973 680.5 c 128,-1,28
 1007 648 1007 648 1028 614.5 c 128,-1,29
 1049 581 1049 581 1063 535.5 c 128,-1,30
 1077 490 1077 490 1077 438 c 0,31,32
 1077 329 1077 329 1020 237 c 128,-1,33
 963 145 963 145 867.5 85 c 128,-1,34
 772 25 772 25 648.5 -8 c 128,-1,35
 525 -41 525 -41 391 -41 c 0,36,37
 335 -41 335 -41 285 -35.5 c 128,-1,38
 235 -30 235 -30 180 -13 c 128,-1,39
 125 4 125 4 86 31 c 128,-1,40
 47 58 47 58 21.5 105.5 c 128,-1,41
 -4 153 -4 153 -4 215 c 0,42,43
 -4 318 -4 318 59 383.5 c 128,-1,44
 122 449 122 449 233 449 c 0,45,46
 306 449 306 449 379 422 c 1,47,48
 346 340 346 340 346 244 c 0,49,50
 346 171 346 171 372 134.5 c 128,-1,51
 398 98 398 98 463 98 c 0,52,53
 543 98 543 98 603.5 145.5 c 128,-1,54
 664 193 664 193 664 268 c 0,55,56
 664 300 664 300 650 330.5 c 128,-1,57
 636 361 636 361 618.5 382.5 c 128,-1,58
 601 404 601 404 565.5 430.5 c 128,-1,59
 530 457 530 457 506.5 472 c 128,-1,60
 483 487 483 487 436.5 514.5 c 128,-1,61
 390 542 390 542 369 555 c 0,62,63
 315 588 315 588 277.5 619 c 128,-1,64
 240 650 240 650 203.5 693 c 128,-1,65
 167 736 167 736 148 791.5 c 128,-1,66
 129 847 129 847 129 913 c 0,67,68
 129 1055 129 1055 215.5 1165 c 128,-1,69
 302 1275 302 1275 451.5 1334 c 128,-1,70
 601 1393 601 1393 788 1393 c 0,0,1
1053 1407 m 1,71,-1
 815 1513 l 1,72,-1
 512 1407 l 1,73,-1
 449 1501 l 1,74,-1
 791 1739 l 1,75,-1
 883 1739 l 1,76,-1
 1155 1501 l 1,77,-1
 1053 1407 l 1,71,-1
EndSplineSet
Validated: 8388609
Position2: "'cpsp' Capital Spacing lookup 3 subtable" dx=10 dy=0 dh=20 dv=0
EndChar

StartChar: Scommaaccent
Encoding: 536 536 113
Width: 1185
Flags: MW
HStem: -41 139<417 514 417 569> 1264 129<684 780>
VStem: -4 350<199 273 199 282> 129 403<994 1058> 328 274<-300 -222> 664 414<288 335> 854 336<1082 1152>
LayerCount: 2
Fore
SplineSet
602 -244 m 0,0,1
 602 -310 602 -310 570 -365.5 c 128,-1,2
 538 -421 538 -421 488 -455.5 c 128,-1,3
 438 -490 438 -490 382.5 -509 c 128,-1,4
 327 -528 327 -528 276 -528 c 128,-1,5
 225 -528 225 -528 197 -520 c 1,6,7
 267 -443 267 -443 297.5 -384 c 128,-1,8
 328 -325 328 -325 328 -240 c 0,9,10
 328 -183 328 -183 307 -135 c 1,11,12
 322 -124 322 -124 363.5 -114 c 128,-1,13
 405 -104 405 -104 434 -104 c 0,14,15
 512 -104 512 -104 557 -143 c 128,-1,16
 602 -182 602 -182 602 -244 c 0,0,1
788 1393 m 0,17,18
 847 1393 847 1393 900 1387 c 128,-1,19
 953 1381 953 1381 1007.5 1364 c 128,-1,20
 1062 1347 1062 1347 1101 1320.5 c 128,-1,21
 1140 1294 1140 1294 1165 1249.5 c 128,-1,22
 1190 1205 1190 1205 1190 1147 c 0,23,24
 1190 1040 1190 1040 1116.5 983 c 128,-1,25
 1043 926 1043 926 942 926 c 0,26,27
 881 926 881 926 823 946 c 1,28,29
 854 1012 854 1012 854 1106 c 0,30,31
 854 1264 854 1264 737 1264 c 0,32,33
 658 1264 658 1264 595 1201.5 c 128,-1,34
 532 1139 532 1139 532 1061 c 0,35,36
 532 1029 532 1029 545.5 999.5 c 128,-1,37
 559 970 559 970 577 949 c 128,-1,38
 595 928 595 928 630 903 c 128,-1,39
 665 878 665 878 690 863.5 c 128,-1,40
 715 849 715 849 762 823 c 128,-1,41
 809 797 809 797 834 782 c 0,42,43
 876 757 876 757 907.5 735 c 128,-1,44
 939 713 939 713 973 680.5 c 128,-1,45
 1007 648 1007 648 1028 614.5 c 128,-1,46
 1049 581 1049 581 1063 535.5 c 128,-1,47
 1077 490 1077 490 1077 438 c 0,48,49
 1077 329 1077 329 1020 237 c 128,-1,50
 963 145 963 145 867.5 85 c 128,-1,51
 772 25 772 25 648.5 -8 c 128,-1,52
 525 -41 525 -41 391 -41 c 0,53,54
 335 -41 335 -41 285 -35.5 c 128,-1,55
 235 -30 235 -30 180 -13 c 128,-1,56
 125 4 125 4 86 31 c 128,-1,57
 47 58 47 58 21.5 105.5 c 128,-1,58
 -4 153 -4 153 -4 215 c 0,59,60
 -4 318 -4 318 59 383.5 c 128,-1,61
 122 449 122 449 233 449 c 0,62,63
 306 449 306 449 379 422 c 1,64,65
 346 340 346 340 346 244 c 0,66,67
 346 171 346 171 372 134.5 c 128,-1,68
 398 98 398 98 463 98 c 0,69,70
 543 98 543 98 603.5 145.5 c 128,-1,71
 664 193 664 193 664 268 c 0,72,73
 664 300 664 300 650 330.5 c 128,-1,74
 636 361 636 361 618.5 382.5 c 128,-1,75
 601 404 601 404 565.5 430.5 c 128,-1,76
 530 457 530 457 506.5 472 c 128,-1,77
 483 487 483 487 436.5 514.5 c 128,-1,78
 390 542 390 542 369 555 c 0,79,80
 315 588 315 588 277.5 619 c 128,-1,81
 240 650 240 650 203.5 693 c 128,-1,82
 167 736 167 736 148 791.5 c 128,-1,83
 129 847 129 847 129 913 c 0,84,85
 129 1055 129 1055 215.5 1165 c 128,-1,86
 302 1275 302 1275 451.5 1334 c 128,-1,87
 601 1393 601 1393 788 1393 c 0,17,18
EndSplineSet
Validated: 8388609
Position2: "'cpsp' Capital Spacing lookup 3 subtable" dx=10 dy=0 dh=20 dv=0
EndChar

StartChar: Sdotbelow
Encoding: 7778 7778 114
Width: 1185
Flags: MW
HStem: -397 311<380 493> -41 139<417 514 417 569> 1264 129<684 780>
VStem: -4 350<199 273 199 282> 129 403<994 1058> 223 422<-293 -194> 664 414<288 335> 854 336<1082 1152>
LayerCount: 2
Fore
SplineSet
440 -86 m 0,0,1
 533 -86 533 -86 589 -127 c 128,-1,2
 645 -168 645 -168 645 -242 c 128,-1,3
 645 -316 645 -316 585.5 -356.5 c 128,-1,4
 526 -397 526 -397 432 -397 c 0,5,6
 339 -397 339 -397 281 -357.5 c 128,-1,7
 223 -318 223 -318 223 -246 c 0,8,9
 223 -171 223 -171 284.5 -128.5 c 128,-1,10
 346 -86 346 -86 440 -86 c 0,0,1
788 1393 m 0,11,12
 847 1393 847 1393 900 1387 c 128,-1,13
 953 1381 953 1381 1007.5 1364 c 128,-1,14
 1062 1347 1062 1347 1101 1320.5 c 128,-1,15
 1140 1294 1140 1294 1165 1249.5 c 128,-1,16
 1190 1205 1190 1205 1190 1147 c 0,17,18
 1190 1040 1190 1040 1116.5 983 c 128,-1,19
 1043 926 1043 926 942 926 c 0,20,21
 881 926 881 926 823 946 c 1,22,23
 854 1012 854 1012 854 1106 c 0,24,25
 854 1264 854 1264 737 1264 c 0,26,27
 658 1264 658 1264 595 1201.5 c 128,-1,28
 532 1139 532 1139 532 1061 c 0,29,30
 532 1029 532 1029 545.5 999.5 c 128,-1,31
 559 970 559 970 577 949 c 128,-1,32
 595 928 595 928 630 903 c 128,-1,33
 665 878 665 878 690 863.5 c 128,-1,34
 715 849 715 849 762 823 c 128,-1,35
 809 797 809 797 834 782 c 0,36,37
 876 757 876 757 907.5 735 c 128,-1,38
 939 713 939 713 973 680.5 c 128,-1,39
 1007 648 1007 648 1028 614.5 c 128,-1,40
 1049 581 1049 581 1063 535.5 c 128,-1,41
 1077 490 1077 490 1077 438 c 0,42,43
 1077 329 1077 329 1020 237 c 128,-1,44
 963 145 963 145 867.5 85 c 128,-1,45
 772 25 772 25 648.5 -8 c 128,-1,46
 525 -41 525 -41 391 -41 c 0,47,48
 335 -41 335 -41 285 -35.5 c 128,-1,49
 235 -30 235 -30 180 -13 c 128,-1,50
 125 4 125 4 86 31 c 128,-1,51
 47 58 47 58 21.5 105.5 c 128,-1,52
 -4 153 -4 153 -4 215 c 0,53,54
 -4 318 -4 318 59 383.5 c 128,-1,55
 122 449 122 449 233 449 c 0,56,57
 306 449 306 449 379 422 c 1,58,59
 346 340 346 340 346 244 c 0,60,61
 346 171 346 171 372 134.5 c 128,-1,62
 398 98 398 98 463 98 c 0,63,64
 543 98 543 98 603.5 145.5 c 128,-1,65
 664 193 664 193 664 268 c 0,66,67
 664 300 664 300 650 330.5 c 128,-1,68
 636 361 636 361 618.5 382.5 c 128,-1,69
 601 404 601 404 565.5 430.5 c 128,-1,70
 530 457 530 457 506.5 472 c 128,-1,71
 483 487 483 487 436.5 514.5 c 128,-1,72
 390 542 390 542 369 555 c 0,73,74
 315 588 315 588 277.5 619 c 128,-1,75
 240 650 240 650 203.5 693 c 128,-1,76
 167 736 167 736 148 791.5 c 128,-1,77
 129 847 129 847 129 913 c 0,78,79
 129 1055 129 1055 215.5 1165 c 128,-1,80
 302 1275 302 1275 451.5 1334 c 128,-1,81
 601 1393 601 1393 788 1393 c 0,11,12
EndSplineSet
Validated: 8388609
Position2: "'cpsp' Capital Spacing lookup 3 subtable" dx=10 dy=0 dh=20 dv=0
EndChar

StartChar: uni1E9E
Encoding: 7838 7838 115
Width: 1550
Flags: MW
HStem: -41 139<871 959 871 1027> 0 367<-31 741> 1298 94<837 998>
VStem: 545 268<178 231> 750 410<804 819> 1049 403<273 334>
LayerCount: 2
Fore
SplineSet
102 678 m 2,0,1
 136 850 136 850 199 979 c 128,-1,2
 262 1108 262 1108 338.5 1186 c 128,-1,3
 415 1264 415 1264 517 1311.5 c 128,-1,4
 619 1359 619 1359 718.5 1376 c 128,-1,5
 818 1393 818 1393 938 1393 c 0,6,7
 1145 1393 1145 1393 1278.5 1342 c 128,-1,8
 1412 1291 1412 1291 1491 1190 c 1,9,10
 1464 1178 1464 1178 1439 1166.5 c 128,-1,11
 1414 1155 1414 1155 1358 1121.5 c 128,-1,12
 1302 1088 1302 1088 1262.5 1056 c 128,-1,13
 1223 1024 1223 1024 1191 977 c 128,-1,14
 1159 930 1159 930 1159 885 c 0,15,16
 1159 852 1159 852 1175 824 c 128,-1,17
 1191 796 1191 796 1217 773 c 128,-1,18
 1243 750 1243 750 1274 727 c 128,-1,19
 1305 704 1305 704 1336.5 675 c 128,-1,20
 1368 646 1368 646 1394 612.5 c 128,-1,21
 1420 579 1420 579 1436 528.5 c 128,-1,22
 1452 478 1452 478 1452 418 c 0,23,24
 1452 279 1452 279 1370.5 172.5 c 128,-1,25
 1289 66 1289 66 1159.5 12.5 c 128,-1,26
 1030 -41 1030 -41 877 -41 c 0,27,28
 818 -41 818 -41 766 -32 c 128,-1,29
 714 -23 714 -23 661 -1 c 128,-1,30
 608 21 608 21 576.5 67 c 128,-1,31
 545 113 545 113 545 178 c 0,32,33
 545 260 545 260 593 313.5 c 128,-1,34
 641 367 641 367 723 367 c 0,35,36
 782 367 782 367 838 340 c 1,37,38
 813 263 813 263 813 211 c 0,39,40
 813 98 813 98 907 98 c 0,41,42
 955 98 955 98 989 126.5 c 128,-1,43
 1023 155 1023 155 1036 189 c 128,-1,44
 1049 223 1049 223 1049 254 c 0,45,46
 1049 291 1049 291 1027 324.5 c 128,-1,47
 1005 358 1005 358 971.5 382.5 c 128,-1,48
 938 407 938 407 899.5 439.5 c 128,-1,49
 861 472 861 472 827.5 505.5 c 128,-1,50
 794 539 794 539 772 592 c 128,-1,51
 750 645 750 645 750 709 c 128,-1,52
 750 773 750 773 772.5 833.5 c 128,-1,53
 795 894 795 894 832.5 942.5 c 128,-1,54
 870 991 870 991 924.5 1037.5 c 128,-1,55
 979 1084 979 1084 1036 1120 c 128,-1,56
 1093 1156 1093 1156 1163 1192 c 1,57,58
 1131 1238 1131 1238 1075 1268 c 128,-1,59
 1019 1298 1019 1298 946 1298 c 0,60,61
 881 1298 881 1298 827.5 1270.5 c 128,-1,62
 774 1243 774 1243 733 1194 c 128,-1,63
 692 1145 692 1145 658 1068.5 c 128,-1,64
 624 992 624 992 599 903.5 c 128,-1,65
 574 815 574 815 551 700 c 2,66,-1
 414 0 l 1,67,-1
 -31 0 l 1,68,-1
 102 678 l 2,0,1
EndSplineSet
Validated: 8388609
Position2: "'cpsp' Capital Spacing lookup 3 subtable" dx=10 dy=0 dh=20 dv=0
EndChar

StartChar: Schwa
Encoding: 399 399 116
Width: 1208
Flags: MW
HStem: -53 113<381 470 381 628> 618 92<691 696> 1081 311<550 602>
VStem: -29 356<169 215 169 390> 723 440<818 913>
LayerCount: 2
Fore
SplineSet
416 59 m 0,0,1
 502 59 502 59 575.5 196.5 c 128,-1,2
 649 334 649 334 696 618 c 1,3,4
 530 618 530 618 430 504.5 c 128,-1,5
 330 391 330 391 328 215 c 0,6,7
 328 139 328 139 347.5 99 c 128,-1,8
 367 59 367 59 416 59 c 0,0,1
358 -53 m 0,9,10
 275 -53 275 -53 210.5 -39.5 c 128,-1,11
 146 -26 146 -26 89.5 7 c 128,-1,12
 33 40 33 40 2 104 c 128,-1,13
 -29 168 -29 168 -29 260 c 0,14,15
 -29 458 -29 458 127 574 c 128,-1,16
 283 690 283 690 588 709 c 0,17,18
 629 711 629 711 713 711 c 1,19,20
 723 783 723 783 723 836 c 0,21,22
 723 959 723 959 678.5 1020 c 128,-1,23
 634 1081 634 1081 528 1081 c 0,24,25
 434 1081 434 1081 342 1035.5 c 128,-1,26
 250 990 250 990 201 909 c 1,27,28
 150 947 150 947 150 1026 c 0,29,30
 150 1136 150 1136 228.5 1221.5 c 128,-1,31
 307 1307 307 1307 427 1350 c 128,-1,32
 547 1393 547 1393 684 1393 c 0,33,34
 916 1393 916 1393 1039.5 1251 c 128,-1,35
 1163 1109 1163 1109 1163 819 c 0,36,37
 1163 680 1163 680 1131.5 552.5 c 128,-1,38
 1100 425 1100 425 1034.5 314.5 c 128,-1,39
 969 204 969 204 875 122.5 c 128,-1,40
 781 41 781 41 648 -6 c 128,-1,41
 515 -53 515 -53 358 -53 c 0,9,10
EndSplineSet
Validated: 1
Position2: "'cpsp' Capital Spacing lookup 3 subtable" dx=10 dy=0 dh=20 dv=0
EndChar

StartChar: T
Encoding: 84 84 117
Width: 931
Flags: MW
HStem: 1106 246<168 852 250 328 752 852 852 856 752 752> 1331 41G
VStem: 45 1038<1193 1247> 160 420<131 180 131 202>
LayerCount: 2
Fore
SplineSet
852 1352 m 2,0,1
 988 1352 988 1352 1053 1372 c 1,2,3
 1083 1331 1083 1331 1083 1255 c 0,4,5
 1083 1210 1083 1210 1066 1179.5 c 128,-1,6
 1049 1149 1049 1149 1016 1133.5 c 128,-1,7
 983 1118 983 1118 945 1112 c 128,-1,8
 907 1106 907 1106 856 1106 c 2,9,-1
 752 1106 l 1,10,-1
 598 326 l 1,11,12
 580 223 580 223 580 158 c 0,13,14
 580 75 580 75 606 29 c 1,15,16
 505 -41 505 -41 375 -41 c 0,17,18
 266 -41 266 -41 213 13.5 c 128,-1,19
 160 68 160 68 160 168 c 0,20,21
 160 298 160 298 219 580 c 2,22,-1
 328 1106 l 1,23,-1
 195 1106 l 2,24,25
 110 1106 110 1106 53 1098 c 1,26,27
 45 1131 45 1131 45 1184 c 0,28,29
 45 1275 45 1275 97.5 1313.5 c 128,-1,30
 150 1352 150 1352 250 1352 c 2,31,-1
 852 1352 l 2,0,1
EndSplineSet
Validated: 8388609
Position2: "'cpsp' Capital Spacing lookup 3 subtable" dx=10 dy=0 dh=20 dv=0
EndChar

StartChar: Tbar
Encoding: 358 358 118
Width: 931
Flags: MW
HStem: 588 188<133 219 0 260 686 807> 1106 246<168 852 250 328 752 852 852 856 752 752> 1331 41G
VStem: -6 1090<636 1275> 160 420<131 180 131 193>
LayerCount: 2
Fore
SplineSet
852 1352 m 2,0,1
 988 1352 988 1352 1053 1372 c 1,2,3
 1083 1331 1083 1331 1083 1255 c 0,4,5
 1083 1210 1083 1210 1066 1179.5 c 128,-1,6
 1049 1149 1049 1149 1016 1133.5 c 128,-1,7
 983 1118 983 1118 945 1112 c 128,-1,8
 907 1106 907 1106 856 1106 c 2,9,-1
 752 1106 l 1,10,-1
 686 776 l 1,11,-1
 954 776 l 1,12,13
 963 740 963 740 963 719 c 0,14,15
 963 661 963 661 922.5 624.5 c 128,-1,16
 882 588 882 588 807 588 c 2,17,-1
 649 588 l 1,18,-1
 598 326 l 1,19,20
 580 223 580 223 580 158 c 0,21,22
 580 75 580 75 606 29 c 1,23,24
 505 -41 505 -41 375 -41 c 0,25,26
 266 -41 266 -41 213 13.5 c 128,-1,27
 160 68 160 68 160 168 c 0,28,29
 160 243 160 243 188 410 c 1,30,-1
 219 588 l 1,31,-1
 0 588 l 1,32,33
 -6 606 -6 606 -6 643 c 0,34,35
 -5 703 -5 703 34 739.5 c 128,-1,36
 73 776 73 776 133 776 c 2,37,-1
 260 776 l 1,38,-1
 328 1106 l 1,39,-1
 195 1106 l 2,40,41
 110 1106 110 1106 53 1098 c 1,42,43
 45 1131 45 1131 45 1184 c 0,44,45
 45 1275 45 1275 97.5 1313.5 c 128,-1,46
 150 1352 150 1352 250 1352 c 2,47,-1
 852 1352 l 2,0,1
EndSplineSet
Validated: 8388609
Position2: "'cpsp' Capital Spacing lookup 3 subtable" dx=10 dy=0 dh=20 dv=0
EndChar

StartChar: Tcaron
Encoding: 356 356 119
Width: 931
Flags: MW
HStem: 1106 246<168 852 250 328 752 852 852 856 752 752> 1331 41G
VStem: 45 1038<1193 1247> 160 420<131 180 131 202>
LayerCount: 2
Fore
SplineSet
852 1352 m 2,0,1
 988 1352 988 1352 1053 1372 c 1,2,3
 1083 1331 1083 1331 1083 1255 c 0,4,5
 1083 1210 1083 1210 1066 1179.5 c 128,-1,6
 1049 1149 1049 1149 1016 1133.5 c 128,-1,7
 983 1118 983 1118 945 1112 c 128,-1,8
 907 1106 907 1106 856 1106 c 2,9,-1
 752 1106 l 1,10,-1
 598 326 l 1,11,12
 580 223 580 223 580 158 c 0,13,14
 580 75 580 75 606 29 c 1,15,16
 505 -41 505 -41 375 -41 c 0,17,18
 266 -41 266 -41 213 13.5 c 128,-1,19
 160 68 160 68 160 168 c 0,20,21
 160 298 160 298 219 580 c 2,22,-1
 328 1106 l 1,23,-1
 195 1106 l 2,24,25
 110 1106 110 1106 53 1098 c 1,26,27
 45 1131 45 1131 45 1184 c 0,28,29
 45 1275 45 1275 97.5 1313.5 c 128,-1,30
 150 1352 150 1352 250 1352 c 2,31,-1
 852 1352 l 2,0,1
393 1749 m 1,32,-1
 633 1642 l 1,33,-1
 936 1749 l 1,34,-1
 999 1655 l 1,35,-1
 678 1417 l 1,36,-1
 543 1417 l 1,37,-1
 291 1655 l 1,38,-1
 393 1749 l 1,32,-1
EndSplineSet
Validated: 8388609
Position2: "'cpsp' Capital Spacing lookup 3 subtable" dx=10 dy=0 dh=20 dv=0
EndChar

StartChar: Tcedilla
Encoding: 354 354 120
Width: 931
Flags: MW
HStem: -528 139<267 339 267 412> -225 109<276 496> 1106 246<168 852 250 328 752 852 852 856 752 752> 1331 41G
VStem: 160 420<131 180 131 202> 412 248<-333 -269>
LayerCount: 2
Fore
SplineSet
852 1352 m 2,0,1
 988 1352 988 1352 1053 1372 c 1,2,3
 1083 1331 1083 1331 1083 1255 c 0,4,5
 1083 1210 1083 1210 1066 1179.5 c 128,-1,6
 1049 1149 1049 1149 1016 1133.5 c 128,-1,7
 983 1118 983 1118 945 1112 c 128,-1,8
 907 1106 907 1106 856 1106 c 2,9,-1
 752 1106 l 1,10,-1
 598 326 l 1,11,12
 580 223 580 223 580 158 c 0,13,14
 580 75 580 75 606 29 c 1,15,16
 513 -34 513 -34 391 -41 c 1,17,-1
 367 -119 l 1,18,19
 390 -117 390 -117 434 -117 c 0,20,21
 534 -117 534 -117 596.5 -158 c 128,-1,22
 659 -199 659 -199 659 -283 c 0,23,24
 659 -390 659 -390 560 -459 c 128,-1,25
 461 -528 461 -528 317 -528 c 0,26,27
 227 -528 227 -528 175 -499.5 c 128,-1,28
 123 -471 123 -471 123 -420 c 0,29,30
 123 -358 123 -358 160 -324 c 1,31,32
 203 -389 203 -389 307 -389 c 0,33,34
 412 -389 412 -389 412 -301 c 0,35,36
 412 -225 412 -225 293 -225 c 0,37,38
 265 -225 265 -225 207 -229 c 1,39,-1
 268 -23 l 1,40,41
 160 22 160 22 160 168 c 0,42,43
 160 298 160 298 219 580 c 2,44,-1
 328 1106 l 1,45,-1
 195 1106 l 2,46,47
 110 1106 110 1106 53 1098 c 1,48,49
 45 1131 45 1131 45 1184 c 0,50,51
 45 1275 45 1275 97.5 1313.5 c 128,-1,52
 150 1352 150 1352 250 1352 c 2,53,-1
 852 1352 l 2,0,1
EndSplineSet
Validated: 8388609
Substitution2: "'locl' Localized Forms in Latin lookup 12 subtable" uni021A
Substitution2: "'locl' Localized Forms in Latin lookup 11 subtable" uni021A
Substitution2: "'aalt' Access All Alternates lookup 0 subtable" uni021A
Position2: "'cpsp' Capital Spacing lookup 3 subtable" dx=10 dy=0 dh=20 dv=0
EndChar

StartChar: uni021A
Encoding: 538 538 121
Width: 931
Flags: MW
HStem: 1106 246<168 852 250 328 752 852 852 856 752 752> 1331 41G
VStem: 160 420<131 180 131 202> 203 274<-300 -222>
LayerCount: 2
Fore
SplineSet
477 -244 m 0,0,1
 477 -310 477 -310 445 -365.5 c 128,-1,2
 413 -421 413 -421 363.5 -455.5 c 128,-1,3
 314 -490 314 -490 258.5 -509 c 128,-1,4
 203 -528 203 -528 152 -528 c 0,5,6
 100 -528 100 -528 72 -520 c 1,7,8
 142 -443 142 -443 172.5 -384 c 128,-1,9
 203 -325 203 -325 203 -240 c 0,10,11
 203 -183 203 -183 182 -135 c 1,12,13
 197 -124 197 -124 238.5 -114 c 128,-1,14
 280 -104 280 -104 309 -104 c 0,15,16
 387 -104 387 -104 432 -143 c 128,-1,17
 477 -182 477 -182 477 -244 c 0,0,1
852 1352 m 2,18,19
 988 1352 988 1352 1053 1372 c 1,20,21
 1083 1331 1083 1331 1083 1255 c 0,22,23
 1083 1210 1083 1210 1066 1179.5 c 128,-1,24
 1049 1149 1049 1149 1016 1133.5 c 128,-1,25
 983 1118 983 1118 945 1112 c 128,-1,26
 907 1106 907 1106 856 1106 c 2,27,-1
 752 1106 l 1,28,-1
 598 326 l 1,29,30
 580 223 580 223 580 158 c 0,31,32
 580 75 580 75 606 29 c 1,33,34
 505 -41 505 -41 375 -41 c 0,35,36
 266 -41 266 -41 213 13.5 c 128,-1,37
 160 68 160 68 160 168 c 0,38,39
 160 298 160 298 219 580 c 2,40,-1
 328 1106 l 1,41,-1
 195 1106 l 2,42,43
 110 1106 110 1106 53 1098 c 1,44,45
 45 1131 45 1131 45 1184 c 0,46,47
 45 1275 45 1275 97.5 1313.5 c 128,-1,48
 150 1352 150 1352 250 1352 c 2,49,-1
 852 1352 l 2,18,19
EndSplineSet
Validated: 8388609
Position2: "'cpsp' Capital Spacing lookup 3 subtable" dx=10 dy=0 dh=20 dv=0
EndChar

StartChar: Tdotbelow
Encoding: 7788 7788 122
Width: 931
Flags: MW
HStem: -397 311<255 368> 1106 246<168 852 250 328 752 852 852 856 752 752> 1331 41G
VStem: 45 1038<1193 1247> 98 422<-293 -194> 160 420<131 180 131 202>
LayerCount: 2
Fore
SplineSet
315 -86 m 0,0,1
 408 -86 408 -86 464 -127 c 128,-1,2
 520 -168 520 -168 520 -242 c 128,-1,3
 520 -316 520 -316 460.5 -356.5 c 128,-1,4
 401 -397 401 -397 307 -397 c 0,5,6
 214 -397 214 -397 156 -357.5 c 128,-1,7
 98 -318 98 -318 98 -246 c 0,8,9
 98 -171 98 -171 159.5 -128.5 c 128,-1,10
 221 -86 221 -86 315 -86 c 0,0,1
852 1352 m 2,11,12
 988 1352 988 1352 1053 1372 c 1,13,14
 1083 1331 1083 1331 1083 1255 c 0,15,16
 1083 1210 1083 1210 1066 1179.5 c 128,-1,17
 1049 1149 1049 1149 1016 1133.5 c 128,-1,18
 983 1118 983 1118 945 1112 c 128,-1,19
 907 1106 907 1106 856 1106 c 2,20,-1
 752 1106 l 1,21,-1
 598 326 l 1,22,23
 580 223 580 223 580 158 c 0,24,25
 580 75 580 75 606 29 c 1,26,27
 505 -41 505 -41 375 -41 c 0,28,29
 266 -41 266 -41 213 13.5 c 128,-1,30
 160 68 160 68 160 168 c 0,31,32
 160 298 160 298 219 580 c 2,33,-1
 328 1106 l 1,34,-1
 195 1106 l 2,35,36
 110 1106 110 1106 53 1098 c 1,37,38
 45 1131 45 1131 45 1184 c 0,39,40
 45 1275 45 1275 97.5 1313.5 c 128,-1,41
 150 1352 150 1352 250 1352 c 2,42,-1
 852 1352 l 2,11,12
EndSplineSet
Validated: 8388609
Position2: "'cpsp' Capital Spacing lookup 3 subtable" dx=10 dy=0 dh=20 dv=0
EndChar

StartChar: U
Encoding: 85 85 123
Width: 1320
Flags: MW
HStem: -41 188<590 712 590 729> 1311 41G<240 690 690 690 1034 1341 1341 1341>
VStem: 53 453<244 319 244 321> 53 1288<168 1352>
LayerCount: 2
Fore
SplineSet
1184 522 m 2,0,1
 1129 232 1129 232 975.5 95.5 c 128,-1,2
 822 -41 822 -41 537 -41 c 0,3,4
 433 -41 433 -41 348.5 -23 c 128,-1,5
 264 -5 264 -5 196 32.5 c 128,-1,6
 128 70 128 70 90.5 136 c 128,-1,7
 53 202 53 202 53 291 c 0,8,9
 53 387 53 387 80 526 c 2,10,-1
 240 1352 l 1,11,-1
 690 1352 l 1,12,-1
 530 500 l 2,13,14
 506 374 506 374 506 293 c 0,15,16
 506 147 506 147 633 147 c 0,17,18
 679 147 679 147 715 165.5 c 128,-1,19
 751 184 751 184 774 212 c 128,-1,20
 797 240 797 240 816.5 289.5 c 128,-1,21
 836 339 836 339 847.5 384.5 c 128,-1,22
 859 430 859 430 872 500 c 2,23,-1
 1034 1352 l 1,24,-1
 1341 1352 l 1,25,-1
 1184 522 l 2,0,1
EndSplineSet
Validated: 8388609
Position2: "'cpsp' Capital Spacing lookup 3 subtable" dx=10 dy=0 dh=20 dv=0
EndChar

StartChar: Uacute
Encoding: 218 218 124
Width: 1320
Flags: MW
HStem: -41 188<590 712 590 729> 1311 41G<240 690 690 690 1034 1341 1341 1341>
VStem: 53 453<244 319 244 321> 53 1288<168 1352>
LayerCount: 2
Fore
SplineSet
1184 522 m 2,0,1
 1129 232 1129 232 975.5 95.5 c 128,-1,2
 822 -41 822 -41 537 -41 c 0,3,4
 433 -41 433 -41 348.5 -23 c 128,-1,5
 264 -5 264 -5 196 32.5 c 128,-1,6
 128 70 128 70 90.5 136 c 128,-1,7
 53 202 53 202 53 291 c 0,8,9
 53 387 53 387 80 526 c 2,10,-1
 240 1352 l 1,11,-1
 690 1352 l 1,12,-1
 530 500 l 2,13,14
 506 374 506 374 506 293 c 0,15,16
 506 147 506 147 633 147 c 0,17,18
 679 147 679 147 715 165.5 c 128,-1,19
 751 184 751 184 774 212 c 128,-1,20
 797 240 797 240 816.5 289.5 c 128,-1,21
 836 339 836 339 847.5 384.5 c 128,-1,22
 859 430 859 430 872 500 c 2,23,-1
 1034 1352 l 1,24,-1
 1341 1352 l 1,25,-1
 1184 522 l 2,0,1
682 1554 m 1,26,-1
 1184 1763 l 1,27,28
 1241 1721 1241 1721 1241 1653 c 0,29,30
 1241 1602 1241 1602 1217 1564.5 c 128,-1,31
 1193 1527 1193 1527 1151 1506 c 128,-1,32
 1109 1485 1109 1485 1059.5 1474.5 c 128,-1,33
 1010 1464 1010 1464 950 1462 c 2,34,-1
 707 1454 l 1,35,-1
 682 1554 l 1,26,-1
EndSplineSet
Validated: 8388609
Position2: "'cpsp' Capital Spacing lookup 3 subtable" dx=10 dy=0 dh=20 dv=0
EndChar

StartChar: Ubreve
Encoding: 364 364 125
Width: 1320
Flags: MW
HStem: -41 188<590 712 590 729> 1311 41G<240 690 690 690 1034 1341 1341 1341> 1436 100<841 927 841 997>
VStem: 53 453<244 319 244 321> 500 303<1615 1642 1615 1662>
LayerCount: 2
Fore
SplineSet
1184 522 m 2,0,1
 1129 232 1129 232 975.5 95.5 c 128,-1,2
 822 -41 822 -41 537 -41 c 0,3,4
 433 -41 433 -41 348.5 -23 c 128,-1,5
 264 -5 264 -5 196 32.5 c 128,-1,6
 128 70 128 70 90.5 136 c 128,-1,7
 53 202 53 202 53 291 c 0,8,9
 53 387 53 387 80 526 c 2,10,-1
 240 1352 l 1,11,-1
 690 1352 l 1,12,-1
 530 500 l 2,13,14
 506 374 506 374 506 293 c 0,15,16
 506 147 506 147 633 147 c 0,17,18
 679 147 679 147 715 165.5 c 128,-1,19
 751 184 751 184 774 212 c 128,-1,20
 797 240 797 240 816.5 289.5 c 128,-1,21
 836 339 836 339 847.5 384.5 c 128,-1,22
 859 430 859 430 872 500 c 2,23,-1
 1034 1352 l 1,24,-1
 1341 1352 l 1,25,-1
 1184 522 l 2,0,1
811 1708 m 1,26,27
 803 1650 803 1650 803 1630 c 0,28,29
 803 1536 803 1536 877 1536 c 0,30,31
 906 1536 906 1536 928.5 1548 c 128,-1,32
 951 1560 951 1560 963 1573 c 128,-1,33
 975 1586 975 1586 987 1616 c 128,-1,34
 999 1646 999 1646 1002.5 1659.5 c 128,-1,35
 1006 1673 1006 1673 1014 1708 c 1,36,-1
 1309 1708 l 1,37,38
 1282 1587 1282 1587 1169.5 1511.5 c 128,-1,39
 1057 1436 1057 1436 856 1436 c 0,40,41
 685 1436 685 1436 592.5 1498.5 c 128,-1,42
 500 1561 500 1561 500 1653 c 0,43,44
 500 1678 500 1678 506 1708 c 1,45,-1
 811 1708 l 1,26,27
EndSplineSet
Validated: 8388609
Position2: "'cpsp' Capital Spacing lookup 3 subtable" dx=10 dy=0 dh=20 dv=0
EndChar

StartChar: Ucircumflex
Encoding: 219 219 126
Width: 1320
Flags: MW
HStem: -41 188<590 712 590 729> 1311 41G<240 690 690 690 1034 1341 1341 1341>
VStem: 53 453<244 319 244 321> 53 1288<168 1352>
LayerCount: 2
Fore
SplineSet
1184 522 m 2,0,1
 1129 232 1129 232 975.5 95.5 c 128,-1,2
 822 -41 822 -41 537 -41 c 0,3,4
 433 -41 433 -41 348.5 -23 c 128,-1,5
 264 -5 264 -5 196 32.5 c 128,-1,6
 128 70 128 70 90.5 136 c 128,-1,7
 53 202 53 202 53 291 c 0,8,9
 53 387 53 387 80 526 c 2,10,-1
 240 1352 l 1,11,-1
 690 1352 l 1,12,-1
 530 500 l 2,13,14
 506 374 506 374 506 293 c 0,15,16
 506 147 506 147 633 147 c 0,17,18
 679 147 679 147 715 165.5 c 128,-1,19
 751 184 751 184 774 212 c 128,-1,20
 797 240 797 240 816.5 289.5 c 128,-1,21
 836 339 836 339 847.5 384.5 c 128,-1,22
 859 430 859 430 872 500 c 2,23,-1
 1034 1352 l 1,24,-1
 1341 1352 l 1,25,-1
 1184 522 l 2,0,1
1100 1407 m 1,26,-1
 862 1513 l 1,27,-1
 559 1407 l 1,28,-1
 496 1501 l 1,29,-1
 838 1739 l 1,30,-1
 930 1739 l 1,31,-1
 1202 1501 l 1,32,-1
 1100 1407 l 1,26,-1
EndSplineSet
Validated: 8388609
Position2: "'cpsp' Capital Spacing lookup 3 subtable" dx=10 dy=0 dh=20 dv=0
EndChar

StartChar: Udieresis
Encoding: 220 220 127
Width: 1320
Flags: MW
HStem: -41 188<590 712 590 729> 1311 41G<240 690 690 690 1034 1341 1341 1341> 1413 311<581 693 1060 1172>
VStem: 53 453<244 319 244 321> 424 420<1518 1617> 903 420<1518 1617>
LayerCount: 2
Fore
SplineSet
1184 522 m 2,0,1
 1129 232 1129 232 975.5 95.5 c 128,-1,2
 822 -41 822 -41 537 -41 c 0,3,4
 433 -41 433 -41 348.5 -23 c 128,-1,5
 264 -5 264 -5 196 32.5 c 128,-1,6
 128 70 128 70 90.5 136 c 128,-1,7
 53 202 53 202 53 291 c 0,8,9
 53 387 53 387 80 526 c 2,10,-1
 240 1352 l 1,11,-1
 690 1352 l 1,12,-1
 530 500 l 2,13,14
 506 374 506 374 506 293 c 0,15,16
 506 147 506 147 633 147 c 0,17,18
 679 147 679 147 715 165.5 c 128,-1,19
 751 184 751 184 774 212 c 128,-1,20
 797 240 797 240 816.5 289.5 c 128,-1,21
 836 339 836 339 847.5 384.5 c 128,-1,22
 859 430 859 430 872 500 c 2,23,-1
 1034 1352 l 1,24,-1
 1341 1352 l 1,25,-1
 1184 522 l 2,0,1
1120 1724 m 0,26,27
 1213 1724 1213 1724 1268 1683.5 c 128,-1,28
 1323 1643 1323 1643 1323 1569 c 128,-1,29
 1323 1495 1323 1495 1264.5 1454 c 128,-1,30
 1206 1413 1206 1413 1112 1413 c 0,31,32
 1019 1413 1019 1413 961 1453 c 128,-1,33
 903 1493 903 1493 903 1565 c 0,34,35
 903 1640 903 1640 964 1682 c 128,-1,36
 1025 1724 1025 1724 1120 1724 c 0,26,27
641 1724 m 0,37,38
 734 1724 734 1724 789 1683.5 c 128,-1,39
 844 1643 844 1643 844 1569 c 128,-1,40
 844 1495 844 1495 785.5 1454 c 128,-1,41
 727 1413 727 1413 633 1413 c 0,42,43
 540 1413 540 1413 482 1453 c 128,-1,44
 424 1493 424 1493 424 1565 c 0,45,46
 424 1640 424 1640 485 1682 c 128,-1,47
 546 1724 546 1724 641 1724 c 0,37,38
EndSplineSet
Validated: 8388609
Position2: "'cpsp' Capital Spacing lookup 3 subtable" dx=10 dy=0 dh=20 dv=0
EndChar

StartChar: Udotbelow
Encoding: 7908 7908 128
Width: 1320
Flags: MW
HStem: -397 311<478 591> -41 188<590 712 590 729> 1311 41G<240 690 690 690 1034 1341 1341 1341>
VStem: 53 453<244 319 244 321> 53 1288<168 1352> 322 422<-293 -194>
LayerCount: 2
Fore
SplineSet
539 -86 m 0,0,1
 632 -86 632 -86 687.5 -127 c 128,-1,2
 743 -168 743 -168 743 -242 c 128,-1,3
 743 -316 743 -316 683.5 -356.5 c 128,-1,4
 624 -397 624 -397 530 -397 c 0,5,6
 437 -397 437 -397 379.5 -357.5 c 128,-1,7
 322 -318 322 -318 322 -246 c 0,8,9
 322 -171 322 -171 383.5 -128.5 c 128,-1,10
 445 -86 445 -86 539 -86 c 0,0,1
1184 522 m 2,11,12
 1129 232 1129 232 975.5 95.5 c 128,-1,13
 822 -41 822 -41 537 -41 c 0,14,15
 433 -41 433 -41 348.5 -23 c 128,-1,16
 264 -5 264 -5 196 32.5 c 128,-1,17
 128 70 128 70 90.5 136 c 128,-1,18
 53 202 53 202 53 291 c 0,19,20
 53 387 53 387 80 526 c 2,21,-1
 240 1352 l 1,22,-1
 690 1352 l 1,23,-1
 530 500 l 2,24,25
 506 374 506 374 506 293 c 0,26,27
 506 147 506 147 633 147 c 0,28,29
 679 147 679 147 715 165.5 c 128,-1,30
 751 184 751 184 774 212 c 128,-1,31
 797 240 797 240 816.5 289.5 c 128,-1,32
 836 339 836 339 847.5 384.5 c 128,-1,33
 859 430 859 430 872 500 c 2,34,-1
 1034 1352 l 1,35,-1
 1341 1352 l 1,36,-1
 1184 522 l 2,11,12
EndSplineSet
Validated: 8388609
Position2: "'cpsp' Capital Spacing lookup 3 subtable" dx=10 dy=0 dh=20 dv=0
EndChar

StartChar: Ugrave
Encoding: 217 217 129
Width: 1320
Flags: MW
HStem: -41 188<590 712 590 729> 1311 41G<240 690 690 690 1034 1341 1341 1341>
VStem: 53 453<244 319 244 321> 53 1288<168 1352>
LayerCount: 2
Fore
SplineSet
1184 522 m 2,0,1
 1129 232 1129 232 975.5 95.5 c 128,-1,2
 822 -41 822 -41 537 -41 c 0,3,4
 433 -41 433 -41 348.5 -23 c 128,-1,5
 264 -5 264 -5 196 32.5 c 128,-1,6
 128 70 128 70 90.5 136 c 128,-1,7
 53 202 53 202 53 291 c 0,8,9
 53 387 53 387 80 526 c 2,10,-1
 240 1352 l 1,11,-1
 690 1352 l 1,12,-1
 530 500 l 2,13,14
 506 374 506 374 506 293 c 0,15,16
 506 147 506 147 633 147 c 0,17,18
 679 147 679 147 715 165.5 c 128,-1,19
 751 184 751 184 774 212 c 128,-1,20
 797 240 797 240 816.5 289.5 c 128,-1,21
 836 339 836 339 847.5 384.5 c 128,-1,22
 859 430 859 430 872 500 c 2,23,-1
 1034 1352 l 1,24,-1
 1341 1352 l 1,25,-1
 1184 522 l 2,0,1
1061 1456 m 1,26,-1
 817 1464 l 2,27,28
 757 1466 757 1466 707.5 1476.5 c 128,-1,29
 658 1487 658 1487 616 1508 c 128,-1,30
 574 1529 574 1529 550 1566.5 c 128,-1,31
 526 1604 526 1604 526 1655 c 0,32,33
 526 1723 526 1723 584 1765 c 1,34,-1
 1085 1556 l 1,35,-1
 1061 1456 l 1,26,-1
EndSplineSet
Validated: 8388609
Position2: "'cpsp' Capital Spacing lookup 3 subtable" dx=10 dy=0 dh=20 dv=0
EndChar

StartChar: Uhungarumlaut
Encoding: 368 368 130
Width: 1320
Flags: MW
HStem: -41 188<590 712 590 729> 1311 41G<240 690 690 690 1034 1341 1341 1341>
VStem: 53 453<244 319 244 321> 53 1368<168 1667>
LayerCount: 2
Fore
SplineSet
1184 522 m 2,0,1
 1129 232 1129 232 975.5 95.5 c 128,-1,2
 822 -41 822 -41 537 -41 c 0,3,4
 433 -41 433 -41 348.5 -23 c 128,-1,5
 264 -5 264 -5 196 32.5 c 128,-1,6
 128 70 128 70 90.5 136 c 128,-1,7
 53 202 53 202 53 291 c 0,8,9
 53 387 53 387 80 526 c 2,10,-1
 240 1352 l 1,11,-1
 690 1352 l 1,12,-1
 530 500 l 2,13,14
 506 374 506 374 506 293 c 0,15,16
 506 147 506 147 633 147 c 0,17,18
 679 147 679 147 715 165.5 c 128,-1,19
 751 184 751 184 774 212 c 128,-1,20
 797 240 797 240 816.5 289.5 c 128,-1,21
 836 339 836 339 847.5 384.5 c 128,-1,22
 859 430 859 430 872 500 c 2,23,-1
 1034 1352 l 1,24,-1
 1341 1352 l 1,25,-1
 1184 522 l 2,0,1
1333 1755 m 1,26,27
 1373 1735 1373 1735 1397 1706.5 c 128,-1,28
 1421 1678 1421 1678 1421 1645 c 0,29,30
 1421 1571 1421 1571 1369 1534.5 c 128,-1,31
 1317 1498 1317 1498 1190 1468 c 2,32,-1
 1012 1427 l 1,33,-1
 952 1497 l 1,34,-1
 1333 1755 l 1,26,27
885 1755 m 1,35,36
 926 1736 926 1736 950.5 1706 c 128,-1,37
 975 1676 975 1676 975 1642 c 0,38,39
 975 1568 975 1568 922.5 1532 c 128,-1,40
 870 1496 870 1496 743 1468 c 2,41,-1
 561 1427 l 1,42,-1
 504 1497 l 1,43,-1
 885 1755 l 1,35,36
EndSplineSet
Validated: 8388609
Position2: "'cpsp' Capital Spacing lookup 3 subtable" dx=10 dy=0 dh=20 dv=0
EndChar

StartChar: Umacron
Encoding: 362 362 131
Width: 1320
Flags: MW
HStem: -41 188<590 712 590 729> 1311 41G<240 690 690 690 1034 1341 1341 1341> 1516 188<686 1032 553 1180>
VStem: 53 453<244 319 244 321> 53 1288<168 1352>
LayerCount: 2
Fore
SplineSet
1184 522 m 2,0,1
 1129 232 1129 232 975.5 95.5 c 128,-1,2
 822 -41 822 -41 537 -41 c 0,3,4
 433 -41 433 -41 348.5 -23 c 128,-1,5
 264 -5 264 -5 196 32.5 c 128,-1,6
 128 70 128 70 90.5 136 c 128,-1,7
 53 202 53 202 53 291 c 0,8,9
 53 387 53 387 80 526 c 2,10,-1
 240 1352 l 1,11,-1
 690 1352 l 1,12,-1
 530 500 l 2,13,14
 506 374 506 374 506 293 c 0,15,16
 506 147 506 147 633 147 c 0,17,18
 679 147 679 147 715 165.5 c 128,-1,19
 751 184 751 184 774 212 c 128,-1,20
 797 240 797 240 816.5 289.5 c 128,-1,21
 836 339 836 339 847.5 384.5 c 128,-1,22
 859 430 859 430 872 500 c 2,23,-1
 1034 1352 l 1,24,-1
 1341 1352 l 1,25,-1
 1184 522 l 2,0,1
1180 1704 m 1,26,27
 1188 1672 1188 1672 1188 1647 c 0,28,29
 1188 1589 1188 1589 1147.5 1552.5 c 128,-1,30
 1107 1516 1107 1516 1032 1516 c 2,31,-1
 553 1516 l 1,32,33
 547 1534 547 1534 547 1571 c 0,34,35
 548 1631 548 1631 587 1667.5 c 128,-1,36
 626 1704 626 1704 686 1704 c 2,37,-1
 1180 1704 l 1,26,27
EndSplineSet
Validated: 8388609
Position2: "'cpsp' Capital Spacing lookup 3 subtable" dx=10 dy=0 dh=20 dv=0
EndChar

StartChar: Uogonek
Encoding: 370 370 132
Width: 1320
Flags: MW
HStem: -528 172<736 783> -41 188<403 712 537 712> 1311 41G<240 690 690 690 1034 1341 1341 1341>
VStem: 53 453<244 319 244 321> 442 229<-288 -242>
LayerCount: 2
Fore
SplineSet
1341 1352 m 1,0,-1
 1184 522 l 2,1,2
 1147 327 1147 327 1067 203 c 128,-1,3
 987 79 987 79 854 18 c 1,4,5
 775 -37 775 -37 723.5 -109 c 128,-1,6
 672 -181 672 -181 672 -252 c 0,7,8
 672 -356 672 -356 768 -356 c 0,9,10
 850 -356 850 -356 895 -305 c 1,11,12
 915 -330 915 -330 923.5 -350 c 128,-1,13
 932 -370 932 -370 932 -401 c 0,14,15
 932 -455 932 -455 873.5 -491.5 c 128,-1,16
 815 -528 815 -528 711 -528 c 0,17,18
 584 -528 584 -528 513 -469.5 c 128,-1,19
 442 -411 442 -411 442 -299 c 0,20,21
 442 -141 442 -141 584 -41 c 1,22,-1
 537 -41 l 2,23,24
 433 -41 433 -41 348.5 -23 c 128,-1,25
 264 -5 264 -5 196 32.5 c 128,-1,26
 128 70 128 70 90.5 136 c 128,-1,27
 53 202 53 202 53 291 c 0,28,29
 53 387 53 387 80 526 c 2,30,-1
 240 1352 l 1,31,-1
 690 1352 l 1,32,-1
 530 500 l 2,33,34
 506 374 506 374 506 293 c 0,35,36
 506 147 506 147 633 147 c 0,37,38
 679 147 679 147 715 165.5 c 128,-1,39
 751 184 751 184 774 212 c 128,-1,40
 797 240 797 240 816.5 289.5 c 128,-1,41
 836 339 836 339 847.5 384.5 c 128,-1,42
 859 430 859 430 872 500 c 2,43,-1
 1034 1352 l 1,44,-1
 1341 1352 l 1,0,-1
EndSplineSet
Validated: 8388609
Position2: "'cpsp' Capital Spacing lookup 3 subtable" dx=10 dy=0 dh=20 dv=0
EndChar

StartChar: Uring
Encoding: 366 366 133
Width: 1320
Flags: MW
HStem: -41 188<590 712 590 729> 1311 41G<240 690 690 690 1034 1341 1341 1341> 1413 74<845 903 845 920> 1669 80<877 935>
VStem: 53 453<244 319 244 321> 664 139<1532 1588 1532 1615> 977 139<1568 1624>
LayerCount: 2
Fore
SplineSet
1184 522 m 2,0,1
 1129 232 1129 232 975.5 95.5 c 128,-1,2
 822 -41 822 -41 537 -41 c 0,3,4
 433 -41 433 -41 348.5 -23 c 128,-1,5
 264 -5 264 -5 196 32.5 c 128,-1,6
 128 70 128 70 90.5 136 c 128,-1,7
 53 202 53 202 53 291 c 0,8,9
 53 387 53 387 80 526 c 2,10,-1
 240 1352 l 1,11,-1
 690 1352 l 1,12,-1
 530 500 l 2,13,14
 506 374 506 374 506 293 c 0,15,16
 506 147 506 147 633 147 c 0,17,18
 679 147 679 147 715 165.5 c 128,-1,19
 751 184 751 184 774 212 c 128,-1,20
 797 240 797 240 816.5 289.5 c 128,-1,21
 836 339 836 339 847.5 384.5 c 128,-1,22
 859 430 859 430 872 500 c 2,23,-1
 1034 1352 l 1,24,-1
 1341 1352 l 1,25,-1
 1184 522 l 2,0,1
977 1602 m 0,26,27
 977 1669 977 1669 911 1669 c 0,28,29
 860 1669 860 1669 831.5 1637.5 c 128,-1,30
 803 1606 803 1606 803 1554 c 0,31,32
 803 1520 803 1520 818 1503.5 c 128,-1,33
 833 1487 833 1487 868 1487 c 0,34,35
 920 1487 920 1487 948.5 1518.5 c 128,-1,36
 977 1550 977 1550 977 1602 c 0,26,27
1116 1608 m 0,37,38
 1116 1520 1116 1520 1037.5 1466.5 c 128,-1,39
 959 1413 959 1413 852 1413 c 0,40,41
 766 1413 766 1413 715 1450 c 128,-1,42
 664 1487 664 1487 664 1554 c 0,43,44
 664 1641 664 1641 744 1695 c 128,-1,45
 824 1749 824 1749 932 1749 c 0,46,47
 1017 1749 1017 1749 1066.5 1712.5 c 128,-1,48
 1116 1676 1116 1676 1116 1608 c 0,37,38
EndSplineSet
Validated: 1
Position2: "'cpsp' Capital Spacing lookup 3 subtable" dx=10 dy=0 dh=20 dv=0
EndChar

StartChar: Utilde
Encoding: 360 360 134
Width: 1320
Flags: MW
HStem: -41 188<590 712 590 729> 1311 41G<240 690 690 690 1034 1341 1341 1341> 1479 221<1055 1127 1055 1127> 1516 219<621 690>
VStem: 53 453<244 319 244 321> 53 1288<168 1352>
LayerCount: 2
Fore
SplineSet
1184 522 m 2,0,1
 1129 232 1129 232 975.5 95.5 c 128,-1,2
 822 -41 822 -41 537 -41 c 0,3,4
 433 -41 433 -41 348.5 -23 c 128,-1,5
 264 -5 264 -5 196 32.5 c 128,-1,6
 128 70 128 70 90.5 136 c 128,-1,7
 53 202 53 202 53 291 c 0,8,9
 53 387 53 387 80 526 c 2,10,-1
 240 1352 l 1,11,-1
 690 1352 l 1,12,-1
 530 500 l 2,13,14
 506 374 506 374 506 293 c 0,15,16
 506 147 506 147 633 147 c 0,17,18
 679 147 679 147 715 165.5 c 128,-1,19
 751 184 751 184 774 212 c 128,-1,20
 797 240 797 240 816.5 289.5 c 128,-1,21
 836 339 836 339 847.5 384.5 c 128,-1,22
 859 430 859 430 872 500 c 2,23,-1
 1034 1352 l 1,24,-1
 1341 1352 l 1,25,-1
 1184 522 l 2,0,1
1225 1735 m 1,26,27
 1264 1688 1264 1688 1264 1630 c 0,28,29
 1264 1557 1264 1557 1211.5 1518 c 128,-1,30
 1159 1479 1159 1479 1067 1479 c 0,31,32
 1016 1479 1016 1479 852 1497.5 c 128,-1,33
 688 1516 688 1516 649 1516 c 0,34,35
 567 1516 567 1516 512 1481 c 1,36,37
 471 1539 471 1539 471 1597 c 0,38,39
 471 1663 471 1663 523.5 1699 c 128,-1,40
 576 1735 576 1735 674 1735 c 0,41,42
 733 1735 733 1735 895 1717.5 c 128,-1,43
 1057 1700 1057 1700 1102 1700 c 0,44,45
 1190 1700 1190 1700 1225 1735 c 1,26,27
EndSplineSet
Validated: 8388609
Position2: "'cpsp' Capital Spacing lookup 3 subtable" dx=10 dy=0 dh=20 dv=0
EndChar

StartChar: V
Encoding: 86 86 135
Width: 1105
Flags: MW
HStem: 1311 41G<1047 1298 1298 1298> 1352 41G
VStem: 16 1282
LayerCount: 2
Fore
SplineSet
123 985 m 1,0,1
 108 1196 108 1196 16 1270 c 1,2,3
 81 1393 81 1393 262 1393 c 0,4,5
 335 1393 335 1393 388.5 1372 c 128,-1,6
 442 1351 442 1351 474 1315.5 c 128,-1,7
 506 1280 506 1280 525 1223.5 c 128,-1,8
 544 1167 544 1167 550.5 1107 c 128,-1,9
 557 1047 557 1047 557 965 c 2,10,-1
 557 252 l 1,11,-1
 1047 1352 l 1,12,-1
 1298 1352 l 1,13,-1
 662 0 l 1,14,-1
 184 0 l 1,15,-1
 123 985 l 1,0,1
EndSplineSet
Validated: 8388609
Position2: "'cpsp' Capital Spacing lookup 3 subtable" dx=10 dy=0 dh=20 dv=0
EndChar

StartChar: W
Encoding: 87 87 136
Width: 1855
Flags: MW
HStem: 1311 41G<1014 1257 1257 1257 1796 2048 2048 2048> 1352 41G
VStem: 16 2032
LayerCount: 2
Fore
SplineSet
123 985 m 1,0,1
 108 1196 108 1196 16 1270 c 1,2,3
 81 1393 81 1393 262 1393 c 0,4,5
 335 1393 335 1393 388.5 1372 c 128,-1,6
 442 1351 442 1351 474 1315.5 c 128,-1,7
 506 1280 506 1280 525 1223.5 c 128,-1,8
 544 1167 544 1167 550.5 1107 c 128,-1,9
 557 1047 557 1047 557 965 c 2,10,-1
 557 252 l 1,11,-1
 1014 1352 l 1,12,-1
 1257 1352 l 1,13,-1
 1321 252 l 1,14,-1
 1796 1352 l 1,15,-1
 2048 1352 l 1,16,-1
 1425 0 l 1,17,-1
 987 0 l 1,18,-1
 948 647 l 1,19,-1
 662 0 l 1,20,-1
 184 0 l 1,21,-1
 123 985 l 1,0,1
EndSplineSet
Validated: 8388609
Position2: "'cpsp' Capital Spacing lookup 3 subtable" dx=10 dy=0 dh=20 dv=0
EndChar

StartChar: Wacute
Encoding: 7810 7810 137
Width: 1855
Flags: MW
HStem: 1311 41G<1014 1257 1257 1257 1796 2048 2048 2048> 1352 41G
VStem: 16 2032
LayerCount: 2
Fore
SplineSet
123 985 m 1,0,1
 108 1196 108 1196 16 1270 c 1,2,3
 81 1393 81 1393 262 1393 c 0,4,5
 335 1393 335 1393 388.5 1372 c 128,-1,6
 442 1351 442 1351 474 1315.5 c 128,-1,7
 506 1280 506 1280 525 1223.5 c 128,-1,8
 544 1167 544 1167 550.5 1107 c 128,-1,9
 557 1047 557 1047 557 965 c 2,10,-1
 557 252 l 1,11,-1
 1014 1352 l 1,12,-1
 1257 1352 l 1,13,-1
 1321 252 l 1,14,-1
 1796 1352 l 1,15,-1
 2048 1352 l 1,16,-1
 1425 0 l 1,17,-1
 987 0 l 1,18,-1
 948 647 l 1,19,-1
 662 0 l 1,20,-1
 184 0 l 1,21,-1
 123 985 l 1,0,1
1001 1554 m 1,22,-1
 1503 1763 l 1,23,24
 1561 1721 1561 1721 1561 1653 c 0,25,26
 1561 1602 1561 1602 1537 1564.5 c 128,-1,27
 1513 1527 1513 1527 1471 1506 c 128,-1,28
 1429 1485 1429 1485 1379.5 1474.5 c 128,-1,29
 1330 1464 1330 1464 1270 1462 c 2,30,-1
 1026 1454 l 1,31,-1
 1001 1554 l 1,22,-1
EndSplineSet
Validated: 8388609
Position2: "'cpsp' Capital Spacing lookup 3 subtable" dx=10 dy=0 dh=20 dv=0
EndChar

StartChar: Wcircumflex
Encoding: 372 372 138
Width: 1855
Flags: MW
HStem: 1311 41G<1014 1257 1257 1257 1796 2048 2048 2048> 1352 41G
VStem: 16 2032
LayerCount: 2
Fore
SplineSet
123 985 m 1,0,1
 108 1196 108 1196 16 1270 c 1,2,3
 81 1393 81 1393 262 1393 c 0,4,5
 335 1393 335 1393 388.5 1372 c 128,-1,6
 442 1351 442 1351 474 1315.5 c 128,-1,7
 506 1280 506 1280 525 1223.5 c 128,-1,8
 544 1167 544 1167 550.5 1107 c 128,-1,9
 557 1047 557 1047 557 965 c 2,10,-1
 557 252 l 1,11,-1
 1014 1352 l 1,12,-1
 1257 1352 l 1,13,-1
 1321 252 l 1,14,-1
 1796 1352 l 1,15,-1
 2048 1352 l 1,16,-1
 1425 0 l 1,17,-1
 987 0 l 1,18,-1
 948 647 l 1,19,-1
 662 0 l 1,20,-1
 184 0 l 1,21,-1
 123 985 l 1,0,1
1419 1407 m 1,22,-1
 1182 1513 l 1,23,-1
 879 1407 l 1,24,-1
 815 1501 l 1,25,-1
 1157 1739 l 1,26,-1
 1249 1739 l 1,27,-1
 1522 1501 l 1,28,-1
 1419 1407 l 1,22,-1
EndSplineSet
Validated: 8388609
Position2: "'cpsp' Capital Spacing lookup 3 subtable" dx=10 dy=0 dh=20 dv=0
EndChar

StartChar: Wdieresis
Encoding: 7812 7812 139
Width: 1855
Flags: MW
HStem: 1311 41G<1014 1257 1257 1257 1796 2048 2048 2048> 1352 41G 1413 311<900 1013 1379 1492>
VStem: 16 2032 743 420<1518 1617> 1223 420<1518 1617>
LayerCount: 2
Fore
SplineSet
123 985 m 1,0,1
 108 1196 108 1196 16 1270 c 1,2,3
 81 1393 81 1393 262 1393 c 0,4,5
 335 1393 335 1393 388.5 1372 c 128,-1,6
 442 1351 442 1351 474 1315.5 c 128,-1,7
 506 1280 506 1280 525 1223.5 c 128,-1,8
 544 1167 544 1167 550.5 1107 c 128,-1,9
 557 1047 557 1047 557 965 c 2,10,-1
 557 252 l 1,11,-1
 1014 1352 l 1,12,-1
 1257 1352 l 1,13,-1
 1321 252 l 1,14,-1
 1796 1352 l 1,15,-1
 2048 1352 l 1,16,-1
 1425 0 l 1,17,-1
 987 0 l 1,18,-1
 948 647 l 1,19,-1
 662 0 l 1,20,-1
 184 0 l 1,21,-1
 123 985 l 1,0,1
1440 1724 m 0,22,23
 1532 1724 1532 1724 1587 1683.5 c 128,-1,24
 1642 1643 1642 1643 1642 1569 c 128,-1,25
 1642 1495 1642 1495 1584 1454 c 128,-1,26
 1526 1413 1526 1413 1432 1413 c 0,27,28
 1339 1413 1339 1413 1281 1453 c 128,-1,29
 1223 1493 1223 1493 1223 1565 c 0,30,31
 1223 1640 1223 1640 1284 1682 c 128,-1,32
 1345 1724 1345 1724 1440 1724 c 0,22,23
961 1724 m 0,33,34
 1053 1724 1053 1724 1108 1683.5 c 128,-1,35
 1163 1643 1163 1643 1163 1569 c 128,-1,36
 1163 1495 1163 1495 1104.5 1454 c 128,-1,37
 1046 1413 1046 1413 952 1413 c 0,38,39
 859 1413 859 1413 801 1453 c 128,-1,40
 743 1493 743 1493 743 1565 c 0,41,42
 743 1640 743 1640 804.5 1682 c 128,-1,43
 866 1724 866 1724 961 1724 c 0,33,34
EndSplineSet
Validated: 8388609
Position2: "'cpsp' Capital Spacing lookup 3 subtable" dx=10 dy=0 dh=20 dv=0
EndChar

StartChar: Wgrave
Encoding: 7808 7808 140
Width: 1855
Flags: MW
HStem: 1311 41G<1014 1257 1257 1257 1796 2048 2048 2048> 1352 41G
VStem: 16 2032
LayerCount: 2
Fore
SplineSet
123 985 m 1,0,1
 108 1196 108 1196 16 1270 c 1,2,3
 81 1393 81 1393 262 1393 c 0,4,5
 335 1393 335 1393 388.5 1372 c 128,-1,6
 442 1351 442 1351 474 1315.5 c 128,-1,7
 506 1280 506 1280 525 1223.5 c 128,-1,8
 544 1167 544 1167 550.5 1107 c 128,-1,9
 557 1047 557 1047 557 965 c 2,10,-1
 557 252 l 1,11,-1
 1014 1352 l 1,12,-1
 1257 1352 l 1,13,-1
 1321 252 l 1,14,-1
 1796 1352 l 1,15,-1
 2048 1352 l 1,16,-1
 1425 0 l 1,17,-1
 987 0 l 1,18,-1
 948 647 l 1,19,-1
 662 0 l 1,20,-1
 184 0 l 1,21,-1
 123 985 l 1,0,1
1380 1456 m 1,22,-1
 1137 1464 l 2,23,24
 1077 1466 1077 1466 1027.5 1476.5 c 128,-1,25
 978 1487 978 1487 936 1508 c 128,-1,26
 894 1529 894 1529 870 1566.5 c 128,-1,27
 846 1604 846 1604 846 1655 c 0,28,29
 846 1723 846 1723 903 1765 c 1,30,-1
 1405 1556 l 1,31,-1
 1380 1456 l 1,22,-1
EndSplineSet
Validated: 8388609
Position2: "'cpsp' Capital Spacing lookup 3 subtable" dx=10 dy=0 dh=20 dv=0
EndChar

StartChar: X
Encoding: 88 88 141
Width: 1136
Flags: MW
HStem: 1311 41G<1012 1280 1280 1280> 1350 41G<272 414>
VStem: -139 1419<0 1352>
LayerCount: 2
Fore
SplineSet
203 1065 m 2,0,1
 171 1154 171 1154 137.5 1201 c 128,-1,2
 104 1248 104 1248 53 1276 c 1,3,4
 157 1391 157 1391 338 1391 c 0,5,6
 450 1391 450 1391 510.5 1340 c 128,-1,7
 571 1289 571 1289 614 1163 c 1,8,-1
 700 920 l 1,9,-1
 1012 1352 l 1,10,-1
 1280 1352 l 1,11,-1
 784 684 l 1,12,-1
 913 319 l 2,13,14
 942 238 942 238 992.5 176.5 c 128,-1,15
 1043 115 1043 115 1087 106 c 1,16,17
 1056 34 1056 34 981.5 -3.5 c 128,-1,18
 907 -41 907 -41 817 -41 c 0,19,20
 691 -41 691 -41 621 31.5 c 128,-1,21
 551 104 551 104 502 246 c 1,22,-1
 436 422 l 1,23,-1
 131 0 l 1,24,-1
 -139 0 l 1,25,-1
 350 657 l 1,26,-1
 203 1065 l 2,0,1
EndSplineSet
Validated: 8388609
Position2: "'cpsp' Capital Spacing lookup 3 subtable" dx=10 dy=0 dh=20 dv=0
EndChar

StartChar: Y
Encoding: 89 89 142
Width: 1122
Flags: MW
HStem: 1352 41G<257 433 1063 1212>
VStem: 49 1282
LayerCount: 2
Fore
SplineSet
643 711 m 1,0,1
 767 1073 767 1073 889 1233 c 128,-1,2
 1011 1393 1011 1393 1167 1393 c 0,3,4
 1304 1393 1304 1393 1331 1282 c 1,5,6
 1166 1210 1166 1210 1004.5 1004 c 128,-1,7
 843 798 843 798 745 524 c 1,8,-1
 643 0 l 1,9,-1
 199 0 l 1,10,-1
 317 602 l 1,11,12
 287 831 287 831 250 966.5 c 128,-1,13
 213 1102 213 1102 167 1168.5 c 128,-1,14
 121 1235 121 1235 49 1276 c 1,15,16
 138 1393 138 1393 317 1393 c 0,17,18
 489 1393 489 1393 565 1265.5 c 128,-1,19
 641 1138 641 1138 643 858 c 1,20,-1
 643 711 l 1,0,1
EndSplineSet
Validated: 1
Position2: "'cpsp' Capital Spacing lookup 3 subtable" dx=10 dy=0 dh=20 dv=0
EndChar

StartChar: Yacute
Encoding: 221 221 143
Width: 1122
Flags: MW
HStem: 1352 41G<257 433 1063 1212>
VStem: 49 1282
LayerCount: 2
Fore
SplineSet
643 711 m 1,0,1
 767 1073 767 1073 889 1233 c 128,-1,2
 1011 1393 1011 1393 1167 1393 c 0,3,4
 1304 1393 1304 1393 1331 1282 c 1,5,6
 1166 1210 1166 1210 1004.5 1004 c 128,-1,7
 843 798 843 798 745 524 c 1,8,-1
 643 0 l 1,9,-1
 199 0 l 1,10,-1
 317 602 l 1,11,12
 287 831 287 831 250 966.5 c 128,-1,13
 213 1102 213 1102 167 1168.5 c 128,-1,14
 121 1235 121 1235 49 1276 c 1,15,16
 138 1393 138 1393 317 1393 c 0,17,18
 489 1393 489 1393 565 1265.5 c 128,-1,19
 641 1138 641 1138 643 858 c 1,20,-1
 643 711 l 1,0,1
590 1554 m 1,21,-1
 1092 1763 l 1,22,23
 1149 1721 1149 1721 1149 1653 c 0,24,25
 1149 1602 1149 1602 1125 1564.5 c 128,-1,26
 1101 1527 1101 1527 1059 1506 c 128,-1,27
 1017 1485 1017 1485 967.5 1474.5 c 128,-1,28
 918 1464 918 1464 858 1462 c 2,29,-1
 614 1454 l 1,30,-1
 590 1554 l 1,21,-1
EndSplineSet
Validated: 1
Position2: "'cpsp' Capital Spacing lookup 3 subtable" dx=10 dy=0 dh=20 dv=0
EndChar

StartChar: Ycircumflex
Encoding: 374 374 144
Width: 1122
Flags: MW
HStem: 1352 41G<257 433 1063 1212>
VStem: 49 1282
LayerCount: 2
Fore
SplineSet
643 711 m 1,0,1
 767 1073 767 1073 889 1233 c 128,-1,2
 1011 1393 1011 1393 1167 1393 c 0,3,4
 1304 1393 1304 1393 1331 1282 c 1,5,6
 1166 1210 1166 1210 1004.5 1004 c 128,-1,7
 843 798 843 798 745 524 c 1,8,-1
 643 0 l 1,9,-1
 199 0 l 1,10,-1
 317 602 l 1,11,12
 287 831 287 831 250 966.5 c 128,-1,13
 213 1102 213 1102 167 1168.5 c 128,-1,14
 121 1235 121 1235 49 1276 c 1,15,16
 138 1393 138 1393 317 1393 c 0,17,18
 489 1393 489 1393 565 1265.5 c 128,-1,19
 641 1138 641 1138 643 858 c 1,20,-1
 643 711 l 1,0,1
1008 1407 m 1,21,-1
 770 1513 l 1,22,-1
 467 1407 l 1,23,-1
 403 1501 l 1,24,-1
 745 1739 l 1,25,-1
 838 1739 l 1,26,-1
 1110 1501 l 1,27,-1
 1008 1407 l 1,21,-1
EndSplineSet
Validated: 1
Position2: "'cpsp' Capital Spacing lookup 3 subtable" dx=10 dy=0 dh=20 dv=0
EndChar

StartChar: Ydieresis
Encoding: 376 376 145
Width: 1122
Flags: MW
HStem: 1352 41G<257 433 1063 1212> 1413 311<488 601 968 1080>
VStem: 49 1282 332 420<1518 1617> 811 420<1518 1617>
LayerCount: 2
Fore
SplineSet
643 711 m 1,0,1
 767 1073 767 1073 889 1233 c 128,-1,2
 1011 1393 1011 1393 1167 1393 c 0,3,4
 1304 1393 1304 1393 1331 1282 c 1,5,6
 1166 1210 1166 1210 1004.5 1004 c 128,-1,7
 843 798 843 798 745 524 c 1,8,-1
 643 0 l 1,9,-1
 199 0 l 1,10,-1
 317 602 l 1,11,12
 287 831 287 831 250 966.5 c 128,-1,13
 213 1102 213 1102 167 1168.5 c 128,-1,14
 121 1235 121 1235 49 1276 c 1,15,16
 138 1393 138 1393 317 1393 c 0,17,18
 489 1393 489 1393 565 1265.5 c 128,-1,19
 641 1138 641 1138 643 858 c 1,20,-1
 643 711 l 1,0,1
1028 1724 m 0,21,22
 1121 1724 1121 1724 1176 1683.5 c 128,-1,23
 1231 1643 1231 1643 1231 1569 c 128,-1,24
 1231 1495 1231 1495 1172.5 1454 c 128,-1,25
 1114 1413 1114 1413 1020 1413 c 0,26,27
 927 1413 927 1413 869 1453 c 128,-1,28
 811 1493 811 1493 811 1565 c 0,29,30
 811 1640 811 1640 872 1682 c 128,-1,31
 933 1724 933 1724 1028 1724 c 0,21,22
549 1724 m 0,32,33
 642 1724 642 1724 697 1683.5 c 128,-1,34
 752 1643 752 1643 752 1569 c 128,-1,35
 752 1495 752 1495 693.5 1454 c 128,-1,36
 635 1413 635 1413 541 1413 c 0,37,38
 448 1413 448 1413 390 1453 c 128,-1,39
 332 1493 332 1493 332 1565 c 0,40,41
 332 1640 332 1640 393 1682 c 128,-1,42
 454 1724 454 1724 549 1724 c 0,32,33
EndSplineSet
Validated: 8388609
Position2: "'cpsp' Capital Spacing lookup 3 subtable" dx=10 dy=0 dh=20 dv=0
EndChar

StartChar: Ygrave
Encoding: 7922 7922 146
Width: 1122
Flags: MW
HStem: 1352 41G<257 433 1063 1212>
VStem: 49 1282
LayerCount: 2
Fore
SplineSet
643 711 m 1,0,1
 767 1073 767 1073 889 1233 c 128,-1,2
 1011 1393 1011 1393 1167 1393 c 0,3,4
 1304 1393 1304 1393 1331 1282 c 1,5,6
 1166 1210 1166 1210 1004.5 1004 c 128,-1,7
 843 798 843 798 745 524 c 1,8,-1
 643 0 l 1,9,-1
 199 0 l 1,10,-1
 317 602 l 1,11,12
 287 831 287 831 250 966.5 c 128,-1,13
 213 1102 213 1102 167 1168.5 c 128,-1,14
 121 1235 121 1235 49 1276 c 1,15,16
 138 1393 138 1393 317 1393 c 0,17,18
 489 1393 489 1393 565 1265.5 c 128,-1,19
 641 1138 641 1138 643 858 c 1,20,-1
 643 711 l 1,0,1
969 1456 m 1,21,-1
 725 1464 l 2,22,23
 665 1466 665 1466 615.5 1476.5 c 128,-1,24
 566 1487 566 1487 524 1508 c 128,-1,25
 482 1529 482 1529 458 1566.5 c 128,-1,26
 434 1604 434 1604 434 1655 c 0,27,28
 434 1723 434 1723 492 1765 c 1,29,-1
 993 1556 l 1,30,-1
 969 1456 l 1,21,-1
EndSplineSet
Validated: 1
Position2: "'cpsp' Capital Spacing lookup 3 subtable" dx=10 dy=0 dh=20 dv=0
EndChar

